<?xml version="1.0" encoding="UTF-8" standalone="no"?>
<!DOCTYPE svg PUBLIC "-//W3C//DTD SVG 1.1//EN" "http://www.w3.org/Graphics/SVG/1.1/DTD/svg11.dtd">
<svg width="100%" height="100%" viewBox="0 0 1410 750" version="1.1" xmlns="http://www.w3.org/2000/svg" xmlns:xlink="http://www.w3.org/1999/xlink" xml:space="preserve" xmlns:serif="http://www.serif.com/" style="fill-rule:evenodd;clip-rule:evenodd;stroke-linecap:square;stroke-miterlimit:10;">
    <g transform="matrix(1,0,0,1,10.60454,9.330709)">
        <path d="M-5.605,648.017L-0.605,648.017L0.013,644.817L0.557,646.41L0.91,644.116L1.645,644.423L1.836,646.183L2.321,646.613L2.542,643.947L3.027,644.168L3.968,646.827L4.453,647.209L4.895,644.923L5.35,647.587L5.821,644.637L6.144,646.948L6.306,644.257L7.115,643.803L7.527,646.118L8.188,645.266L8.762,646.658L9.188,646.841L9.879,644.592L10.644,647.208L10.864,644.413L11.1,646.314L11.57,644.954L12.658,647.303L12.937,644.208L13.013,644.95L13.878,647.603L14.496,646.92L14.687,645.036L15.319,644.286L15.863,646.929L16.702,644.895L16.996,647.789L17.013,647.69L17.863,644.402L18.437,646.073L18.76,643.285L19.069,644.998L20.013,638L20.113,638.003L20.627,633.856L21.142,635.492L21.965,644.303L22.024,644.103L22.554,647.377L23.333,646.954L24.013,644.462L24.112,644.19L24.833,647.191L25.083,644.956L25.333,646.881L26.377,645.131L26.95,648.079L27.013,647.418L27.171,644.805L28.288,645.444L29.013,647.625L29.067,647.985L29.935,644.693L30.17,643.861L30.714,648.02L31.013,646.918L31.464,644.312L32.258,646.959L32.581,645.605L33.714,646.414L34.008,643.687L34.013,643.696L34.287,647.359L35.625,644.75L35.949,647.414L36.013,646.837L36.375,645.026L37.242,647.093L37.522,644.178L38.013,645.504L38.272,642.243L39.022,644.723L39.551,646.153L40.139,644.703L40.389,647.94L41.036,646.353L41.683,644.913L42.55,645.307L43.013,646.382L43.389,646.847L43.874,645.522L44.653,644.723L44.888,647.994L45.013,647.717L45.579,645.137L46.013,646.234L47.013,642.735L47.035,642.683L48.006,648.002L48.013,647.99L48.564,645.337L49.049,646.495L50.013,644.02L50.02,644.017L50.402,646.024L51.726,645.469L51.858,647.046L52.02,646.568L52.181,644.707L53.211,647.363L53.461,644.279L54.578,645.615L54.784,647.415L55.166,646.656L55.99,645.343L56.695,647.077L57.013,645.088L57.401,644.738L57.769,646.178L58.386,646.734L58.783,645.305L59.107,647.357L59.474,644.033L60.239,643.74L60.562,647.414L61.342,647.208L61.636,644.999L62.342,644.357L62.886,647.197L63.459,646.91L63.915,644.934L64.253,644.874L64.973,647.008L65.4,644.597L66.013,646.923L66.326,645.493L66.767,647.181L67.488,646.979L67.885,644.848L68.399,647.432L68.679,644.57L69.532,647.108L69.679,644.966L70.267,645.239L70.605,647.979L71.619,645.211L71.899,647.266L72.013,646.549L72.869,644.694L73.428,646.703L73.899,644.721L74.013,644.987L74.56,647.142L75.487,646.744L75.736,643.633L76.325,645.022L76.589,647.48L77.075,646.868L77.574,644.495L78.265,647.661L78.692,644.965L79.089,647.496L80.013,643.836L80.074,643.01L80.427,646.882L81.324,646.039L81.824,643.866L82.118,645.049L82.632,647.334L83.235,644.943L83.97,646.752L84.338,645.947L84.735,647.547L85.014,646.873L85.97,644.66L86.661,647.076L86.882,644.403L87.485,644.685L87.661,647.724L88.013,647.394L88.69,644.802L89.102,644.872L89.646,648.067L90.278,644.986L90.822,647.051L91.058,646.969L91.528,644.657L92.337,644.77L92.69,646.38L93.087,645.902L93.395,644.499L94.484,644.967L94.704,646.748L95.322,646.84L95.792,644.735L96.66,646.524L96.998,644.901L97.233,646.914L97.527,644.569L98.468,647.348L99.013,641.439L99.659,636.783L100.1,640.76L100.835,644.743L101.115,644.889L101.938,638.858L102.35,637.251L103.013,643.52L103.262,646.352L104.482,643.157L104.761,647.916L105.629,644.438L106.011,648.215L106.013,648.21L106.923,644.897L107.173,645.308L107.658,647.202L108.187,644.872L108.834,646.204L109.334,647.545L109.922,644.819L110.143,644.647L110.393,647.15L111.349,645.519L111.672,647.883L112.26,644.64L112.995,647.742L113.013,647.695L113.98,644.744L114.013,645.112L114.73,647.048L115.216,644.747L116.013,646.85L116.068,647.401L117.013,645.11L117.274,644.011L117.759,646.669L118.2,647.109L118.421,644.451L119.333,644.751L120.013,648.533L120.024,648.598L120.95,645.419L121.229,647.001L122.009,645.142L122.42,644.912L122.759,646.776L123.494,644.665L123.979,646.87L124.42,645.023L125.008,647.032L125.479,644.636L125.685,647.365L126.17,644.208L126.729,646.332L127.743,644.308L127.934,645.72L128.302,647.785L128.963,645.041L129.155,645.786L130.013,647.386L130.022,647.392L131.013,644.997L131.184,644.809L132.013,647.26L132.066,647.56L132.625,645.125L133.013,646.233L133.58,643.876L134.301,646.66L134.801,643.892L135.013,645.002L135.609,648.602L136.815,643.897L137.013,646.336L137.903,645.155L138.013,646.814L138.624,647.782L138.991,645.65L139.491,645.637L139.859,647.286L140.168,645.576L140.932,647.411L141.212,644.832L142.013,647.22L142.02,647.227L142.932,645.232L143.152,644.688L143.285,646.732L144.388,647.483L144.932,644.055L145.013,644.523L145.373,646.887L146.24,643.968L146.828,646.832L147.122,644.658L147.416,647.318L148.152,646.278L148.519,645.147L149.578,644.672L149.696,646.74L150.445,644.139L150.769,646.949L151.013,645.172L151.578,647.256L152.107,647.063L152.783,644.049L153.224,647.024L153.445,644.707L154.342,647.604L154.901,644.7L155.106,645.499L155.327,646.879L156.356,647.839L156.65,645.583L157.121,644.756L157.385,646.339L158.209,644.449L158.753,646.988L159.297,646.421L159.841,643.981L160.15,646.907L160.473,644.582L161.326,644.578L162.013,646.87L162.017,646.892L162.796,644.525L163.013,645.095L163.884,647.635L164.076,645.191L165.002,647.646L165.013,647.577L165.487,644.726L166.237,646.538L166.472,644.783L167.046,645.82L167.296,644.121L168.384,647.957L168.854,644.787L169.472,647.487L169.957,644.764L170.045,644.869L170.53,648.091L171.295,644.719L171.751,646.203L172.383,646.91L172.81,643.699L173.013,645.016L173.412,647.973L174.192,647.467L175.013,644.677L175.118,643.331L175.412,647.382L176.5,644.574L176.647,646.231L177.191,647.863L177.794,644.871L178.22,647.139L178.426,644.93L179.161,647.124L179.897,645.401L180.073,647.537L180.97,645.078L181.058,645.969L181.382,644.307L182.44,646.974L182.808,643.496L183.146,646.411L183.602,644.102L184.102,646.527L184.675,643.786L185.072,643.628L185.969,647.879L186.013,647.615L186.499,644.525L187.337,644.456L187.94,646.592L188.425,644.958L188.895,646.882L189.439,647.954L189.851,645.579L190.571,647.666L191.013,645.727L191.248,645.001L191.733,646.836L192.365,647.343L192.601,644.717L193.497,646.536L193.924,644.615L194.409,644.94L194.615,647.427L195.071,647.648L195.703,645.576L196.144,644.774L196.82,647.689L197.085,646.794L197.629,643.589L198.013,645.252L198.85,647.328L199.013,646.697L199.32,644.372L200.305,644.122L200.673,647.353L201.526,646.049L201.702,644.122L202.07,644.933L203.013,646.777L203.481,647.711L203.834,643.484L204.013,645.375L204.349,646.867L205.202,647.089L206.013,644.038L206.628,646.378L206.892,643.127L207.013,643.556L207.701,639.108L208.013,639.729L208.922,644.812L209.377,646.155L209.627,643.955L210.098,645.272L211.013,639.062L211.186,638.438L212.013,644.389L212.186,643.785L213.013,647.325L213.215,647.782L213.318,645.384L214.013,646.073L214.45,647.987L215.259,644.79L215.935,648.165L216.013,647.821L217.013,644.524L217.214,643.997L218.013,646.948L218.288,647.132L218.582,645.575L219.787,645.017L220.013,646.815L220.184,646.886L220.817,645.376L221.625,645.001L221.831,646.469L222.096,647.688L222.861,644.826L223.816,646.53L224.013,644.685L224.022,644.652L224.875,647.189L225.39,646.915L225.772,643.988L226.013,646.324L226.301,644.305L227.08,646.271L227.713,643.995L228.11,644.252L228.918,645.49L229.683,644.652L229.904,646.215L230.242,644.21L230.521,647.805L231.013,645.192L231.403,646.85L232.094,644.352L232.727,646.372L233.447,645.184L233.785,647.405L234.256,647.111L234.52,644.584L235.609,644.617L236.006,647.396L236.226,647.757L236.711,643.709L237.299,644.964L237.682,647.774L238.196,645.155L238.579,647.278L239.013,647.133L239.431,644.995L240.402,644.937L240.902,647.403L241.093,647.391L241.534,644.435L242.137,647.477L242.931,645.2L243.357,645.266L243.798,646.545L244.137,647.362L244.519,645.031L245.034,645.253L245.916,647.178L246.269,645.319L246.592,647.71L247.063,645.291L247.445,647.379L248.013,647.348L248.518,645.644L249.401,645.443L249.548,647.76L250.077,645.385L250.474,647.527L251.356,644.273L251.797,647.089L252.415,646.388L252.841,644.631L253.562,646.723L253.767,644.555L254.517,644.901L254.738,647.205L255.12,646.707L255.9,644.605L256.12,644.923L256.488,646.547L257.061,646.636L258.002,644.787L258.267,643.155L258.723,646.632L259.252,646.661L259.37,644.748L260.119,644.078L260.414,646.377L261.207,646.477L261.854,643.651L262.013,644.197L262.81,646.738L263.575,643.934L264.001,647.289L264.013,647.263L264.942,644.904L265.339,646.165L265.574,643.355L266.118,647.41L266.971,645.011L267.442,645.221L267.956,646.829L268.206,645.45L268.971,647.602L269.013,647.522L269.368,645.112L270.03,647.116L270.985,644.862L271.779,643.739L272.013,646.976L272.044,647.196L272.294,644.516L273.132,646.217L273.897,643.761L274.353,648.152L274.911,643.877L275.455,646.81L275.838,643.976L276.396,643.729L276.705,647.334L277.352,646.55L277.852,643.842L278.367,643.9L278.617,646.073L279.455,644.448L279.925,646.781L280.072,645.365L280.969,646.945L281.484,645.004L281.763,646.975L282.263,646.383L282.91,644.685L283.086,645.24L283.233,647.072L284.13,645.09L284.836,647.826L285.174,647.361L285.321,645.159L286.512,644.244L286.762,646.197L287.013,644.905L287.85,647.165L288.336,646.455L288.718,644.964L289.218,647.066L289.497,644.779L290.276,644.598L291.013,646.291L291.232,646.401L291.35,644.894L292.261,644.577L293.013,646.992L293.041,647.139L293.908,645.425L294.423,644.687L294.688,646.989L295.423,644.389L295.658,646.968L296.187,646.554L296.481,644.674L297.055,646.617L297.849,644.626L298.555,647.275L298.805,644.518L299.422,644.06L299.701,646.168L300.466,644.128L300.981,646.096L301.275,644.601L301.51,646.081L302.172,646.288L302.833,644.19L303.421,647.558L303.554,645.466L304.186,648.023L304.583,644.774L305.054,646.549L305.362,644.45L306.171,648.248L306.48,644.73L307.73,647.182L307.95,644.976L308.391,644.307L308.979,647.069L309.013,646.893L309.494,644.183L310.082,647.385L310.641,643.833L311.303,647.263L311.538,644.71L312.2,644.118L312.655,646.719L313.802,643.506L313.979,646.691L314.302,646.584L314.846,645.3L315.331,645.078L315.92,647.518L316.17,647.714L316.772,645.217L317.096,644.611L317.625,647.004L318.228,648.239L318.963,645.363L319.36,647.94L319.86,645.11L320.522,646.061L320.698,644.256L321.051,644.849L321.727,646.893L322.639,646.662L322.83,644.582L323.095,644.631L324.013,647.122L324.242,645.063L324.58,647.579L325.256,647.459L325.742,644.247L326.227,646.482L326.433,644.871L327.138,644.757L327.844,647.633L328.285,644.398L328.623,646.662L329.013,644.672L329.3,647.538L330.138,646.72L330.991,644.318L331.241,646.419L331.652,644.277L332.079,644.412L332.285,646.557L333.013,645.314L333.696,642.862L334.358,647.334L335.013,644.482L335.049,644.378L335.784,647.776L336.593,647.215L336.931,645.584L337.549,645.146L337.681,647.985L338.151,647.214L338.475,644.564L339.357,646.848L339.901,645.015L340.489,644.467L340.872,646.568L341.254,644.95L342.004,647.034L342.013,646.991L342.224,643.366L343.209,643.11L343.989,645.83L344.013,645.801L344.239,644.271L345.047,645.671L345.238,643.668L346.032,645.397L346.503,625.032L347.032,642.152L348.013,646.573L348.4,647.16L348.826,644.7L349.458,644.797L349.944,648.47L350.013,647.889L350.37,644.484L351.282,647.659L351.943,645.376L352.267,643.592L352.781,647.124L353.737,647.603L353.899,645.579L354.164,643.176L354.678,645.844L355.222,646.797L355.869,643.787L356.516,646.404L356.825,643.158L357.516,645.902L357.722,643.758L358.56,644.702L358.766,646.788L359.013,645.61L359.427,644.644L360.266,644.401L361.013,646.354L361.045,646.424L361.883,643.768L362.074,643.388L362.383,646.039L363.324,645.073L363.853,646.87L364.368,644.054L364.677,645.878L365.559,644.87L365.971,647.056L366.013,646.676L367.013,643.623L367.735,645.456L367.882,643.561L368.117,645.494L368.617,642.691L369.073,646.062L369.632,643.312L370.073,646.054L370.882,644.123L371.146,645.752L371.543,643.97L372.411,643.598L372.734,645.485L373.499,647.536L373.925,643.556L374.146,642.775L374.602,644.419L375.44,641.969L375.984,645.022L376.013,644.728L376.484,633.146L377.763,644.171L377.983,641.82L378.336,643.748L378.998,640.216L379.204,639.76L379.792,641.188L380.262,641.613L380.895,638.829L381.056,639.76L382.013,633.865L382.159,633.869L383.013,624.537L384.013,527.309L384.556,-10L385.013,340.326L386.013,605.226L386.247,614.142L387.013,597.569L387.805,531.331L388.013,538.647L389.013,598.239L390.013,616.077L390.084,616.377L391.013,595.483L391.79,524.107L392.013,533.381L393.013,599.854L394.013,624.341L395.013,633.894L395.466,635.55L395.878,633.022L396.201,633.456L397.013,629.514L398.013,613.696L399.013,566.167L399.906,423.592L400.013,428.001L401.013,538.054L402.013,574.658L402.362,576.352L403.013,546.495L403.803,413.179L404.013,427.039L405.013,548.418L406.013,605.761L407.013,627.838L407.611,635.127L408.013,634.986L409.013,639.89L409.699,638.502L409.92,640.736L410.537,639.855L410.919,641.934L411.625,643.087L411.875,640.826L412.243,640.795L412.39,643.417L413.434,641.317L413.978,643.265L414.066,642.571L414.963,644.706L415.198,645.163L415.992,643.118L416.389,642.598L417.013,645.585L417.021,645.621L417.712,643.62L418.051,644.367L418.521,642.587L419.013,644.031L419.771,641.977L420.08,642.345L420.668,644.412L421.124,644.231L421.609,642.123L422.153,643.474L423.013,639.886L423.212,638.769L423.726,642.124L424.153,641.938L424.579,620.825L425.123,634.897L425.755,639.619L426.314,640.643L426.932,637.446L427.137,639.358L427.711,634.523L428.431,633.06L429.005,637.201L429.049,637.076L429.711,640.008L430.519,640.752L431.013,634.51L431.034,634.431L431.857,640.444L432.137,636.268L433.013,642.991L433.078,643.755L433.357,641.973L434.622,644.985L435.013,641.852L435.107,642.234L435.739,637.802L436.013,641.306L436.621,643.063L437.033,642.936L437.739,639.363L438.013,641.227L438.944,643.468L439.239,642.37L440.013,644.983L440.033,645.044L440.709,641.61L441.459,642.496L441.591,644.242L442.194,644.758L443.013,637.812L443.017,637.805L443.944,644.48L444.179,642.192L444.973,645.005L445.208,645.889L445.429,643.982L446.013,645.073L447.013,642.802L447.076,642.271L447.355,644.981L448.487,642.985L448.943,646.258L449.013,645.953L449.943,642.274L450.56,641.245L451.013,644.652L451.266,645.741L452.013,643.292L452.089,642.577L452.457,645.569L453.28,643.729L454.013,645.316L454.06,645.918L454.854,641.889L455.104,644.222L456.013,640.981L456.236,642.066L457.013,640.002L457.412,640.023L457.662,638.35L458.013,639.785L459.013,641.776L459.177,643.192L459.779,639.078L460.235,641.476L460.97,637.796L461.013,638.142L461.794,642.948L462.029,641.423L462.985,645.738L463.013,645.538L463.838,642.829L464.013,644.061L464.926,645.755L465.573,646.462L465.749,643.503L466.455,641.553L466.867,645.793L467.293,643.804L467.881,646.034L468.263,642.286L468.807,646.501L469.469,643.931L469.704,645.888L470.337,641.374L470.984,645.563L471.778,643.734L471.91,645.254L472.439,645.428L472.998,642.768L473.174,644.613L473.601,642.685L474.101,644.757L474.424,641.526L475.115,641.133L475.63,643.594L476.527,643.155L476.924,640.995L477.541,640.331L477.894,642.736L478.453,640.604L478.835,642.604L479.262,640.237L480.013,643.276L480.07,643.891L480.908,641.099L481.526,642.156L481.805,644.692L482.305,645.412L482.717,643.329L483.364,642.804L483.864,645.696L484.099,642.836L484.437,645.375L485.187,644.315L486.013,646.925L486.04,647.025L486.422,643.836L487.29,645.568L487.937,644.825L488.013,645.462L488.201,643.777L489.378,644.69L489.804,642.838L490.013,643.39L490.892,638.445L491.013,639.107L491.524,641.784L492.113,642.746L492.613,634.739L493.362,643.534L493.745,638L494.098,640.1L495.013,634.363L495.362,619.769L496.013,634.225L496.906,643.695L497.024,642.767L497.671,646.446L498.391,624.775L499.013,643.254L499.288,642.087L499.509,646.578L500.214,645.719L500.45,643.308L501.013,644.235L501.935,646.458L502.013,646.028L502.787,644.437L503.023,645.705L503.817,642.507L504.067,644.484L504.875,646.612L505.213,646.414L505.346,645.006L506.404,643.666L506.949,646.553L507.013,646.07L507.39,643.746L508.713,645.694L508.992,643.109L509.154,645.28L509.992,642.683L510.013,642.797L510.624,645.259L511.757,645.385L511.918,643.483L512.021,644.661L513.013,641.331L513.212,640.384L513.756,643.232L514.756,644.096L514.933,641.155L515.256,641.957L515.521,644.15L516.726,643.979L516.918,640.939L517.065,642.297L517.315,640.732L518.064,642.323L518.344,640.807L519.241,643.161L519.594,638.939L520.064,641.854L521.013,644.392L521.123,645.042L521.726,641.683L522.013,644.477L523.013,642.627L523.358,644.97L523.784,641.769L524.416,645.536L525.005,642.563L525.328,644.514L525.754,641.638L526.357,643.292L526.842,644.743L527.651,642.942L528.013,644.671L528.269,645.592L528.974,642.038L529.013,642.327L529.695,644.554L530.136,643.534L530.518,645.172L531.621,642.123L531.945,646.482L532.371,646.553L532.533,644.878L533.371,643.978L533.885,646.942L534.091,646.203L534.312,644.421L535.209,643.541L535.473,645.524L536.694,643.789L537.013,646.732L537.061,647.124L537.62,644.378L538.238,644.734L539.013,624.776L539.282,590.618L540.013,638.631L540.914,644.317L541.013,643.223L542.013,626.722L542.311,584.956L543.013,638.533L543.619,643.069L544.075,642.387L544.634,634.901L545.487,633.97L546.013,642.1L546.648,645.454L547.013,643.953L547.913,635.848L548.295,642.107L548.78,632.287L549.013,639.184L549.854,644.582L550.486,642.748L550.971,645.075L551.236,646.671L551.662,644.51L552.089,646.872L552.309,645.126L553.294,644.064L553.735,646.225L554.588,645.118L554.853,647.269L555.676,646.653L555.926,645.027L556.058,645.951L556.75,643.244L557.308,644.018L557.632,647.313L558.117,646.339L558.97,642.495L559.337,640.061L559.837,643.868L560.013,643.306L560.896,646.548L561.161,644.868L561.602,647.29L562.852,644.597L563.013,647.141L563.013,647.141L563.925,644.579L564.19,648.077L564.395,645.273L565.248,646.489L565.439,644.389L566.63,644.224L566.792,646.323L567.865,647.021L568.013,644.863L568.042,644.816L568.704,646.873L569.321,646.265L570.013,643.036L570.145,643.486L570.571,633.443L571.013,642.478L571.556,646.061L572.453,645.915L572.894,644.235L573.218,646.746L573.82,632.909L574.013,639.396L574.732,646.967L575.114,646.597L575.938,644.8L576.261,646.493L577.013,644.207L577.467,646.052L577.82,643.675L578.379,643.996L578.79,646.2L579.013,644.227L579.717,630.129L580.013,639.248L580.643,643.28L581.216,641.26L581.922,645.136L582.013,644.552L582.731,633.115L583.29,643.818L583.76,639.966L584.069,641.226L584.892,645.327L585.539,646.595L585.907,643.787L586.171,643.846L587.013,646.536L587.112,646.939L587.701,645.043L588.098,646.798L588.995,643.519L589.112,645.396L589.73,642.968L590.013,644.262L591.013,637.078L591.729,626.409L592.013,630.232L592.979,642.925L593.067,642.12L593.994,645.897L594.361,647.399L594.979,643.431L595.494,643.271L595.891,645.224L596.14,645.681L597.013,642.781L597.023,642.731L597.229,645.867L598.184,643.603L598.714,646.167L599.581,643.844L599.802,646.732L600.713,644.211L601.007,646.786L601.595,647.099L601.875,644.663L602.14,646.711L602.463,644.857L603.066,646.863L603.272,643.941L604.022,644.802L605.013,647.028L605.551,647.518L605.771,645.137L606.536,644.605L606.815,647.71L607.271,647.497L608.006,644.432L608.013,644.455L608.3,646.827L609.285,644.956L609.859,646.768L610.013,646.165L610.594,644.212L611.506,643.999L611.623,645.867L612.52,643.103L612.623,645.021L613.013,643.726L613.447,645.584L614.314,646.702L614.917,644.497L615.108,645.225L616.013,643.826L616.108,642.953L616.917,647.069L617.24,647.014L617.637,645.199L618.013,646.553L618.887,644.672L619.24,646.762L619.784,644.16L620.013,644.947L620.504,646.888L621.695,647.284L621.96,645.198L622.283,646.866L622.989,644.267L623.136,644.395L623.607,645.973L624.327,647.33L624.665,644.643L625.636,645.042L625.768,647.449L626.224,644.832L626.915,647.628L627.062,647.353L627.65,644.151L628.474,646.658L629.003,644.808L629.013,644.82L629.635,646.45L630.503,647.159L630.635,645.595L631.013,646.296L631.12,644.396L632.282,646.586L632.664,645.207L633.488,648.245L634.013,643.944L634.399,641.896L635.013,646.691L635.12,647.569L635.399,644.773L636.013,645.56L636.296,647.189L637.075,645.063L637.311,647.38L638.575,647.742L638.928,645.467L639.266,645.612L639.751,646.904L640.06,647.038L640.634,643.948L641.31,645.124L641.839,647.618L642.486,644.321L642.736,648.001L643.013,646.656L643.824,644.35L644.162,645.702L644.559,646.83L645.015,646.692L645.662,642.883L646.044,643.173L647.013,646.536L647.427,645.161L647.971,647.492L648.059,647.513L649.013,644.288L649.059,644.094L649.603,647.12L650.176,644.263L650.485,646.506L651.499,647.722L651.779,645.072L652.088,647.098L652.367,645.632L653.19,645.743L653.779,648.025L654.073,647.572L654.734,644.327L655.205,646.379L655.925,644.188L656.013,645.306L656.587,646.66L657.543,644.493L658.013,646.805L658.028,646.842L658.837,644.117L659.189,645.935L659.748,648.191L660.278,647.792L660.601,644.219L661.616,646.35L661.763,644.739L662.571,644.364L663.013,646.127L663.086,647.541L663.395,644.903L664.042,646.306L664.262,644.697L665.203,644.877L665.6,647.178L666.674,647.304L666.894,644.997L667.218,645.588L667.865,647.476L668.026,646.625L668.497,644.345L669.482,645.79L669.997,642.045L670.013,642.097L670.688,644.846L671.013,643.935L671.408,646.777L672.173,645.129L672.643,641.874L673.187,641.115L673.981,645.543L674.319,643.289L674.849,645.893L675.407,646.896L676.013,644.127L676.246,643.104L676.79,647.402L677.187,645.754L677.657,642.345L678.569,643.602L678.951,645.48L679.172,644.37L680.01,647.467L680.013,647.444L680.877,645.285L681.451,646.484L681.671,644.827L682.377,644.602L682.95,646.781L683.013,646.424L683.789,643.511L684.377,645.164L684.759,641.014L685.013,643.07L685.965,647.155L686.112,643.819L686.92,646.749L687.156,646.749L687.935,644.446L688.2,646.484L688.347,643.312L689.067,646.191L689.244,644.842L690.435,646.53L690.611,644.962L691.258,647.321L691.684,645.172L692.013,647.254L692.273,644.743L693.669,647.717L693.905,644.757L694.669,644.255L695.013,646.61L695.081,647.488L695.581,643.405L696.287,646.49L696.963,644.054L697.066,643.966L698.013,646.726L698.08,646.911L698.904,644.754L699.507,646.167L699.86,644.529L700.183,643.487L700.433,645.801L701.786,644.923L701.992,648.626L702.013,648.478L702.477,645.742L703.33,647.862L703.903,646.102L704.491,646.94L704.741,645.166L705.065,646.908L705.976,644.262L706.212,647.387L706.638,644.076L707.013,645.578L707.344,648.679L708.013,646.657L708.476,644.84L709.049,646.631L710.013,642.253L710.137,639.867L711.013,644.814L711.152,643.242L711.505,645.901L712.034,644.41L713.013,634.168L713.034,634.064L714.013,643.5L714.137,643.142L714.475,646.46L715.013,645.064L716.013,636.905L716.048,636.691L716.872,644.869L717.013,644.434L717.269,645.94L718.136,644.346L718.607,646.029L719.165,643.499L719.651,645.796L720.195,646.949L720.548,644.344L721.503,644.59L721.709,646.971L722.253,647.207L723.013,643.997L723.224,642.809L723.797,645.859L724.503,646.08L724.709,643.673L725.532,646.048L726.003,643.086L726.605,641.552L726.929,643.828L727.017,643.094L728.013,646.009L728.032,646.024L728.855,643.62L729.237,644.639L729.487,639.337L730.325,643.882L730.722,645.334L731.134,646.02L731.458,643.527L732.105,643.829L732.796,645.908L733.148,644.044L733.457,646.568L734.428,646.845L735.013,643.982L735.031,643.951L735.869,647.065L736.236,645.335L736.471,647.258L737.618,644.593L737.795,646.262L738.221,646.085L738.736,644.648L739.177,644.182L739.397,647.264L740.133,645.964L740.647,644.32L741.013,644.764L741.353,646.639L742.059,645.36L743.013,639.128L743.75,634.336L744.013,639.19L745,644.163L745.147,644.24L745.97,638.219L746.058,638.954L746.499,634.83L747.013,636.826L747.764,644.901L748.073,643.512L748.558,646.792L749.719,647.74L749.984,645.023L750.013,645.136L750.116,646.635L751.263,645.356L751.94,646.507L752.704,644.179L753.013,647.691L753.013,647.691L753.601,645.609L754.616,647.304L754.851,644.936L755.16,647.43L755.483,644.616L756.527,644.54L756.777,647.641L757.601,646.93L757.792,644.388L758.1,645.62L758.894,641.362L759.013,641.821L759.38,645.739L760.247,644.049L760.571,646.205L761.321,646.329L762.013,643.062L762.1,642.544L762.673,646.513L763.203,647.373L763.541,645.225L764.644,644.367L764.982,646.732L765.129,645.005L766.013,648.168L766.026,648.235L766.761,646.262L767.07,648.247L767.952,644.63L768.013,644.905L768.378,646.427L769.26,643.486L769.878,646.612L770.069,644.963L770.319,646.806L771.393,644.672L771.745,647.427L772.348,647L772.76,644.211L773.319,644.263L773.598,646.561L774.171,644.473L774.627,647.979L775.318,645.651L775.774,644.305L776.627,647.029L777.013,644.485L777.039,644.271L777.994,646.767L778.127,647.031L778.641,644.242L779.013,645.079L779.671,647.605L780.435,645.053L780.553,647.375L781.626,644.995L781.803,647.52L782.347,641.385L782.744,646.049L783.244,646.747L783.758,644.705L784.376,646.167L784.92,643.592L785.199,643.84L785.479,642.778L786.155,644.878L787.013,636.44L787.155,634.053L787.89,642.499L788.052,640.753L789.013,645.497L789.022,645.497L789.86,641.341L790.013,641.751L790.61,631.873L791.013,641.578L791.389,645.542L792.389,646.446L792.816,643.572L793.183,645.146L793.61,647.507L794.036,647.392L794.374,645.206L795.83,646.612L796.006,644.424L796.013,644.428L797.013,647.295L797.021,647.315L797.594,645.352L798.609,644.402L799.013,646.882L799.52,645.47L799.682,647.887L800.844,644.987L801.013,646.854L801.388,645.453L801.991,648.288L802.013,648.051L803.013,644.548L803.049,644.388L803.314,646.087L804.167,646.252L804.52,643.649L805.475,644.432L806.013,646.336L806.034,646.424L806.784,644.737L807.313,647.005L807.549,644.216L808.357,645.129L808.99,646.517L809.739,646.593L809.901,644.796L810.725,647.103L810.93,644.306L811.577,647.042L811.916,644.841L812.077,646.805L812.739,643.804L813.621,646.321L813.974,643.737L814.062,643.824L814.548,646.852L815.312,646.916L815.636,645.303L816.106,647.099L816.988,644.139L817.013,644.261L817.179,646.865L818.106,646.307L818.415,643.808L819.253,647.266L819.885,644.691L820.047,646.83L820.591,644.713L821.208,644.254L821.664,646.587L822.296,646.769L822.429,645.162L823.076,645.166L823.517,646.9L824.105,644.569L824.59,647.18L825.193,644.679L825.855,647.672L826.737,646.456L826.899,644.422L827.296,645.985L827.722,643.374L828.825,645.536L829.013,642.677L829.178,642.836L829.972,619.846L830.013,620.02L831.013,642.087L831.295,641.802L831.765,646.202L832.501,644.268L832.78,646.702L833.412,647.127L833.53,645.298L834.471,644.477L834.824,647.343L835.515,644.567L835.809,646.781L836.309,645.455L836.897,647.208L837.573,648.217L837.794,645.448L838.22,647.138L838.823,644.786L839.132,646.578L839.691,643.38L840.514,644.325L840.97,647.025L841.323,646.972L841.543,645.372L842.528,644.84L842.793,647.732L843.484,647.559L843.925,645.894L844.249,646.749L845.013,645.238L845.043,645.088L845.616,646.922L846.234,646.469L846.807,643.355L847.116,644.081L847.586,646.339L848.219,643.189L848.969,645.889L849.513,648.116L850.013,644.997L850.042,644.857L850.351,647.405L851.351,647.057L852.013,643.79L852.395,646.058L852.703,643.329L853.688,646.808L853.983,643.804L854.013,644.018L854.35,647.22L855.556,647.787L855.923,643.754L856.541,646.909L856.732,643.868L857.644,646.624L857.82,644.486L858.07,646.368L858.511,644.85L859.57,644.894L859.805,647.117L860.879,647.756L861.011,645.771L861.79,646.824L861.981,645.029L862.172,646.919L862.702,644.897L863.363,647.166L863.849,645.457L864.422,647.96L864.922,645.045L865.084,646.135L865.951,644.451L866.275,646.607L867.013,644.219L867.039,644.065L867.554,646.686L868.48,644.483L868.818,646.015L869.48,648.09L869.965,645.5L870.377,645.637L870.73,647.499L871.583,645.183L871.95,646.423L872.141,647.174L872.715,644.553L873.068,646.54L873.406,643.811L874.215,646.76L874.876,644.418L875.773,646.392L876.013,644.55L876.082,644.443L876.714,647.557L877.082,644.971L877.949,646.718L878.013,645.887L878.935,644.042L879.067,643.752L879.39,646.729L880.464,644.2L880.861,645.699L881.013,645.004L881.669,629.23L882.013,639.031L882.963,644.314L883.169,645.845L884.013,642.646L885.013,631.474L885.095,630.246L886.007,643.915L886.448,643.024L886.948,645.633L887.242,644.073L887.507,645.965L888.418,645.797L888.904,643.803L889.462,644.298L889.609,646.852L890.624,645.892L890.859,642.906L891.374,642.886L891.624,646.431L892.013,646.125L892.653,644.469L893.594,643.84L893.829,646.196L894.123,643.959L894.564,646.989L895.123,646.714L895.491,644.043L896.549,643.521L896.917,647.629L897.013,646.887L898.013,644.47L898.123,644.264L899.013,647.909L899.034,648.001L899.843,644.294L900.167,646.5L900.343,643.831L901.549,644.64L901.666,646.652L902.013,645.787L902.99,643.903L903.013,643.941L903.416,646.59L904.666,646.834L904.783,644.897L905.18,645.906L906.013,644.026L906.43,643.241L906.592,645.601L907.518,644.28L907.724,646.046L908.386,643.891L908.724,646.2L909.209,646.03L909.665,643.824L910.871,644.723L910.988,646.445L911.165,645.361L911.503,647.755L912.606,645.317L912.9,647.059L913.15,645.421L913.87,647.667L914.179,646.472L915.013,644.828L915.076,644.258L915.885,646.779L916.032,645.131L916.899,646.85L917.193,646.7L917.355,644.285L918.134,645.142L918.355,647.157L919.458,647.83L919.825,645.118L920.252,647.153L920.825,644.926L921.354,644.767L921.884,648.159L922.692,647.525L922.825,644.998L923.104,643.973L923.736,646.337L924.427,647.672L924.692,645.112L925.013,646.663L925.457,644.931L926.148,645.088L926.986,647.122L927.013,647.04L927.956,644.293L928.78,644.494L928.927,645.832L929.118,647.403L929.912,644.114L930.013,644.706L930.324,646.991L931.176,645.241L931.897,647.008L932.764,646.838L933.013,644.604L933.749,644.243L933.955,646.894L934.514,644.861L935.013,647.036L935.043,647.042L935.426,643.617L936.117,645.222L936.602,647.618L937.013,646.824L938.013,644.676L938.087,644.382L938.263,646.178L939.734,646.309L939.896,645.033L940.013,645.611L940.984,647.606L941.013,647.556L941.278,644.337L942.307,646.89L942.91,645.148L943.042,645.889L943.322,643.566L944.424,645.369L944.762,647.33L945.645,644.549L946.013,646.938L946.321,645.063L946.836,647.723L947.233,644.268L947.453,647.117L948.291,644.64L948.762,645.983L949.718,645.135L949.865,646.866L950.013,645.538L950.864,647.288L951.482,644.564L951.894,647.511L952.408,647.835L953.013,644.421L953.055,643.935L953.57,647.183L954.717,644.668L954.923,647.374L955.261,647.264L955.628,645.066L956.143,646.508L956.79,644.754L957.378,646.384L957.628,643.579L958.437,644.6L958.599,647.865L959.157,646.917L960.013,645.4L960.275,643.889L960.686,646.51L961.466,647.536L961.863,644.06L962.245,647.958L962.598,645.193L963.23,647.816L963.451,644.621L964.377,644.185L964.877,647.073L965.583,647.257L965.803,644.848L966.303,647.609L966.641,644.064L967.48,647.143L967.921,644.661L968.141,647.639L968.832,645.071L969.759,648.087L969.964,645.387L970.45,647.167L970.67,644.078L971.876,645.249L971.979,647.381L972.435,647.362L972.64,644.448L973.199,647.626L973.39,644.955L974.787,645.13L974.978,647.234L975.684,646.047L975.934,648.003L976.36,645.595L976.816,647.143L977.272,646.643L977.713,644.494L978.419,644.74L978.772,647.112L979.184,646.874L979.36,645.302L980.169,645.993L980.595,643.096L981.374,643.907L981.654,646.187L982.448,644.5L982.859,647.904L983.403,647.386L983.786,644.998L984.08,646.775L984.403,644.779L985.359,644.742L985.977,647.201L986.013,646.965L986.594,644.096L987.329,644.668L987.594,646.763L988.447,644.636L989.013,646.718L989.167,647.443L989.991,644.606L990.564,645.449L990.902,643.925L991.388,646.649L991.843,644.405L992.49,645.925L993.005,644.368L993.167,643.557L993.99,647.156L994.013,647.074L994.137,644.648L995.013,644.95L995.46,647.317L996.372,647.421L996.887,643.5L997.013,644.441L998.004,646.797L998.651,644.611L998.93,648.098L999.013,646.967L999.298,644.701L1000.121,646.784L1000.298,644.686L1001.165,646.805L1001.592,644.454L1002.048,644.544L1002.636,647.899L1003.013,647.326L1003.297,644.685L1004.013,646.719L1005.013,623.544L1005.047,621.593L1006.013,645.256L1006.341,644.603L1006.576,646.783L1007.87,645.525L1008.013,644.63L1008.223,644.136L1008.782,646.214L1009.591,644.585L1009.723,646.533L1010.223,645.179L1010.664,647.228L1011.59,646.307L1012.013,644.614L1012.634,646.975L1013.013,644.263L1013.046,644.123L1013.722,646.491L1014.134,644.228L1014.957,646.727L1015.443,647.312L1015.84,645.401L1016.604,643.96L1017.001,645.738L1017.134,646.435L1017.81,645.324L1018.619,647.129L1019.013,644.753L1019.016,644.736L1019.471,647.742L1020.398,646.28L1020.53,644.331L1021.118,646.319L1021.883,643.605L1022.53,644.519L1022.941,647.067L1023.353,647.966L1023.603,645.262L1024.382,645.677L1024.735,647.063L1025.25,645.086L1025.47,646.74L1026.117,644.927L1026.279,647.663L1027.529,647.95L1027.838,645.226L1028.088,646.594L1028.514,644.891L1029.279,644.575L1029.411,645.808L1030.323,644.219L1030.676,647.448L1031.175,646.281L1031.896,644.906L1032.411,644.214L1032.749,647.404L1033.528,644.371L1033.984,646.925L1034.425,644.417L1035.013,647.341L1035.028,647.404L1035.851,644.117L1036.689,644.199L1036.925,647.143L1037.498,644.783L1037.954,646.73L1038.116,647.006L1038.439,643.628L1039.468,647.679L1040.013,644.685L1040.027,644.648L1041.013,647.087L1041.086,647.613L1041.541,644.498L1042.365,646.627L1043.013,645.279L1043.585,646.327L1043.938,644.346L1044.335,646.084L1044.615,644.237L1045.879,646.47L1046.013,644.498L1046.055,644.321L1046.864,646.377L1047.173,644.975L1047.938,646.786L1048.732,647.316L1048.908,644.604L1049.231,644.621L1049.952,646.892L1050.013,646.605L1050.672,644.631L1051.349,645.545L1051.849,643.187L1052.349,645.694L1052.657,643.776L1053.216,644.097L1054.013,646.334L1054.304,647.03L1054.936,644.995L1055.554,644.971L1055.863,647.823L1056.025,647.11L1056.304,645.001L1057.451,646.508L1057.995,645.106L1058.215,645.837L1058.612,644.68L1059.274,644.113L1059.509,645.933L1060.2,643.781L1060.73,647.156L1061.421,643.383L1061.862,647.61L1062.112,645.12L1062.376,646.728L1063.17,645.499L1063.744,647.678L1064.067,647.802L1064.259,644.892L1065.494,644.653L1065.788,646.591L1066.582,647.544L1066.729,645.284L1067.64,643.827L1067.949,646.705L1068.013,646.213L1068.978,644.527L1069.013,644.637L1069.831,647.171L1070.258,646.884L1070.743,644.53L1071.052,644.749L1071.948,647.11L1072.566,643.848L1073.007,646.584L1073.169,644.13L1073.963,646.849L1074.375,644.965L1074.595,646.917L1075.183,644.695L1075.389,647.451L1076.213,644.907L1076.389,646.851L1077.168,644.789L1077.521,646.921L1078.286,647.299L1079.006,644.556L1079.013,644.576L1079.271,646.46L1080.241,646.902L1080.535,644.511L1081.124,644.994L1081.785,647.784L1082.491,646.759L1083.013,643.919L1083.138,642.663L1084.013,645.747L1084.255,647.708L1085.005,643.724L1085.535,645.967L1085.99,643.183L1086.013,643.28L1086.829,647.313L1087.02,647.059L1087.652,644.395L1088.034,646.764L1088.858,644.086L1089.181,643.64L1089.975,646.571L1090.49,647.744L1090.946,644.571L1091.298,644.357L1091.828,646.317L1092.607,644.273L1092.798,646.287L1093.078,646.157L1093.783,644.11L1094.092,645.356L1094.489,642.886L1095.013,644.104L1095.254,645.746L1096.092,644.789L1097.003,646.647L1097.013,646.609L1098.013,643.956L1098.194,643.496L1098.812,645.793L1099.371,645.412L1099.929,642.818L1100.013,643.919L1100.356,646.413L1101.723,647.042L1102.013,643.514L1102.664,643.111L1102.841,645.116L1103.135,643.938L1103.988,647.977L1104.013,647.882L1104.429,645.213L1105.149,646.779L1105.605,644.117L1106.634,645.071L1106.767,646.227L1107.134,646.619L1107.428,643.884L1108.487,645.302L1109.013,637.098L1109.281,633.801L1110.013,642.899L1110.722,645.556L1111.045,643.585L1111.604,634.901L1112.013,639.7L1112.942,646.481L1113.163,644.074L1114.013,646.493L1114.368,647.257L1114.501,645.351L1115.013,645.666L1115.603,643.88L1116.618,643.673L1116.883,646.095L1117.397,644.871L1117.735,647.423L1118.206,643.634L1119,646.007L1119.47,646.47L1119.838,643.611L1120.367,645.57L1120.794,643.096L1121.294,644.208L1122.013,645.723L1122.014,645.725L1122.176,643.219L1123.073,645.726L1124.013,629.039L1124.205,623.891L1125.013,643.464L1125.47,644.77L1125.764,642.474L1126.028,643.284L1127.013,630.713L1127.19,622.324L1127.778,641.686L1128.013,641.526L1128.748,587.142L1129.013,618.273L1130.013,642.703L1130.675,644.22L1131.013,641.936L1131.777,588.701L1132.013,614.553L1133.013,642.593L1133.689,643.939L1134.013,640.191L1134.145,640.005L1134.88,645.804L1135.013,644.079L1135.938,641.656L1136.013,642.483L1136.924,645.458L1137.291,643.056L1138.013,645.268L1138.159,645.949L1138.688,643.478L1139.423,643.782L1139.953,645.917L1140.364,643.71L1140.644,645.199L1141.541,643.113L1141.893,644.844L1142.04,644.066L1142.57,645.577L1143.393,642.173L1143.746,644.95L1144.349,646.155L1144.893,643.622L1145.658,644.443L1145.981,646.698L1146.013,646.475L1146.246,643.986L1147.013,644.76L1147.363,643.015L1148.363,641.926L1148.569,644.388L1149.304,644.743L1149.995,642.747L1150.127,644.11L1150.539,630.829L1151.304,642.251L1151.804,644.9L1152.656,642.883L1152.818,644.177L1153.083,644.137L1153.509,631.745L1154.2,642.032L1154.98,645.02L1155.288,646.126L1156.009,643.734L1156.303,645.222L1156.803,642.896L1157.013,643.871L1157.406,645.658L1158.611,646.549L1158.847,643.576L1159.905,645.218L1160.013,643.161L1160.42,646.109L1160.993,642.805L1161.332,645.381L1161.993,642.843L1162.013,642.892L1162.258,645.448L1163.013,643.537L1163.846,645.78L1164.066,644.803L1164.463,642.895L1165.052,643.413L1165.846,645.245L1166.493,645.173L1166.934,642.972L1167.272,641.327L1167.757,644.359L1168.492,642.736L1168.669,644.802L1169.013,643.867L1169.727,630.373L1170.301,638.582L1170.962,634.118L1171.301,628.066L1171.962,637.107L1172.013,636.552L1172.962,631.006L1173.197,632.933L1173.918,591.038L1174.013,593.362L1174.682,622.536L1175.168,623.769L1175.726,585.074L1176.013,606.077L1176.564,631.088L1177.013,628.996L1177.711,637.896L1178.388,634.225L1178.902,618.909L1179.013,623.312L1179.932,639.659L1180.013,639.089L1180.402,642.507L1181.417,643.358L1182.013,634.449L1182.152,631.018L1182.961,642.866L1183.475,640.892L1183.755,644.096L1184.446,643.312L1185.013,641.6L1185.107,640.939L1185.416,642.865L1186.107,641.221L1186.254,643.279L1187.225,643.293L1187.945,641.351L1188.107,641.203L1189.013,643.201L1189.151,643.301L1189.974,641.575L1190.239,642.591L1190.709,636.929L1191.518,643.603L1191.915,639.677L1192.136,641.897L1192.297,639.112L1193.282,639.379L1193.885,642.986L1194.013,641.881L1195.003,639.214L1195.106,639.169L1195.973,642.496L1196.429,642.662L1197.013,640.721L1197.12,639.499L1197.458,643.019L1198.013,642.074L1199.013,631.524L1199.061,631.298L1200.013,640.81L1200.193,641.69L1201.013,628.177L1201.178,624.886L1201.737,639.71L1202.56,630.172L1203.013,638.988L1203.413,640.125L1204.013,630.995L1204.442,625.785L1205.013,637.885L1205.119,637.773L1205.692,640.187L1206.119,638.41L1206.501,640.999L1207.016,640.274L1207.383,636.503L1208.295,639.833L1208.765,637.034L1209.162,640.726L1209.559,637.25L1210.736,636.545L1210.927,638.709L1211.191,635.908L1211.721,639.834L1212.013,638.698L1212.529,636.198L1213.412,635.272L1213.985,637.704L1214.013,637.656L1214.897,634.911L1215.073,636.168L1215.794,634.212L1216.117,635.673L1216.985,632.065L1217.013,632.228L1217.323,634.568L1218.102,634.342L1218.499,632.149L1219.013,633.164L1219.234,630.687L1220.146,632.133L1220.543,629.858L1221.205,631.072L1221.807,628.013L1222.057,630.186L1222.822,626.559L1223.116,628.349L1223.395,625.609L1224.454,627.976L1225.013,623.842L1225.16,625.116L1225.777,621.574L1226.41,622.823L1226.674,620.247L1227.013,621.518L1227.895,618.275L1228.013,618.996L1228.483,616.232L1229.145,617.144L1229.806,613.663L1230.013,615.396L1231.013,610.754L1232.013,606.809L1232.247,607.113L1233.013,603.737L1233.159,603.877L1233.747,599.562L1234.217,600.144L1235.013,596.122L1235.408,597.035L1235.982,591.868L1236.055,592.291L1237.011,588.509L1237.129,589.095L1237.731,584.954L1238.013,585.244L1238.937,580.48L1239.628,581.214L1239.805,578.079L1240.202,580.698L1240.863,578.726L1241.172,577.299L1242.013,579.899L1242.51,580.501L1243.01,578.484L1243.013,578.487L1243.642,583.466L1244.025,581.85L1244.966,586.824L1245.083,586.059L1245.892,589.222L1246.112,587.738L1246.98,593.903L1247.098,593.096L1248.009,598.158L1248.289,597.202L1249.013,601.402L1249.141,600.4L1249.818,604.21L1250.013,603.701L1251.013,608.729L1251.126,608.682L1251.891,612.479L1252.013,612.027L1252.656,615.723L1253.013,614.416L1254.013,617.348L1255.013,620.17L1255.567,619.934L1255.979,622.167L1256.067,621.259L1257.013,625.097L1257.052,625.694L1257.287,623.238L1258.013,625.073L1259.013,627.326L1259.11,627.159L1259.699,629.659L1260.272,625.868L1260.787,629.919L1261.125,628.888L1261.919,631.583L1262.492,630.45L1262.669,632.301L1263.11,630.691L1263.727,633.733L1264.013,632.455L1264.565,634.721L1265.109,634.599L1265.683,632.281L1266.013,632.808L1266.992,635.55L1267.271,636.733L1267.844,631.601L1268.212,634.556L1268.712,630.483L1269.168,632.968L1269.668,637.241L1270.079,635.052L1270.462,637.212L1271.226,638.283L1271.829,633.417L1272.013,634.399L1272.946,604.297L1273.013,606.789L1274.013,635.693L1275.013,639.402L1275.064,639.596L1276.013,637.069L1276.358,636.142L1276.711,637.999L1277.181,636.952L1277.843,639.595L1278.269,638.794L1278.916,640.588L1279.343,640.175L1280.013,636.221L1280.048,636.018L1280.828,639.777L1281.063,639.377L1281.842,636.446L1282.013,638.348L1282.93,639.911L1283.063,638.895L1283.93,640.779L1284.048,640.807L1284.621,638.342L1285.224,638.485L1285.592,641.915L1286.562,638.433L1286.724,641.181L1287.121,639.358L1287.856,641.813L1288.013,640.13L1288.179,642.132L1289.013,640.695L1289.679,636.216L1290.013,637.907L1290.826,640.811L1291.223,637.351L1291.87,640.394L1292.37,641.212L1292.899,637.225L1293.252,640.977L1294.013,637.963L1294.531,635.522L1295.013,639.46L1295.281,638.224L1295.634,641.157L1296.208,638.397L1296.531,639.982L1297.178,640.924L1297.428,637.95L1298.795,640.04L1298.987,637.615L1299.192,639.687L1299.589,637.504L1300.163,639.92L1300.839,638.034L1301.133,638.676L1301.736,637.007L1302.013,637.915L1303.013,640.023L1303.559,639.697L1304.013,641.729L1304.015,641.741L1304.809,638.622L1305.294,638.387L1305.824,641.116L1306.294,641.529L1307.013,639.779L1307.088,638.878L1307.382,641.933L1308.147,639.389L1308.867,642.276L1309.235,642.01L1309.955,640.078L1310.852,641.648L1311.013,639.375L1311.043,639.287L1311.999,642.942L1312.013,642.88L1312.97,640.437L1313.102,639.943L1313.558,642.62L1314.028,642.061L1315.013,639.14L1315.322,640.299L1315.705,638.484L1316.513,638.378L1316.94,641.431L1317.337,641.107L1317.631,638.782L1318.778,638.585L1318.91,640.811L1319.689,638.688L1319.983,640.481L1320.13,638.878L1320.454,641.453L1321.527,639.581L1322.012,641.77L1322.013,641.769L1322.468,639.839L1323.6,641.568L1323.894,638.602L1324.013,639.776L1325.013,636.697L1325.556,635.859L1325.865,638.725L1326.203,638.667L1326.776,635.893L1327.526,638.524L1328.013,636.279L1328.394,635.413L1328.702,638.335L1329.013,637.08L1329.452,634.797L1330.013,635.76L1330.423,638.262" style="fill:none;fill-rule:nonzero;stroke:black;stroke-width:0.8px;"/>
    </g>
    <g transform="matrix(1,0,0,1,10.60454,9.330709)">
        <path d="M0,646.104L1330,646.104" style="fill:none;fill-rule:nonzero;stroke:rgb(200,200,200);stroke-width:1.1px;"/>
    </g>
    <g transform="matrix(1,0,0,1,10.60454,9.330709)">
        <path d="M1331,0L1331,689" style="fill:none;fill-rule:nonzero;stroke:black;stroke-width:2px;"/>
    </g>
    <g transform="matrix(1,0,0,1,1352.60454,659.40942)">
        <text x="0px" y="0px" style="font-family:'SegoeUI', 'Segoe UI', sans-serif;font-size:16px;">0.000</text>
    </g>
    <g transform="matrix(1,0,0,1,10.60454,9.330709)">
        <path d="M1331,646L1336,646" style="fill:none;fill-rule:nonzero;stroke:black;stroke-width:2px;"/>
    </g>
    <g transform="matrix(1,0,0,1,1352.60454,444.40942)">
        <text x="0px" y="0px" style="font-family:'SegoeUI', 'Segoe UI', sans-serif;font-size:16px;">0.001</text>
    </g>
    <g transform="matrix(1,0,0,1,10.60454,9.330709)">
        <path d="M1331,431L1336,431" style="fill:none;fill-rule:nonzero;stroke:black;stroke-width:2px;"/>
    </g>
    <g transform="matrix(1,0,0,1,1352.60454,230.40942)">
        <text x="0px" y="0px" style="font-family:'SegoeUI', 'Segoe UI', sans-serif;font-size:16px;">0.002</text>
    </g>
    <g transform="matrix(1,0,0,1,10.60454,9.330709)">
        <path d="M1331,217L1336,217" style="fill:none;fill-rule:nonzero;stroke:black;stroke-width:2px;"/>
    </g>
    <g transform="matrix(1,0,0,1,1352.60454,17.40942)">
        <text x="0px" y="0px" style="font-family:'SegoeUI', 'Segoe UI', sans-serif;font-size:16px;">0.003</text>
    </g>
    <g transform="matrix(1,0,0,1,17.5,8.083333)">
        <clipPath id="_clip1">
            <rect x="1330" y="2" width="7" height="2"/>
        </clipPath>
        <g clip-path="url(#_clip1)">
            <g transform="matrix(1,-0,-0,1,-17.5,-8.083333)">
            </g>
        </g>
    </g>
    <g transform="matrix(1,0,0,1,10.60454,9.330709)">
        <path d="M0,690L1330,690" style="fill:none;fill-rule:nonzero;stroke:black;stroke-width:2px;"/>
    </g>
    <g transform="matrix(1,0,0,1,1330.60454,718.40942)">
        <text x="0px" y="0px" style="font-family:'SegoeUI', 'Segoe UI', sans-serif;font-size:16px;">5.5</text>
    </g>
    <g transform="matrix(1,0,0,1,17.5,8.083333)">
        <clipPath id="_clip2">
            <rect x="1327" y="689" width="2" height="7"/>
        </clipPath>
        <g clip-path="url(#_clip2)">
            <g transform="matrix(1,-0,-0,1,-17.5,-8.083333)">
            </g>
        </g>
    </g>
    <g transform="matrix(1,0,0,1,1169.60454,718.40942)">
        <text x="0px" y="0px" style="font-family:'SegoeUI', 'Segoe UI', sans-serif;font-size:16px;">6.0</text>
    </g>
    <g transform="matrix(1,0,0,1,10.60454,9.330709)">
        <path d="M1167,690L1167,695" style="fill:none;fill-rule:nonzero;stroke:black;stroke-width:2px;"/>
    </g>
    <g transform="matrix(1,0,0,1,1009.60454,718.40942)">
        <text x="0px" y="0px" style="font-family:'SegoeUI', 'Segoe UI', sans-serif;font-size:16px;">6.5</text>
    </g>
    <g transform="matrix(1,0,0,1,10.60454,9.330709)">
        <path d="M1007,690L1007,695" style="fill:none;fill-rule:nonzero;stroke:black;stroke-width:2px;"/>
    </g>
    <g transform="matrix(1,0,0,1,849.60454,718.40942)">
        <text x="0px" y="0px" style="font-family:'SegoeUI', 'Segoe UI', sans-serif;font-size:16px;">7.0</text>
    </g>
    <g transform="matrix(1,0,0,1,10.60454,9.330709)">
        <path d="M847,690L847,695" style="fill:none;fill-rule:nonzero;stroke:black;stroke-width:2px;"/>
    </g>
    <g transform="matrix(1,0,0,1,688.60454,718.40942)">
        <text x="0px" y="0px" style="font-family:'SegoeUI', 'Segoe UI', sans-serif;font-size:16px;">7.5</text>
    </g>
    <g transform="matrix(1,0,0,1,10.60454,9.330709)">
        <path d="M686,690L686,695" style="fill:none;fill-rule:nonzero;stroke:black;stroke-width:2px;"/>
    </g>
    <g transform="matrix(1,0,0,1,528.60454,718.40942)">
        <text x="0px" y="0px" style="font-family:'SegoeUI', 'Segoe UI', sans-serif;font-size:16px;">8.0</text>
    </g>
    <g transform="matrix(1,0,0,1,10.60454,9.330709)">
        <path d="M526,690L526,695" style="fill:none;fill-rule:nonzero;stroke:black;stroke-width:2px;"/>
    </g>
    <g transform="matrix(1,0,0,1,367.60454,718.40942)">
        <text x="0px" y="0px" style="font-family:'SegoeUI', 'Segoe UI', sans-serif;font-size:16px;">8.5</text>
    </g>
    <g transform="matrix(1,0,0,1,10.60454,9.330709)">
        <path d="M365,690L365,695" style="fill:none;fill-rule:nonzero;stroke:black;stroke-width:2px;"/>
    </g>
    <g transform="matrix(1,0,0,1,207.60454,718.40942)">
        <text x="0px" y="0px" style="font-family:'SegoeUI', 'Segoe UI', sans-serif;font-size:16px;">9.0</text>
    </g>
    <g transform="matrix(1,0,0,1,10.60454,9.330709)">
        <path d="M205,690L205,695" style="fill:none;fill-rule:nonzero;stroke:black;stroke-width:2px;"/>
    </g>
    <g transform="matrix(1,0,0,1,47.60454,718.40942)">
        <text x="0px" y="0px" style="font-family:'SegoeUI', 'Segoe UI', sans-serif;font-size:16px;">9.5</text>
    </g>
    <g transform="matrix(1,0,0,1,10.60454,9.330709)">
        <path d="M45,690L45,695" style="fill:none;fill-rule:nonzero;stroke:black;stroke-width:2px;"/>
    </g>
    <g id="path14" transform="matrix(0.143089,0,0,-0.143089,1279.778796,806.362377)">
        <path d="M139.488,545.658C139.488,539.33 134.355,534.196 128.014,534.196C121.675,534.196 116.541,539.33 116.541,545.658C116.541,552.012 121.675,557.138 128.014,557.138C134.355,557.138 139.488,552.012 139.488,545.658Z" style="fill:rgb(240,175,0);fill-rule:nonzero;"/>
    </g>
    <g id="path32" transform="matrix(0.143089,0,0,-0.143089,1279.778796,806.362377)">
        <path d="M139.488,545.658C139.488,539.33 134.355,534.196 128.014,534.196C121.675,534.196 116.541,539.33 116.541,545.658C116.541,552.012 121.675,557.138 128.014,557.138C134.355,557.138 139.488,552.012 139.488,545.658Z" style="fill:rgb(240,175,0);fill-rule:nonzero;"/>
    </g>
    <g transform="matrix(1,0,0,1,-192.134802,392.078279)">
        <text x="790.608px" y="343.158px" style="font-family:'SegoeUI', 'Segoe UI', sans-serif;font-size:11.66px;">1</text>
        <g transform="matrix(20,0,0,20,1001.014521,349.818175)">
        </g>
        <text x="796.893px" y="349.818px" style="font-family:'SegoeUI', 'Segoe UI', sans-serif;font-size:20px;">H Chemical Shif<tspan x="935.946px 942.724px " y="349.818px 349.818px ">t </tspan>(ppm)</text>
    </g>
    <g transform="matrix(0,1,-1,0,1743.460061,-468.731728)">
        <g transform="matrix(20,0,0,20,865.432177,349.818175)">
        </g>
        <text x="790.608px" y="349.818px" style="font-family:'SegoeUI', 'Segoe UI', sans-serif;font-size:20px;">Int<tspan x="813.87px 824.329px " y="349.818px 349.818px ">en</tspan>sity</text>
    </g>
    <g transform="matrix(1,0,0,1,37.250376,-3.135907)">
        <g transform="matrix(30,0,0,30,1247.463542,554.299242)">
        </g>
        <text x="1215.12px" y="554.299px" style="font-family:'SegoeUI', 'Segoe UI', sans-serif;font-size:30px;">44</text>
    </g>
    <g transform="matrix(0.423434,-0.081549,0.510652,0.875941,356.576583,116.550226)">
        <path d="M1390.765,629.827L1332.378,659.497" style="fill:none;stroke:black;stroke-width:2.88px;stroke-linecap:round;stroke-linejoin:round;stroke-miterlimit:1.5;"/>
    </g>
    <g transform="matrix(1,0,0,1,-202.424357,37.376647)">
        <g transform="matrix(30,0,0,30,1247.463542,554.299242)">
        </g>
        <text x="1215.12px" y="554.299px" style="font-family:'SegoeUI', 'Segoe UI', sans-serif;font-size:30px;">45</text>
    </g>
    <g transform="matrix(0.423434,-0.081549,0.510652,0.875941,116.90185,157.06278)">
        <path d="M1390.765,629.827L1332.378,659.497" style="fill:none;stroke:black;stroke-width:2.88px;stroke-linecap:round;stroke-linejoin:round;stroke-miterlimit:1.5;"/>
    </g>
    <g transform="matrix(1,0,0,1,-321.21511,48.055358)">
        <g transform="matrix(30,0,0,30,1247.463542,554.299242)">
        </g>
        <text x="1215.12px" y="554.299px" style="font-family:'SegoeUI', 'Segoe UI', sans-serif;font-size:30px;">46</text>
    </g>
    <g transform="matrix(0.423434,-0.081549,0.510652,0.875941,-1.888903,167.741491)">
        <path d="M1390.765,629.827L1332.378,659.497" style="fill:none;stroke:black;stroke-width:2.88px;stroke-linecap:round;stroke-linejoin:round;stroke-miterlimit:1.5;"/>
    </g>
    <g transform="matrix(1,0,0,1,-379.215129,36.224473)">
        <g transform="matrix(30,0,0,30,1247.463542,554.299242)">
        </g>
        <text x="1215.12px" y="554.299px" style="font-family:'SegoeUI', 'Segoe UI', sans-serif;font-size:30px;">47</text>
    </g>
    <g transform="matrix(0.423434,-0.081549,0.510652,0.875941,-59.888922,155.910606)">
        <path d="M1390.765,629.827L1332.378,659.497" style="fill:none;stroke:black;stroke-width:2.88px;stroke-linecap:round;stroke-linejoin:round;stroke-miterlimit:1.5;"/>
    </g>
    <g transform="matrix(1,0,0,1,-444.715627,58.565612)">
        <g transform="matrix(30,0,0,30,1247.463542,554.299242)">
        </g>
        <text x="1215.12px" y="554.299px" style="font-family:'SegoeUI', 'Segoe UI', sans-serif;font-size:30px;">48</text>
    </g>
    <g transform="matrix(0.423434,-0.081549,0.510652,0.875941,-125.38942,178.251745)">
        <path d="M1390.765,629.827L1332.378,659.497" style="fill:none;stroke:black;stroke-width:2.88px;stroke-linecap:round;stroke-linejoin:round;stroke-miterlimit:1.5;"/>
    </g>
    <g transform="matrix(1,0,0,1,-490.243361,52.396694)">
        <g transform="matrix(30,0,0,30,1247.463542,554.299242)">
        </g>
        <text x="1215.12px" y="554.299px" style="font-family:'SegoeUI', 'Segoe UI', sans-serif;font-size:30px;">49</text>
    </g>
    <g transform="matrix(0.423434,-0.081549,0.510652,0.875941,-170.917154,172.082827)">
        <path d="M1390.765,629.827L1332.378,659.497" style="fill:none;stroke:black;stroke-width:2.88px;stroke-linecap:round;stroke-linejoin:round;stroke-miterlimit:1.5;"/>
    </g>
    <g transform="matrix(1,0,0,1,-636.246091,49.531749)">
        <g transform="matrix(30,0,0,30,1247.463542,554.299242)">
        </g>
        <text x="1215.12px" y="554.299px" style="font-family:'SegoeUI', 'Segoe UI', sans-serif;font-size:30px;">50</text>
    </g>
    <g transform="matrix(0.423434,-0.081549,0.510652,0.875941,-316.919884,169.217882)">
        <path d="M1390.765,629.827L1332.378,659.497" style="fill:none;stroke:black;stroke-width:2.88px;stroke-linecap:round;stroke-linejoin:round;stroke-miterlimit:1.5;"/>
    </g>
    <g transform="matrix(1,0,0,1,-785.520202,-181.092594)">
        <g transform="matrix(30,0,0,30,1247.463542,554.299242)">
        </g>
        <text x="1215.12px" y="554.299px" style="font-family:'SegoeUI', 'Segoe UI', sans-serif;font-size:30px;">51</text>
    </g>
    <g transform="matrix(0.423434,-0.081549,0.510652,0.875941,-480.715062,-65.069319)">
        <path d="M1390.765,629.827L1291.451,654.491" style="fill:none;stroke:black;stroke-width:2.88px;stroke-linecap:round;stroke-linejoin:round;stroke-miterlimit:1.5;"/>
    </g>
</svg>
