<?xml version="1.0" encoding="UTF-8" standalone="no"?>
<!DOCTYPE svg PUBLIC "-//W3C//DTD SVG 1.1//EN" "http://www.w3.org/Graphics/SVG/1.1/DTD/svg11.dtd">
<svg width="100%" height="100%" viewBox="0 0 1420 750" version="1.1" xmlns="http://www.w3.org/2000/svg" xmlns:xlink="http://www.w3.org/1999/xlink" xml:space="preserve" xmlns:serif="http://www.serif.com/" style="fill-rule:evenodd;clip-rule:evenodd;stroke-linecap:square;stroke-miterlimit:10;">
    <g id="spectra" transform="matrix(1,0,0,1,22.5,8.083333)">
        <g transform="matrix(1,0,0,1,-12.5,1.247375)">
            <path d="M-5.999,657.443L7.001,657.176L7.409,657.131L16.001,657.123L17.001,656.622L17.684,655.528L18.001,655.849L19.001,656.385L20.001,656.587L21.001,656.728L24.001,656.612L25.001,656.308L26.001,654.715L26.246,654.385L27.001,655.719L30.001,655.522L31.001,655.199L32.001,654.571L33.001,653.615L34.001,652.305L35.001,649.85L36.001,645.131L37.001,634.391L38.001,595.832L39.001,294.78L39.508,4.589L40.001,239.007L41.001,539.995L42.001,597.684L43.001,617.927L44.001,628.694L44.407,629.482L45.001,627.658L46.001,611.813L47.001,531.955L48.001,-8.902L48.151,-10L49.001,409.659L50.001,579.319L51.001,615.543L52.001,635.705L53.001,646.634L54.001,651.344L55.001,653.685L56.001,654.74L57.001,655.305L58.001,655.047L59.001,654.672L60.001,653.53L61.001,649.744L62.001,644.547L63.001,632.831L63.245,630.791L64.001,643.839L65.001,652.18L66.001,654.151L67.001,654.724L68.001,654.585L69.001,652.513L70.001,647.282L71.001,639.189L71.847,629.062L72.001,630.398L73.001,648.999L74.001,653.704L74.954,654.583L75.001,654.58L76.001,653.764L76.148,653.727L77.001,654.404L78.001,654.125L79.001,652.676L79.135,652.626L80.001,654.225L81.001,655.188L82.001,655.972L84.001,656.118L85.001,654.718L85.388,654.372L86.001,654.698L87.001,654.957L88.001,653.278L88.295,652.977L89.001,654.286L90.001,655.598L91.001,656.16L92.001,656.769L98.001,656.982L99.001,657.169L105.001,657.045L106.001,656.685L106.058,656.684L107.001,657.036L108.001,657.303L109.001,657.418L127.001,657.461L128.001,657.087L129.001,655.238L129.476,654.257L130.001,655.325L131.001,656.89L132.001,657.269L136.001,657.264L137.001,656.622L138.001,654.344L138.118,654.276L139.001,655.893L140.001,656.767L141.001,656.643L141.981,654.749L142.001,654.754L142.658,655.459L143.001,655.27L144.001,654.836L144.928,654.034L145.001,654.057L146.001,655.906L147.001,656.733L149.001,656.588L150.001,655.966L150.583,654.535L151.221,655.132L152.001,654.606L152.455,654.652L153.001,654.185L153.451,653.677L154.001,654.616L155.001,656.388L156.001,656.921L161.001,656.895L162.001,656.593L162.929,656.233L164.001,656.093L165.001,654.948L166.001,653.185L167.001,642.191L167.47,637.661L168.001,639.552L168.943,629.268L169.001,629.51L170.001,647.051L171.001,652.754L172.001,654.397L173.001,654.376L174.001,653.525L175.001,648.289L175.873,636.559L176.43,638.726L177.001,632.436L177.346,628.446L178.001,639.956L179.001,651.8L180.001,654.179L181.001,655.552L181.648,655.861L182.126,655.775L183.001,656.262L184.001,656.513L184.674,656.629L197.001,656.503L198.001,656.207L204.001,656.134L205.001,655.898L206.001,654.955L207.001,652.905L207.256,652.669L208.001,653.818L208.092,653.859L208.968,652.57L209.001,652.571L210.001,653.793L211.001,654.498L212.001,654.503L213.001,653.921L214.001,652.785L215.001,651.736L215.779,650.567L216.001,650.718L216.575,651.435L217.001,650.798L217.491,649.766L218.001,650.545L218.726,651.071L219.001,651.015L220.001,650.345L221.001,649.186L222.001,646.897L223.001,643.889L224.001,642.211L225.001,637.759L226.001,627.969L227.001,603.617L228.001,518.003L229.001,78.97L229.24,19.622L229.837,121.446L230.001,102.743L230.793,-10L231.001,-10L232.001,397.28L233.001,545.623L234.001,587.706L234.696,594.981L235.001,593.65L236.001,562.556L237.001,351.9L237.763,-7.383L238.36,97.027L239.001,-10L239.316,-10L240.001,143.436L241.001,502.71L242.001,586.603L243.001,619.837L244.001,634.306L245.001,639.834L245.648,639.365L246.001,640.145L247.001,643.591L247.281,643.559L248.001,645.318L249.001,648.512L250.228,648.788L251.001,647.475L251.184,647.292L252.001,648.574L253.001,650.053L253.215,650.23L253.972,649.437L254.569,649.946L255.001,649.141L255.565,647.522L256.001,648.704L257.001,650.967L257.556,651.635L258.001,651.328L259.001,651.015L259.786,649.586L260.001,649.804L261.001,651.3L261.698,652.178L262.001,651.888L262.614,650.83L263.132,651.112L264.001,648.707L264.128,648.569L265.001,651.911L266.001,653.871L267.001,654.041L268.001,655.589L269.001,656.412L270.001,656.757L271.001,656.785L272.001,656.432L272.929,656.087L273.001,656.093L274.001,656.561L275.001,656.908L276.001,657.074L277.001,657.394L284.28,657.68L285.001,657.731L316.001,657.567L317.001,657.391L318.001,656.973L319.001,655.394L319.565,654.666L320.001,654.735L321.001,653.193L321.039,653.182L322.001,655.234L323.001,656.603L324.001,657.01L325.001,656.973L326.001,656.355L327.001,654.9L328.001,653.205L329.001,653.17L329.442,652.737L330.001,653.714L331.001,655.925L332.001,656.567L334.001,656.356L335.001,656.038L336.001,656.043L337.001,656.598L341.001,656.601L342.001,656.222L351.001,656.498L351.785,656.585L354.001,656.763L355.001,657.101L360.001,657.321L361.001,657.496L362.001,657.488L363.001,657.128L364.001,656.605L365.001,656.12L366.001,656.07L367.001,656.453L368.001,656.75L368.352,656.797L370.001,656.52L371.001,655.172L372.001,652.933L372.773,652.091L373.001,652.179L374.001,653.78L375.001,655.518L376.001,656.199L377.001,656.257L378.001,655.379L379.001,653.272L379.942,652.057L380.001,652.061L381.001,653.361L382.001,655.381L383.001,656.387L384.001,656.791L385.001,656.81L386.001,656.429L387.001,656.091L388.001,656.283L389.001,656.849L390.001,657.232L394.001,657.307L395.001,656.833L396.001,655.669L396.788,655.22L397.001,655.24L398.001,655.838L399.001,656.557L401.001,656.636L402.001,655.555L403.001,651.782L404.001,649.36L404.076,649.355L405.001,650.977L406.001,654.557L407.001,655.85L407.82,656.151L408.001,656.14L409.001,655.515L410.001,652.742L411.001,649.437L411.444,649.136L412.001,649.846L413.001,653.787L414.001,655.578L415.001,656.214L416.001,656.181L417.001,655.548L418.001,654.416L420.001,654.216L421.001,653.398L422.001,653.493L423.001,654.86L424.001,655.724L425.001,656.079L425.025,656.079L426.001,655.661L427.001,653.359L428.001,647.422L428.848,645.278L429.001,645.362L430.001,649.975L431.001,654.38L432.001,655.627L433.001,655.687L434.001,654.271L435.001,648.941L436.001,645.291L436.176,645.157L437.001,648.281L438.001,653.891L439.001,655.741L440.001,656.305L441.001,656.239L442.001,655.176L443.001,653.981L444.001,654.212L445.001,655.881L446.001,656.769L447.001,657.055L447.686,657.109L464.001,657.368L465.001,657.433L471.001,657.162L472.001,657.034L474.001,656.802L475.001,656.233L476.001,656.458L476.56,656.575L477.001,656.524L478.001,655.71L478.233,655.598L479.001,656.234L479.308,656.324L480.001,655.882L481.001,654.438L481.299,654.183L482.001,655.146L483.001,655.019L484.001,654.098L484.445,653.758L485.001,653.793L486.001,652.036L487.001,650.855L488.001,649.593L488.906,648.117L489.001,648.135L490.001,649.765L490.698,650.583L491.001,650.41L491.893,648.575L492.001,648.612L493.001,650.98L494.001,654.085L495.001,654.452L496.001,655.732L497.001,655.883L497.986,655.198L499.001,655.353L500.001,654.582L501.001,651.441L502.001,647.67L502.527,647.173L503.001,647.707L504,649.397L504.001,649.397L505.001,647.895L505.792,647.353L506.001,647.413L507.001,650.441L508.001,653.031L509.001,654.818L510.001,655.606L513.001,655.371L514.001,655.089L515.001,655.069L516.001,655.592L523.001,655.45L523.873,655.094L525.001,655.215L525.944,655.658L526.001,655.655L526.9,655.224L527.001,655.241L528.001,655.772L529.001,656.541L531.082,656.453L532.001,655.968L533.001,656.14L534.001,656.317L535.001,656.478L535.781,656.621L536.001,656.607L537.001,656.303L537.773,655.897L539.001,656.013L540.001,656.224L541.001,656.247L542.001,656.649L543.001,656.862L544.001,656.989L553.001,656.734L554.001,656.527L565.001,656.313L566.001,656.089L567.001,656.094L568.001,655.383L569.001,652.643L569.036,652.63L570.001,654.753L570.549,655.256L571.001,654.914L572.001,650.391L572.262,649.801L573.001,652.764L573.935,654.762L574.001,654.759L575.001,653.133L575.528,652.189L576.001,653.004L577.001,654.893L578.001,654.74L578.555,654.27L579.001,654.547L580.001,655.787L581.001,656.384L586.001,656.099L587.001,655.792L588.001,655.427L589.001,654.811L592.001,654.972L593.001,655.38L594.001,655.646L594.565,655.744L597.034,655.669L598.001,655.431L599.065,655.394L600.001,654.803L601.001,652.933L601.972,651.781L602.001,651.781L603.001,652.693L603.964,653.555L604.001,653.554L605.001,652.464L605.636,651.962L606.001,652.11L607.001,653.467L608.001,654.84L609.001,655.293L615.001,655.142L615.792,654.952L617.001,655.209L618.001,655.269L619.001,655.181L620.001,654.735L621.001,654.274L622.001,653.878L623.001,652.552L624.001,650.635L624.633,650.045L625.001,650.267L626.001,651.208L627.001,652.046L628.001,652.424L629.001,652.431L630.001,651.853L631.001,650.588L631.444,650.62L632.001,650.21L633.001,647.488L634.001,646.184L635.001,645.381L635.984,644.631L636.001,644.632L637.001,645.666L638.001,646.999L639.001,647.728L640.001,647.755L641.001,647.153L642.001,646.027L643.001,644.915L644.001,641.3L645.001,639.417L646.001,639.104L647.001,637.86L648.001,635.281L649.001,631.183L650.001,619.667L651.001,582.463L652.001,408.366L652.591,290.041L653.001,348.911L653.746,444.317L654.001,432.287L654.981,236.951L655.001,237.806L656.001,484.339L657.001,570.809L657.609,580.98L658.001,576.191L659.001,513.815L659.441,501.643L660.001,521.846L660.517,537.43L661.001,522.291L661.911,474.267L662.001,474.652L662.946,509.727L663.001,509.168L664.001,427.527L665.001,344.441L665.933,65.586L666.001,67.752L667.001,252.936L667.247,263.118L668.001,147.309L668.203,126.15L669.001,323.921L670.001,425.893L671.001,489.884L671.548,511.906L672.001,494.885L672.783,452.008L673.001,455.517L673.898,501.56L674.001,500.541L675.001,429.633L675.173,427.366L676.001,475.22L676.248,481.37L677.001,424.584L678.001,203.728L679.001,-10L680.001,-10L681.001,24.966L681.505,141.679L682.001,21.42L683.001,-10L684.001,-10L685.001,285.145L686.001,510.942L687.001,577.075L688.001,608.863L689.001,621.985L690.001,628.288L691.001,634.42L692.001,639.388L692.975,642.178L693.001,642.178L694.001,640.138L694.847,639.207L695.001,639.272L696.001,641.943L697.001,643.752L698.001,643.638L699.001,641.087L700.001,638.3L701.001,635.751L702.001,634.167L703.001,632.499L703.011,632.498L703.927,633.054L704.001,633.048L705.001,631.311L706.001,626.374L707.001,603.937L708.001,585.305L708.308,583.284L709.001,588.287L709.025,588.317L710.001,545.946L710.857,455.175L711.001,459.445L712.001,523.441L712.171,524.722L713.001,477.172L713.326,459.361L714.001,524.048L715.001,595.926L716.001,613.154L716.632,614.642L717.001,614.319L717.747,612.8L718.001,613.218L718.981,617.33L719.001,617.328L720.001,608.763L720.455,605.963L721.001,606.688L722.001,589.418L723.001,499.149L724.001,250.936L724.079,247.495L725.001,404.485L725.433,435.47L726.001,386.309L726.588,311.199L727.001,357.835L728.001,533.846L729.001,586.604L730.001,612.249L731.001,624.031L732.001,629.828L732.602,630.93L733.001,630.155L734.001,620.43L735.001,616.846L735.589,611.235L736.001,614.619L736.624,618.397L737.001,616.648L738.001,593.535L739.001,518.378L740.001,313.766L740.129,307.146L741.001,456.337L742.001,562.598L742.797,579.026L743.001,577.769L744.001,518.598L745.001,337.667L745.028,336.96L746.001,498.095L747.001,589.728L748.001,613.996L749.001,622.638L750.001,627.542L750.364,627.983L751.001,626.368L752.001,611.215L753.001,523.176L753.471,483.438L754.001,524.801L755.001,581.569L755.104,581.958L756.001,531.198L757.001,329.278L757.055,328.258L758.001,421.599L759.001,522.653L760.001,589.358L761.001,609.707L762.001,617.545L762.671,619.546L763.001,618.901L764.001,609.844L765.001,580.286L766.001,422.433L767.001,209.191L767.33,205.227L768.001,295.786L769.001,535.703L770.001,588.728L771.001,603.381L772.001,613.876L772.906,616.122L773.001,616.082L774.001,614.194L775.001,601.517L776.001,558.721L777.001,326.578L777.366,270.356L778.001,403.994L779.001,541.497L779.437,550.824L780.001,534.547L781.001,389.297L781.787,168.861L782.001,191.003L783.001,444.181L783.898,498.995L784.001,498.267L785.001,403.53L785.371,364.183L786.001,406.001L786.048,406.464L787.001,199.969L787.363,114.488L788.001,266.423L788.398,320.719L789.001,280.746L790.001,474.381L791.001,530.309L791.704,540.308L792.001,537.796L793.001,502.363L794.001,297.785L795.001,106.07L795.009,105.779L796.001,350.72L796.523,396.476L797.001,359.408L798.001,-10L798.076,-10L799.001,282.527L799.47,339.48L800.001,267.185L800.784,79.093L801.103,92.953L801.859,-10L802.001,-7.24L803.001,366.484L804.001,481.829L804.926,508.722L805.001,508.656L806.001,453.91L807.001,146.43L807.116,134.422L808.001,389.364L808.869,475.001L809.001,473.371L810.001,314.134L810.82,-10L811.001,-10L812.001,402.455L813.001,537.122L814.001,563.435L815.001,593.791L816.001,605.068L816.715,607.492L817.001,606.172L818.001,585.686L818.427,582.765L819.001,587.166L819.343,589.637L820.001,580.848L821.001,511.322L822.001,257.973L823.001,185.909L823.565,36.485L824.001,149.945L825.001,373.668L825.078,374.854L826.001,193.182L826.472,66.815L827.001,111.138L827.866,-10L828.001,-10L829.001,381.936L830.001,528.176L831.001,572.412L832.001,588.69L832.844,593.7L833.001,593.391L834.001,566.94L835.001,434.057L835.552,451.909L836.001,399.855L836.428,325.623L837.001,421.442L838.001,510.914L838.022,510.934L839.001,392.226L839.296,358.868L840.001,385.118L840.73,264.487L841.001,307.5L842.001,514.39L843.001,590.139L844.001,609.003L845.001,610.198L846.001,612.859L846.743,612.62L847.001,613.272L847.739,616.164L848.001,615.767L849.001,607.143L850.001,595.176L850.129,594.946L851.001,605.178L851.562,609.475L852.001,606.68L853.001,593.173L854.001,551.608L855.001,388.664L856.001,337.649L857.001,296.04L857.735,176.659L858.054,181.468L858.612,160.082L859.001,179.662L860.001,297.793L861.001,339.091L861.041,339.194L861.957,215.558L862.395,232.038L862.873,213.445L863.001,218.836L864.001,311.238L864.745,346.206L865.661,360.191L866.001,338.155L866.696,267.625L867.533,246.348L868.001,285.283L869.001,382.36L870.001,413.19L870.002,413.197L870.878,367.38L871.001,368.743L872.001,399.56L873.001,526.827L874.001,573.764L875.001,600.376L876.001,614.676L877.001,621.595L878.001,627.622L879.001,631.109L879.082,631.134L880.001,628.917L880.277,628.38L881.001,630.339L881.83,631.627L882.001,631.494L883.001,626.604L884.001,617.277L884.06,617.221L885.001,623.412L885.574,627.045L886.001,625.39L886.689,622.701L887.001,623.157L888.001,628.034L889.001,631.802L889.676,633.721L890.001,632.811L890.95,629.629L891.001,629.631L892.001,630.873L892.066,630.901L893.001,630.186L894.001,625.102L895.001,623.122L895.252,623.161L896.001,621.258L896.168,621.059L897.001,622.591L898.001,623.325L898.119,623.411L899.001,617.379L900.001,600.428L901.001,544.711L901.982,314.501L902.001,314.937L903.001,477.353L903.177,482.01L904.001,385.341L904.969,-10L905.001,-10L906.001,87.11L907.001,319.251L907.478,370.588L908.001,282.287L908.554,126.924L909.001,267.438L910.001,500.191L910.744,526.506L911.001,523.947L912.001,416.222L912.775,175.889L913.001,207.163L913.89,362.055L914.001,358.672L915.001,-10L917.001,-10L918.001,248.827L918.271,269.365L919.001,52.312L919.346,-10L920.001,247.487L921.001,487.671L921.975,521.775L922.001,521.757L923.001,499.098L924.001,371.129L925.001,-10L927.001,-10L928.001,132.554L929.001,442.997L930.001,532.182L931.001,562.181L931.254,563.579L932.001,542.62L932.21,535.816L932.927,554.04L933.001,553.915L934.001,500.435L935.001,100.224L935.675,-10L936.001,-10L937.001,154.853L938.001,436.493L939.001,549.542L940.001,587.228L941.001,604.528L942.001,610.886L942.525,612.653L943.001,610.223L944.001,566.333L945.001,331.438L945.154,317.015L946.001,511.814L947.001,603.435L948.001,620.732L949.001,629.742L950.001,632.831L951.001,633.322L952.001,637.494L952.482,638.334L953.001,637.174L954.001,632.303L954.951,626.463L955.001,626.473L956.001,631.474L956.106,631.588L957.001,629.423L958.001,626.983L959.001,616.505L960.001,581.847L961.001,441.727L961.323,419.24L962.001,451.962L962.319,456.918L963.001,428.684L963.633,372.917L964.001,399.392L965.001,476.879L965.545,492.174L966.001,471.69L966.819,381.145L967.001,389.061L968.001,442.234L968.054,442.426L969.001,383.254L969.249,373.475L970.001,419.382L970.921,436.735L971.479,429.6L972.001,449.771L972.554,474.123L973.001,461.372L973.908,414.306L974.001,415.632L974.944,473.586L975.001,472.897L976.001,210.053L976.338,113.627L977.001,288.414L978.001,448.721L978.329,458.669L979.001,427.559L980.001,246.332L980.36,171.774L981.001,380.698L982.001,553.101L982.829,579.745L983.001,578.72L983.865,563.954L984.001,564.818L984.98,585.684L985.001,585.631L986.001,538L987.001,277.872L987.011,277.847L988.001,528.008L989.001,584.907L989.201,586.185L990.001,555.257L991.001,291.547L991.113,280.291L992.001,518.391L993.001,592.771L994.001,595.345L995.001,615.134L996.001,622.646L996.051,622.681L997.001,614.284L997.684,587.903L998.001,597.627L998.76,614.423L999.001,613.347L1000.001,562.451L1001.001,295.615L1001.189,276.714L1002.001,466.229L1003.001,579.613L1003.738,593.907L1004.001,591.569L1004.813,559.704L1005.001,563.417L1005.53,574.771L1006.001,564.52L1007.001,379.444L1007.84,34.902L1008.001,59.729L1008.875,301.047L1009.001,292.439L1009.632,190.868L1010.001,242.794L1010.986,422.263L1011.001,422.084L1011.942,284.939L1012.001,285.699L1013.001,493.156L1014.001,553.51L1014.053,553.71L1015.001,503.169L1016.001,118.464L1016.323,39.508L1017.001,258.266L1017.478,333.876L1018.001,250.605L1018.593,93.635L1019.001,192.228L1019.708,355.352L1020.425,282.037L1021.001,396.174L1022.001,566.121L1023.001,601.437L1023.611,605.477L1024.001,604.303L1025.001,592.535L1026.001,523.031L1027.001,192L1027.116,183.07L1028.001,455.784L1029.001,588.338L1030.001,622.805L1031.001,635.069L1032.001,641.176L1033.001,645.841L1033.607,646.732L1034.001,646.546L1034.723,645.483L1035.36,646.868L1036.001,644.213L1036.077,644.098L1036.993,647.097L1037.001,647.097L1038.001,645.387L1039.001,638.506L1039.183,637.819L1040.001,644.943L1041.001,650.527L1041.613,651.471L1042.001,651.19L1042.688,650.399L1043.001,650.62L1044.001,652.438L1045.001,653.112L1046.001,653.356L1047.001,652.379L1048.001,648.585L1048.622,646.671L1049.001,647.677L1050.001,652.313L1051.001,654.131L1051.888,654.673L1052.001,654.663L1053.001,654.287L1055.001,654.006L1056.001,651.811L1056.707,650.29L1057.001,650.601L1057.941,651.989L1058.001,651.982L1059.001,651.207L1060.012,651.282L1061.001,649.689L1061.765,646.229L1062.001,646.858L1063.001,650.563L1063.119,650.594L1064.001,649.723L1064.194,649.657L1065.001,650.58L1066.001,652.192L1066.106,652.21L1067.001,651.132L1067.42,650.77L1068.001,651.28L1068.694,651.773L1069.001,651.605L1070.001,648.106L1071.001,642.01L1071.761,637.303L1072.001,637.813L1073.001,641.924L1074.001,647.852L1075.001,649.569L1076.001,649.505L1076.938,647.046L1077.001,647.071L1078.001,649.349L1078.093,649.383L1079.001,648.045L1079.089,648.012L1080.001,650.268L1080.244,650.513L1081.001,647.562L1081.797,641.258L1082.001,642.186L1083.001,647.51L1083.151,647.616L1083.709,647.166L1084.001,647.509L1085.001,651.087L1085.979,652.981L1086.001,652.979L1087.001,650.537L1087.651,648.919L1088.001,649.348L1088.647,650.326L1089.001,650.085L1089.922,648.96L1090.001,648.99L1091.001,650.489L1092.001,654.045L1092.51,654.592L1093.386,653.827L1094.001,654.767L1094.462,655.234L1095.001,654.582L1095.418,653.941L1096.001,654.889L1096.373,655.145L1097.001,654.273L1097.887,651.649L1098.001,651.747L1099.001,654.065L1100.001,654.333L1100.714,654.838L1101.001,654.671L1101.75,652.986L1102.001,653.43L1103.001,655.752L1103.184,655.799L1104.001,654.671L1104.179,654.517L1105.001,656.108L1105.892,656.733L1106.001,656.721L1107.001,655.556L1109.001,655.314L1110.001,656.572L1111.001,657.173L1113.001,657.437L1113.857,657.479L1116.001,657.464L1117.001,656.914L1117.8,656.457L1118.001,656.52L1119.001,657.41L1125.001,657.178L1126.001,655.567L1126.801,652.491L1127.001,652.751L1128.001,655.899L1129.001,656.894L1132.001,656.873L1133.001,655.405L1133.81,650.694L1134.001,651.171L1134.606,652.783L1135.363,649.643L1136.001,652.836L1136.598,654.218L1137.394,653.774L1138.001,654.05L1139.001,656.109L1140.001,656.3L1141.001,653.431L1141.058,653.41L1142.001,656.407L1143.001,657.037L1143.169,657.041L1144.001,656.644L1145.001,652.467L1145.917,651.444L1146.001,651.492L1147.001,655.327L1148.001,655.138L1149.001,656.68L1150.001,657.191L1151.001,657.449L1151.931,657.509L1153.001,657.357L1154.001,656.921L1155.001,655.16L1155.834,653.193L1156.001,653.368L1157.001,656.523L1158.001,657.263L1162.001,657.257L1163.001,656.5L1164.001,655.013L1165.001,655.111L1166.001,656.53L1167.001,657.261L1169.001,657.551L1169.892,657.571L1171.001,657.454L1172.001,657.216L1173.001,656.368L1173.716,655.841L1174.001,655.991L1175.001,657.087L1176.001,657.364L1176.464,657.433L1182.318,657.443L1183.001,657.083L1183.752,655.608L1184.001,656.217L1185.001,657.449L1187.001,657.293L1188.001,656.998L1188.093,656.991L1189.001,657.338L1192.001,657.165L1193.001,655.66L1193.469,653.843L1194.001,655.692L1194.983,656.885L1196.001,656.94L1197.001,657.209L1208.001,656.91L1209.001,656.639L1210.001,655.635L1212.001,655.62L1213.001,654.445L1213.144,654.401L1214.001,655.394L1215.001,656.008L1216.001,655.976L1217.001,655.696L1218.001,654.695L1219.001,653.145L1220.001,651.915L1221.001,648.591L1221.746,644.552L1222.463,645.83L1223.001,643.316L1223.737,634.158L1224.001,636.792L1225.001,647.896L1225.768,649.098L1226.001,649.029L1227.001,647.216L1228.001,642.638L1229.001,631.597L1230.001,606.52L1231.001,479.723L1231.862,207.4L1232.001,218.117L1233.001,410.81L1234.001,557.107L1235.001,606.061L1236.001,620.471L1236.402,621.612L1237.001,619.215L1238.001,603.477L1239.001,557.121L1240.001,252.807L1240.663,28.342L1241.619,4.91L1242.001,98.468L1243.001,482.865L1244.001,577.951L1245.001,607.372L1246.001,617.953L1246.358,618.822L1247.001,616.935L1248.001,597.682L1249.001,494.585L1250.001,320.988L1250.461,220.643L1251.001,382.068L1252.001,580.116L1253.001,622.184L1254.001,628.372L1255.001,640.467L1256.001,646.215L1257.001,649.034L1258.001,652.279L1259.001,653.105L1259.023,653.107L1260.001,650.862L1260.457,649.575L1261.001,651.075L1262.001,653.406L1262.966,654.078L1263.001,654.078L1264.001,653.009L1264.4,652.247L1265.001,654.181L1266.001,655.813L1266.033,655.814L1267.001,653.749L1267.307,653.121L1268.001,655.097L1268.98,655.897L1269.001,655.896L1269.896,655.583L1270.001,655.595L1271.001,656.252L1272.001,655.993L1273.001,655.844L1274.001,653.007L1274.993,648.303L1275.001,648.307L1276.001,654.637L1277.001,656.615L1278.001,657.061L1280.001,657.11L1281.001,656.085L1281.724,654.398L1282.001,654.759L1282.68,655.906L1283.001,655.533L1283.835,651.379L1284.001,651.936L1284.631,654.31L1285.388,651.737L1286.001,654.854L1287.001,656.726L1288.001,657.036L1289.001,657.314L1290.001,657.451L1292.001,657.339L1293.001,656.705L1294.001,652.341L1294.03,652.317L1295.001,656.177L1296.001,656.953L1297.001,656.897L1298.001,655.985L1299.009,655.877L1300.001,654.743L1301.001,649.031L1302.001,620.385L1302.513,608.924L1303.001,619.62L1304.001,642.262L1305.001,650.309L1306.001,653.387L1306.297,653.504L1307.001,652.675L1308.001,645.902L1309.001,600.817L1309.682,576.193L1310.001,582.023L1311.001,633.085L1312.001,648.576L1313.001,652.919L1314.001,655.179L1315.001,656.426L1316.001,657.014L1317.001,657.285L1318.001,657.363L1319.001,657.254L1320.001,656.724L1321.001,655.511L1322.001,655.263L1322.347,655.169L1323.001,655.705L1323.661,656.208L1324.001,656.007L1325.001,650.74L1325.573,649.306L1326.001,649.965L1327.001,655.669L1328.001,656.836L1330.001,656.784L1331.001,655.943L1332.263,655.987L1333.001,656.692L1334.001,657.43L1335.001,657.543L1336.001,657.748L1345.001,657.888" style="fill:none;fill-rule:nonzero;stroke:black;stroke-width:1px;"/>
        </g>
        <g transform="matrix(1,0,0,1,-12.5,1.247375)">
            <path d="M1344,0L1344,689" style="fill:none;fill-rule:nonzero;stroke:black;stroke-width:2px;"/>
        </g>
        <g transform="matrix(1,0,0,1,1339.665354,662.326086)">
            <text x="0px" y="0px" style="font-family:'SegoeUI', 'Segoe UI', sans-serif;font-size:16px;">0.0</text>
        </g>
        <g transform="matrix(1,0,0,1,-12.5,1.247375)">
            <path d="M1344,657L1349,657" style="fill:none;fill-rule:nonzero;stroke:black;stroke-width:2px;"/>
        </g>
        <g transform="matrix(1,0,0,1,1339.665354,506.326086)">
            <text x="0px" y="0px" style="font-family:'SegoeUI', 'Segoe UI', sans-serif;font-size:16px;">0.1</text>
        </g>
        <g transform="matrix(1,0,0,1,-12.5,1.247375)">
            <path d="M1344,501L1349,501" style="fill:none;fill-rule:nonzero;stroke:black;stroke-width:2px;"/>
        </g>
        <g transform="matrix(1,0,0,1,1339.665354,350.326086)">
            <text x="0px" y="0px" style="font-family:'SegoeUI', 'Segoe UI', sans-serif;font-size:16px;">0.2</text>
        </g>
        <g transform="matrix(1,0,0,1,-12.5,1.247375)">
            <path d="M1344,345L1349,345" style="fill:none;fill-rule:nonzero;stroke:black;stroke-width:2px;"/>
        </g>
        <g transform="matrix(1,0,0,1,1339.665354,193.326086)">
            <text x="0px" y="0px" style="font-family:'SegoeUI', 'Segoe UI', sans-serif;font-size:16px;">0.3</text>
        </g>
        <g transform="matrix(1,0,0,1,-12.5,1.247375)">
            <path d="M1344,188L1349,188" style="fill:none;fill-rule:nonzero;stroke:black;stroke-width:2px;"/>
        </g>
        <g transform="matrix(1,0,0,1,1339.665354,37.326086)">
            <text x="0px" y="0px" style="font-family:'SegoeUI', 'Segoe UI', sans-serif;font-size:16px;">0.4</text>
        </g>
        <g transform="matrix(1,0,0,1,-12.5,1.247375)">
            <path d="M1344,32L1349,32" style="fill:none;fill-rule:nonzero;stroke:black;stroke-width:2px;"/>
        </g>
        <g transform="matrix(1,0,0,1,-12.5,1.247375)">
            <path d="M0,690L1343,690" style="fill:none;fill-rule:nonzero;stroke:black;stroke-width:2px;"/>
        </g>
        <g transform="matrix(1,0,0,1,1289.665354,710.326086)">
            <text x="0px" y="0px" style="font-family:'SegoeUI', 'Segoe UI', sans-serif;font-size:16px;">3.2</text>
        </g>
        <g transform="matrix(1,0,0,1,-12.5,1.247375)">
            <path d="M1313,690L1313,695" style="fill:none;fill-rule:nonzero;stroke:black;stroke-width:2px;"/>
        </g>
        <g transform="matrix(1,0,0,1,1115.665354,710.326086)">
            <text x="0px" y="0px" style="font-family:'SegoeUI', 'Segoe UI', sans-serif;font-size:16px;">3.4</text>
        </g>
        <g transform="matrix(1,0,0,1,-12.5,1.247375)">
            <path d="M1139,690L1139,695" style="fill:none;fill-rule:nonzero;stroke:black;stroke-width:2px;"/>
        </g>
        <g transform="matrix(1,0,0,1,941.665354,710.326086)">
            <text x="0px" y="0px" style="font-family:'SegoeUI', 'Segoe UI', sans-serif;font-size:16px;">3.6</text>
        </g>
        <g transform="matrix(1,0,0,1,-12.5,1.247375)">
            <path d="M965,690L965,695" style="fill:none;fill-rule:nonzero;stroke:black;stroke-width:2px;"/>
        </g>
        <g transform="matrix(1,0,0,1,768.665354,710.326086)">
            <text x="0px" y="0px" style="font-family:'SegoeUI', 'Segoe UI', sans-serif;font-size:16px;">3.8</text>
        </g>
        <g transform="matrix(1,0,0,1,-12.5,1.247375)">
            <path d="M792,690L792,695" style="fill:none;fill-rule:nonzero;stroke:black;stroke-width:2px;"/>
        </g>
        <g transform="matrix(1,0,0,1,594.665354,710.326086)">
            <text x="0px" y="0px" style="font-family:'SegoeUI', 'Segoe UI', sans-serif;font-size:16px;">4.0</text>
        </g>
        <g transform="matrix(1,0,0,1,-12.5,1.247375)">
            <path d="M618,690L618,695" style="fill:none;fill-rule:nonzero;stroke:black;stroke-width:2px;"/>
        </g>
        <g transform="matrix(1,0,0,1,420.665354,710.326086)">
            <text x="0px" y="0px" style="font-family:'SegoeUI', 'Segoe UI', sans-serif;font-size:16px;">4.2</text>
        </g>
        <g transform="matrix(1,0,0,1,-12.5,1.247375)">
            <path d="M444,690L444,695" style="fill:none;fill-rule:nonzero;stroke:black;stroke-width:2px;"/>
        </g>
        <g transform="matrix(1,0,0,1,246.665354,710.326086)">
            <text x="0px" y="0px" style="font-family:'SegoeUI', 'Segoe UI', sans-serif;font-size:16px;">4.4</text>
        </g>
        <g transform="matrix(1,0,0,1,-12.5,1.247375)">
            <path d="M270,690L270,695" style="fill:none;fill-rule:nonzero;stroke:black;stroke-width:2px;"/>
        </g>
        <g transform="matrix(1,0,0,1,73.665354,710.326086)">
            <text x="0px" y="0px" style="font-family:'SegoeUI', 'Segoe UI', sans-serif;font-size:16px;">4.6</text>
        </g>
        <g transform="matrix(1,0,0,1,-12.5,1.247375)">
            <path d="M97,690L97,695" style="fill:none;fill-rule:nonzero;stroke:black;stroke-width:2px;"/>
        </g>
        <g transform="matrix(1,0,0,1,-208.29622,387.498882)">
            <text x="790.608px" y="343.158px" style="font-family:'SegoeUI', 'Segoe UI', sans-serif;font-size:11.66px;">1</text>
            <g transform="matrix(20,0,0,20,1001.014521,349.818175)">
            </g>
            <text x="796.893px" y="349.818px" style="font-family:'SegoeUI', 'Segoe UI', sans-serif;font-size:20px;">H Chemical Shif<tspan x="935.946px 942.724px " y="349.818px 349.818px ">t </tspan>(ppm)</text>
        </g>
        <g transform="matrix(0,1,-1,0,1724.463998,-467.641833)">
            <g transform="matrix(20,0,0,20,865.432177,349.818175)">
            </g>
            <text x="790.608px" y="349.818px" style="font-family:'SegoeUI', 'Segoe UI', sans-serif;font-size:20px;">Int<tspan x="813.87px 824.329px " y="349.818px 349.818px ">en</tspan>sity</text>
        </g>
        <g transform="matrix(1,0,0,1,82.813141,66.816488)">
            <g transform="matrix(30,0,0,30,1247.463542,554.299242)">
            </g>
            <text x="1215.12px" y="554.299px" style="font-family:'SegoeUI', 'Segoe UI', sans-serif;font-size:30px;">33</text>
        </g>
        <g transform="matrix(0.417982,-0.190918,0.578906,2.323668,379.598089,-583.955116)">
            <path d="M1356.238,630.785L1343.361,639.374" style="fill:none;stroke:black;stroke-width:1.5px;stroke-linecap:round;stroke-linejoin:round;stroke-miterlimit:1.5;"/>
        </g>
        <g transform="matrix(1,0,0,1,80.103209,2.838469)">
            <g transform="matrix(30,0,0,30,1247.463542,554.299242)">
            </g>
            <text x="1215.12px" y="554.299px" style="font-family:'SegoeUI', 'Segoe UI', sans-serif;font-size:30px;">34</text>
        </g>
        <g transform="matrix(0.418974,-0.245236,0.56734,2.956443,369.467899,-985.383215)">
            <path d="M1359.923,635.411L1347.778,639.603" style="fill:none;stroke:black;stroke-width:1.23px;stroke-linecap:round;stroke-linejoin:round;stroke-miterlimit:1.5;"/>
        </g>
        <g transform="matrix(1,0,0,1,55.713502,-31.001426)">
            <g transform="matrix(30,0,0,30,1247.463542,554.299242)">
            </g>
            <text x="1215.12px" y="554.299px" style="font-family:'SegoeUI', 'Segoe UI', sans-serif;font-size:30px;">35</text>
        </g>
        <g transform="matrix(0.418974,-0.245236,0.56734,2.956443,357.126561,-1017.187628)">
            <path d="M1359.923,635.411L1332.378,659.497" style="fill:none;stroke:black;stroke-width:1.23px;stroke-linecap:round;stroke-linejoin:round;stroke-miterlimit:1.5;"/>
        </g>
        <g transform="matrix(1,0,0,1,34.757216,7.751449)">
            <g transform="matrix(30,0,0,30,1247.463542,554.299242)">
            </g>
            <text x="1215.12px" y="554.299px" style="font-family:'SegoeUI', 'Segoe UI', sans-serif;font-size:30px;">36</text>
        </g>
        <g transform="matrix(1,0,0,1,24.051908,72.617282)">
            <g transform="matrix(0.95,0,0,1,60.824919,0)">
                <g transform="matrix(30,0,0,30,1247.642135,554.299242)">
                </g>
                <text x="1216.498px" y="554.299px" style="font-family:'SegoeUI', 'Segoe UI', sans-serif;font-size:30px;">3<tspan x="1231.47px " y="554.299px ">7</tspan></text>
            </g>
        </g>
        <g transform="matrix(1,0,0,1,-42.334292,-332.222737)">
            <g transform="matrix(0.95,0,0,1,60.824919,0)">
                <g transform="matrix(30,0,0,30,1247.642135,554.299242)">
                </g>
                <text x="1216.498px" y="554.299px" style="font-family:'SegoeUI', 'Segoe UI', sans-serif;font-size:30px;">3<tspan x="1231.47px " y="554.299px ">8</tspan></text>
            </g>
        </g>
        <g transform="matrix(1,0,0,1,-187.750081,-332.222737)">
            <g transform="matrix(0.95,0,0,1,60.824919,0)">
                <g transform="matrix(30,0,0,30,1247.642135,554.299242)">
                </g>
                <text x="1216.498px" y="554.299px" style="font-family:'SegoeUI', 'Segoe UI', sans-serif;font-size:30px;">3<tspan x="1231.47px " y="554.299px ">8</tspan></text>
            </g>
        </g>
        <g transform="matrix(1,0,0,1,-965.047279,-332.222737)">
            <g transform="matrix(0.95,0,0,1,60.824919,0)">
                <g transform="matrix(30,0,0,30,1247.642135,554.299242)">
                </g>
                <text x="1216.498px" y="554.299px" style="font-family:'SegoeUI', 'Segoe UI', sans-serif;font-size:30px;">3<tspan x="1231.47px " y="554.299px ">8</tspan></text>
            </g>
        </g>
        <g transform="matrix(1,0,0,1,-1157.301853,-332.222737)">
            <g transform="matrix(0.95,0,0,1,60.824919,0)">
                <g transform="matrix(30,0,0,30,1247.642135,554.299242)">
                </g>
                <text x="1216.498px" y="554.299px" style="font-family:'SegoeUI', 'Segoe UI', sans-serif;font-size:30px;">3<tspan x="1231.47px " y="554.299px ">8</tspan></text>
            </g>
        </g>
        <g transform="matrix(0.418792,-0.251939,0.569662,3.041634,338.282982,-1022.713518)">
            <path d="M1359.923,635.411L1332.378,659.497" style="fill:none;stroke:black;stroke-width:1.19px;stroke-linecap:round;stroke-linejoin:round;stroke-miterlimit:1.5;"/>
        </g>
        <g transform="matrix(0.423434,-0.081549,0.510652,0.875941,357.020184,183.873097)">
            <path d="M1359.923,635.411L1332.378,659.497" style="fill:none;stroke:black;stroke-width:2.88px;stroke-linecap:round;stroke-linejoin:round;stroke-miterlimit:1.5;"/>
        </g>
        <g transform="matrix(1,0,0,1,-60.796475,72.617282)">
            <g transform="matrix(0.95,0,0,1,60.824919,0)">
                <g transform="matrix(30,0,0,30,1247.642135,554.299242)">
                </g>
                <text x="1216.498px" y="554.299px" style="font-family:'SegoeUI', 'Segoe UI', sans-serif;font-size:30px;">3<tspan x="1231.47px " y="554.299px ">9</tspan></text>
            </g>
        </g>
        <g transform="matrix(0.423434,-0.081549,0.510652,0.875941,269.749443,183.873097)">
            <path d="M1359.923,635.411L1332.378,659.497" style="fill:none;stroke:black;stroke-width:2.88px;stroke-linecap:round;stroke-linejoin:round;stroke-miterlimit:1.5;"/>
        </g>
        <g transform="matrix(1,0,0,1,-78.716084,35.186942)">
            <g transform="matrix(0.95,0,0,1,60.824919,0)">
                <g transform="matrix(30,0,0,30,1247.642135,554.299242)">
                </g>
                <text x="1216.498px" y="554.299px" style="font-family:'SegoeUI', 'Segoe UI', sans-serif;font-size:30px;">4<tspan x="1231.47px " y="554.299px ">0</tspan></text>
            </g>
        </g>
        <g transform="matrix(0.423434,-0.081549,0.510652,0.875941,232.719427,179.66969)">
            <path d="M1442.135,606.046L1332.378,659.497" style="fill:none;stroke:black;stroke-width:2.88px;stroke-linecap:round;stroke-linejoin:round;stroke-miterlimit:1.5;"/>
        </g>
        <g transform="matrix(1,0,0,1,-105.422031,59.983557)">
            <g transform="matrix(0.95,0,0,1,60.824919,0)">
                <g transform="matrix(30,0,0,30,1247.642135,554.299242)">
                </g>
                <text x="1216.498px" y="554.299px" style="font-family:'SegoeUI', 'Segoe UI', sans-serif;font-size:30px;">4<tspan x="1231.47px " y="554.299px ">1</tspan></text>
            </g>
        </g>
        <g transform="matrix(0.423434,-0.081549,0.510652,0.875941,213.904176,179.66969)">
            <path d="M1390.765,629.827L1332.378,659.497" style="fill:none;stroke:black;stroke-width:2.88px;stroke-linecap:round;stroke-linejoin:round;stroke-miterlimit:1.5;"/>
        </g>
        <g transform="matrix(1,0,0,1,-236.767234,112.919364)">
            <g transform="matrix(0.95,0,0,1,60.824919,0)">
                <g transform="matrix(30,0,0,30,1247.642135,554.299242)">
                </g>
                <text x="1216.498px" y="554.299px" style="font-family:'SegoeUI', 'Segoe UI', sans-serif;font-size:30px;">4<tspan x="1231.47px " y="554.299px ">2</tspan></text>
            </g>
        </g>
        <g transform="matrix(0.412833,-0.108546,0.375958,0.532931,179.084726,473.904158)">
            <path d="M1425.144,604.464L1437.077,571.858" style="fill:none;stroke:black;stroke-width:3.95px;stroke-linecap:round;stroke-linejoin:round;stroke-miterlimit:1.5;"/>
        </g>
        <g transform="matrix(1,0,0,1,-659.098133,57.148911)">
            <g transform="matrix(0.95,0,0,1,60.824919,0)">
                <g transform="matrix(30,0,0,30,1247.642135,554.299242)">
                </g>
                <text x="1216.498px" y="554.299px" style="font-family:'SegoeUI', 'Segoe UI', sans-serif;font-size:30px;">4<tspan x="1231.47px " y="554.299px ">3</tspan></text>
            </g>
        </g>
        <g transform="matrix(0.423434,-0.081549,0.510652,0.875941,-339.771926,176.835045)">
            <path d="M1390.765,629.827L1332.378,659.497" style="fill:none;stroke:black;stroke-width:2.88px;stroke-linecap:round;stroke-linejoin:round;stroke-miterlimit:1.5;"/>
        </g>
        <g transform="matrix(0.409267,0,0,0.441523,759.701028,172.777374)">
            <path d="M1093.443,102.66L1093.443,73.08L1194.956,73.08L1194.956,102.691" style="fill:none;stroke:black;stroke-width:5.87px;stroke-linecap:round;stroke-linejoin:round;stroke-miterlimit:1.5;"/>
        </g>
        <g transform="matrix(0.409267,0,0,0.441523,-245.700424,172.777374)">
            <path d="M1093.443,102.66L1093.443,73.08L1194.956,73.08L1194.956,102.691" style="fill:none;stroke:black;stroke-width:5.87px;stroke-linecap:round;stroke-linejoin:round;stroke-miterlimit:1.5;"/>
        </g>
        <g transform="matrix(0.409267,0,0,0.441523,-437.265088,172.777374)">
            <path d="M1093.443,102.66L1093.443,73.08L1194.956,73.08L1194.956,102.691" style="fill:none;stroke:black;stroke-width:5.87px;stroke-linecap:round;stroke-linejoin:round;stroke-miterlimit:1.5;"/>
        </g>
        <g transform="matrix(3.923154,0,0,0.441523,-3664.28058,172.777374)">
            <path d="M1093.443,102.66L1093.443,73.08L1194.956,73.08L1194.956,102.691" style="fill:none;stroke:black;stroke-width:0.9px;stroke-linecap:round;stroke-linejoin:round;stroke-miterlimit:1.5;"/>
        </g>
    </g>
    <g id="add">
    </g>
</svg>
