<?xml version="1.0" encoding="UTF-8" standalone="no"?>
<!DOCTYPE svg PUBLIC "-//W3C//DTD SVG 1.1//EN" "http://www.w3.org/Graphics/SVG/1.1/DTD/svg11.dtd">
<svg width="100%" height="100%" viewBox="0 0 1430 734" version="1.1" xmlns="http://www.w3.org/2000/svg" xmlns:xlink="http://www.w3.org/1999/xlink" xml:space="preserve" xmlns:serif="http://www.serif.com/" style="fill-rule:evenodd;clip-rule:evenodd;stroke-linecap:square;stroke-miterlimit:10;">
    <g transform="matrix(1,0,0,1,7.65748,0)">
        <path d="M-5.989,660.554L-0.989,660.554L-0.196,662.007L1.011,662.242L2.011,662.906L2.925,663.288L4.011,663.292L5.011,662.719L5.195,662.715L6.011,663.15L7.026,663.114L7.929,663.471L10.011,663.492L10.894,662.875L11.011,662.928L11.926,663.445L18.011,663.278L19.011,661.238L19.302,658.127L20.257,657.739L21.011,662.358L21.727,662.909L22.011,662.825L23.011,661.157L23.403,661.267L23.996,657.751L24.011,657.768L25.011,660.964L26.011,662.68L27.011,662.472L27.684,657.923L28.011,660.775L28.742,662.771L29.011,662.591L30.011,661.66L30.057,661.652L31.011,662.424L31.785,662.829L33.41,662.861L34.011,662.41L34.932,661.135L35.011,661.154L36.011,662.56L36.969,663.371L40.038,663.279L41.011,660.439L41.173,659.663L41.715,661.523L42.205,659.699L43.011,662.789L44.32,663.02L45.011,663.172L46.011,663.511L51.011,663.35L51.567,662.513L52.011,663.049L53.011,663.578L56.011,663.566L57.011,662.964L57.525,662.077L58.011,662.611L58.84,663.392L78.011,663.198L79.011,662.001L80.011,650.686L80.582,655.466L81.011,648.831L81.175,646.987L82.011,659.987L82.619,661.395L83.011,660.817L84.011,629.707L84.115,626.853L85.011,659.013L86.011,662.454L87.011,663.15L88.011,663.125L88.912,662.535L89.011,662.572L90.011,663.347L93.116,663.413L94.011,662.925L94.174,662.829L95.011,663.256L95.205,663.268L96.011,662.09L96.16,661.729L96.985,663.244L100.011,663.239L101.011,659.849L101.06,659.756L102.011,663.107L103.51,663.318L103.845,663.451L105.011,663.343L105.935,661.566L106.011,661.652L106.605,662.799L107.011,662.56L107.791,663.312L109.158,663.434L110.011,662.841L110.19,662.713L110.938,663.27L111.299,663.269L112.011,662.199L112.228,661.66L113.011,663.207L114.059,663.372L115.011,662.898L115.503,661.637L116.011,662.885L116.87,663.287L117.011,663.166L117.463,662.607L118.011,663.092L118.753,663.422L120.011,663.387L120.842,662.722L121.011,662.887L121.873,663.439L123.034,663.496L123.911,662.902L124.011,662.95L125.011,663.438L200.588,663.316L201.011,663.084L201.516,662.396L202.011,663.038L202.47,663.341L203.011,663.225L204.011,662.464L204.069,662.427L205.011,663.317L206.011,663.247L206.597,662.343L207.011,663.09L207.99,663.406L213.011,663.172L213.767,661.921L214.011,662.348L214.927,663.24L215.011,663.212L216.011,662.739L216.346,662.161L217.011,663.068L221.968,663.354L222.201,663.391L228.081,663.191L229.011,662.922L230.011,662.783L231.011,661.401L232.011,659.283L232.465,658.553L233.011,660.015L233.807,661.336L234.011,661.269L235.011,659.146L235.767,656.971L236.011,657.564L237.011,661.624L238.011,662.165L239.011,661.887L240.011,659.574L241.011,656.939L241.312,656.324L242.011,658.554L242.756,659.719L243.011,659.473L244.011,657.973L244.51,657.28L245.011,658.263L246.011,660.903L247.011,661.198L247.94,661.901L249.436,661.814L250.011,661.416L250.571,660.847L251.011,661.142L252.011,661.533L253.011,661.578L253.743,661.146L254.011,661.192L255.011,661.818L255.033,661.819L256.011,660.872L257.011,653.228L257.199,652.613L258.011,658.414L259.011,660.603L259.03,660.603L260.011,655.898L260.5,651.322L261.011,655.687L261.841,660.408L262.383,657.984L263.011,661.385L263.698,661.885L264.011,661.794L265.011,659.785L265.968,650.411L266.011,650.486L267.011,658.912L267.67,659.943L268.011,659.789L269.011,653.165L269.218,652.328L270.011,657.736L271.011,661.05L272.011,661.729L274.011,661.507L275.011,660.92L276.011,659.849L277.011,656.964L278.011,651.276L279.011,628.012L280.011,442.475L280.127,431.323L281.011,594.288L282.011,641.227L283.011,651.772L283.661,653.863L284.228,653.292L285.011,655.477L285.75,657.21L286.317,656.149L286.988,657.273L287.011,657.271L288.011,655.341L289.011,646.412L290.011,617.139L291.011,396.423L291.192,364.764L292.011,567.157L293.011,632.359L294.011,649.242L295.011,656.129L296.011,659.36L296.685,660.398L297.011,660.373L297.975,661.401L298.542,661.015L299.011,661.806L300.011,662.432L301.07,662.525L301.921,661.376L302.011,661.414L303.011,662.748L305.011,662.54L305.351,662.305L305.97,662.606L307.011,662.634L307.982,663.076L317.011,663.159L318.011,662.391L318.401,661.875L319.011,662.714L320.011,663.233L325.011,663.202L326.011,662.469L326.035,662.465L326.938,662.94L327.093,662.914L327.892,663.245L328.382,663.217L329.011,662.737L329.388,662.431L330.011,662.828L330.91,663.266L336.011,663.138L337.011,662.1L337.151,661.988L338.011,662.692L339.011,663.211L346.011,663.124L347.011,662.882L348.011,662.518L348.422,661.995L349.011,662.567L351.011,662.758L351.697,662.935L353.011,662.822L354.011,662.572L355.011,662.348L356.011,661.915L357.011,661.509L358.011,660.403L359.011,658.829L360.011,654.266L361.011,639.82L362.011,548.784L362.607,328.713L363.011,470.399L364.011,626.035L365.011,647.326L366.011,656.841L367.011,659.584L368.011,660.395L369.011,660.166L369.777,658.887L370.035,659.013L371.011,657.021L372.011,646.481L373.011,590.04L373.671,396.144L374.011,491.662L375.011,632.676L376.011,650.44L377.011,657.993L378.011,660.578L379.011,661.654L379.526,662.014L380.011,661.673L380.532,660.684L381.011,661.631L382.011,662.475L382.028,662.476L383.008,661.701L383.011,661.702L384.011,662.73L386.011,662.494L386.49,662.148L387.011,662.724L389.011,662.912L389.765,663.167L391.011,662.906L392.011,661.898L392.447,661.093L393.011,662.166L394.011,663.072L395.011,662.816L395.723,662.238L396.497,662.675L397.011,662.164L397.399,661.839L398.011,662.537L398.07,662.55L398.663,661.8L399.011,662.271L400.011,663.183L401.011,663.095L401.577,662.579L402.093,662.653L403.011,659.957L403.434,657.757L404.011,660.499L405.011,662.53L405.214,662.567L406.011,661.887L406.478,661.148L407.097,661.907L408.011,658.273L408.257,657.479L408.902,659.166L409.547,656.644L410.011,659.155L410.372,660.204L411.011,657.518L411.172,657.131L412.011,659.821L413.011,661.843L413.312,661.99L414.011,660.258L414.499,657.697L415.118,659.829L415.969,655.713L416.011,655.733L416.588,658.291L417.207,654.888L418.011,660.611L418.961,662.002L419.011,661.998L420.011,661.019L420.482,658.496L421.101,660.929L422.004,655.72L422.011,655.723L423.011,659.504L424.011,662.311L425.011,662.221L425.382,661.136L426.13,662.16L427.011,661.01L427.394,660.4L428.011,661.156L429.011,662.877L429.741,663.293L430.011,663.169L431.011,662.71L432.011,662.67L432.862,661.674L433.011,661.824L434.011,662.675L434.667,663.125L438.011,662.869L438.201,662.669L438.794,663.111L439.011,663.056L439.8,658.358L440.011,660.026L441.011,663.142L443.153,663.291L444.011,663.46L444.262,663.506L445.011,663.025L447.011,663.297L447.408,663.332L448.011,663.286L449.011,662.273L449.574,658.971L450.684,660.815L451.011,661.945L451.483,662.813L452.231,662.21L452.902,662.857L453.185,662.834L454.011,661.898L454.63,656.928L455.352,657.725L455.868,659.851L456.048,659.716L456.744,661.873L457.26,659.99L458.011,662.29L458.086,662.303L459.011,661.392L460.011,656.007L460.742,629.449L461.011,638.811L462.011,658.72L462.547,659.589L463.011,658.716L464.011,651.843L464.559,629.298L465.152,644.18L465.823,622.362L466.519,618.971L467.011,642.37L468.011,655.871L468.015,655.873L469.011,635.611L469.279,621.849L469.795,637.948L470.285,621.47L470.981,644.95L471.011,644.882L471.652,624.977L472.011,640.137L473.011,657.581L473.534,658.465L474.011,657.506L474.979,625.932L475.011,626.049L476.011,655.724L477.011,661.218L478.011,662.381L479.389,662.546L480.011,661.666L480.472,658.651L481.478,656.202L482.011,660.983L483.011,662.83L485.011,663.054L486.011,658.578L486.146,657.871L487.011,662.627L488.011,663.272L498.011,663.503L498.706,663.647L506.011,663.449L506.366,663.311L511.011,663.169L511.396,662.977L513.201,662.911L514.011,663.314L515.239,663.307L516.011,662.886L516.193,662.834L516.863,663.242L523.131,663.304L524.007,663.578L530.011,663.483L531.011,662.809L531.487,661.239L532.011,662.69L533.011,663.328L535.011,663.307L536.011,661.973L536.8,655.118L537.011,657.003L538.011,662.471L539.011,663.211L540.307,663.158L541.011,662.695L542.011,656.638L542.139,655.596L543.011,662.451L543.738,663.119L546.059,663.293L547.011,662.02L547.452,660.503L548.011,662.532L549.011,663.31L550.011,663.2L550.418,663.002L551.011,663.163L552.011,662.137L552.12,662.058L553.011,663.205L563.011,663.047L564.011,662.578L565.011,658.597L565.531,650.036L566.408,653.966L567.011,659.46L568.011,661.945L568.084,661.96L569.011,661.537L570.011,657.022L570.792,639.987L571.011,641.857L572.011,650.757L573.011,659.236L573.243,659.601L573.733,657.383L574.011,659.097L574.738,661.295L575.011,661.088L576.011,648.885L576.054,648.729L576.621,654.103L577.011,652.341L578.011,659.705L578.091,659.748L578.891,653.681L579.011,654.295L580.011,661.06L580.258,661.199L581.011,660.3L581.728,654.187L582.011,656.254L582.605,659.543L583.011,658.088L584.011,654.985L584.436,656.344L585.003,652.416L585.011,652.429L585.674,656.184L586.011,655.727L586.963,639.767L587.011,639.821L588.011,650.256L588.769,654.191L589.011,653.296L590.011,646.384L590.626,643.796L591.011,648.365L591.245,649.693L592.011,637.27L592.173,635.522L593.011,648.572L594.011,652.41L594.598,654.68L595.011,651.894L595.526,643.914L596.558,650.781L597.011,646.094L597.899,638.466L598.011,639.493L599.011,655.584L599.446,656.869L600.011,653.989L601.011,645.713L601.149,644.53L602.011,653.072L602.051,653.087L602.851,645.314L603.011,646.605L604.011,657.998L605.011,659.373L605.043,659.374L606.011,652.864L606.204,650.992L607.011,658.769L607.674,660.223L608.011,660.124L609.011,661.299L610.011,661.948L611.155,661.925L612.011,661.597L612.832,660.597L613.296,660.81L614.011,660.017L615.011,656.269L615.72,653.394L616.011,654.516L617.011,656.47L617.139,656.515L617.706,655.385L618.011,656.356L619.011,658.329L619.95,659.443L620.011,659.43L621.011,657.669L621.343,656.72L622.091,657.623L623.011,656.148L624.011,651.957L625.011,637.081L625.108,636.463L625.856,640.255L626.011,640.083L627.011,623.972L628.011,557.544L628.822,504.207L629.011,511.216L629.828,518.464L630.011,515.597L630.989,356.824L631.195,363.751L631.737,279.282L632.011,338.249L633.011,475.241L633.31,471.768L634.011,503.087L635.011,555.364L636.011,583.593L637.011,616.634L638.011,638.242L639.011,644.733L639.036,644.737L640.011,634.359L640.66,621.135L641.512,626.059L642.011,615.39L643.011,572.223L643.497,577.042L644.011,567.616L644.942,483.169L645.096,485.357L646.011,317.272L646.309,282.856L647.011,366.447L648.011,548.605L649.011,572.035L649.275,579.355L649.687,570.539L650.011,575.887L651.011,590.13L652.011,634.562L653.011,646.822L654.011,654.966L655.011,658.219L656.011,660.099L657.011,660.993L658.011,661.482L659.011,661.523L659.978,660.865L660.011,660.868L661.011,661.667L662.011,662.31L665.011,662.318L666.011,662.889L670.011,662.913L670.759,663.217L673.011,662.987L674.011,662.447L676.072,662.67L677.011,661.929L678.011,661.268L678.032,661.264L678.96,662.088L679.089,662.05L680.011,662.468L681.011,662.939L683.216,663.13L683.835,663.312L690.05,663.189L691.011,662.762L692.011,662.131L692.578,661.613L693.011,661.938L694.011,662.854L695.011,663.029L695.595,663.159L699.026,663.345L699.516,663.537L711.508,663.375L712.011,663.212L712.824,658.077L713.011,659.983L714.011,663.281L721.011,663.273L722.011,662.656L723.011,659.178L723.63,632.12L724.011,651.567L725.011,662.237L725.874,662.913L727.011,662.838L728.011,659.607L728.35,654.01L729.011,661.902L730.011,663.177L733.018,663.365L733.869,663.584L754.011,663.334L754.373,663.246L755.011,663.431L755.921,663.677L762.011,663.43L762.626,663.085L764.011,663.285L764.406,663.442L766.057,663.426L767.011,663.042L768.011,661.516L768.945,660.739L769.011,660.764L770.011,662.532L770.931,663.107L775.011,662.853L776.011,660.769L777.011,657.186L777.353,656.596L778.011,658.907L779.011,662.19L780.011,662.763L780.138,662.759L781.011,663.074L783.233,662.889L784.011,662.428L785.011,659.793L785.967,657.303L786.011,657.31L787.011,661.253L788.011,662.539L789.011,662.927L790.011,663.222L790.094,663.24L793.011,662.994L794.011,662.006L794.478,661.65L795.011,662.197L796.011,662.895L797.625,663.107L798.011,663.261L799.011,663.089L800.011,662.682L801.011,661.46L802.011,654.092L802.112,653.973L803.011,659.266L804.011,662.208L805.011,662.675L807.011,662.869L808.011,662.222L809.011,661.368L810.011,654.46L810.752,645.148L811.011,646.694L812.011,658.643L813.011,661.463L814.011,661.953L814.028,661.953L815.011,660.567L815.833,658.083L816.011,658.353L817.011,660.894L818.011,660.829L819.011,653.777L819.263,652.821L820.011,657.136L821.011,661.186L821.739,661.576L822.011,661.55L823.011,660.94L824.011,655.967L824.422,654.416L825.011,657.323L826.011,661.116L826.665,661.686L827.011,661.6L827.852,661.155L828.011,661.222L829.011,661.636L830.011,661.809L831.011,660.656L832.011,660.492L832.958,658.075L833.011,658.102L834.011,661.388L835.011,662.393L837.011,662.233L838.011,662.019L839.011,660.5L839.638,659.253L840.011,659.735L841.011,662.014L842.011,662.719L843.011,663.118L846.011,662.98L847.011,662.51L848.011,661.083L848.253,660.915L849.011,662.126L850.011,662.962L853.011,663.013L854.011,663.321L856.067,663.05L856.815,662.844L858.011,662.92L859.011,663.318L860.011,663.12L860.684,662.973L862.011,663.051L863.011,663.331L865.011,663.231L865.791,662.95L867.011,663.195L867.544,663.4L869.011,663.347L869.994,663.003L870.011,663.006L871.011,663.304L892.123,663.493L892.639,663.622L902.362,663.527L903.011,663.184L903.11,663.145L904.011,663.486L907.108,663.314L908.011,662.264L908.32,661.14L909.011,662.94L910.022,663.094L910.925,662.252L911.011,662.272L911.828,662.919L912.011,662.91L913.011,661.547L913.556,658.046L914.011,659.894L914.742,661.327L915.011,661.254L916.011,660.029L916.212,659.804L917.011,660.891L917.502,661.067L918.011,660.308L918.765,655.135L919.011,655.995L920.011,657.259L921.011,657.037L921.344,656.409L922.011,658.219L922.505,659.035L923.011,658.762L923.949,655.066L924.011,655.092L925.011,655.681L926.011,656.414L927.011,657.551L928.011,659.478L928.05,659.487L929.011,658.257L929.262,657.96L930.011,658.566L931.011,659.733L932.011,660.435L933.011,661.85L935.011,661.877L936.011,662.574L936.871,663.003L938.011,663.122L938.882,663.361L954.011,663.147L955.011,662.98L956.011,662.453L957.011,660.122L958.011,633.755L958.329,607.167L959.011,649.881L960.011,659.712L961.011,661.405L961.243,661.442L962.011,660.085L963.011,641.703L963.435,607.558L964.011,647.088L965.011,659.735L966.011,661.746L966.866,662.329L967.485,661.955L968.011,662.519L968.903,663.054L969.471,663.038L970.011,662.696L972.011,662.456L973.011,663.207L976.073,663.215L977.011,662.828L978.011,663.052L979.011,663.335L1028.011,663.101L1029.011,662.944L1040.011,662.68L1041.011,662.462L1042.011,659.793L1042.537,648.552L1043.362,659.264L1044.007,653.207L1044.011,653.207L1045.011,661.287L1045.58,661.896L1046.011,661.69L1047.011,657.151L1047.411,647.653L1048.011,657.602L1048.056,657.67L1048.649,652.057L1049.011,656.561L1050.011,660.554L1050.996,660.937L1051.011,660.936L1052.011,659.913L1053.011,657.971L1053.059,657.965L1053.885,658.64L1054.011,658.555L1054.839,657.278L1055.011,657.373L1056.011,659.081L1056.206,659.171L1057.011,658.158L1058.011,654.115L1058.114,654.085L1058.991,654.654L1059.011,654.653L1059.662,653.555L1060.332,654.486L1061.011,653.586L1062.011,649.558L1063.011,644.489L1063.866,641.749L1064.485,643.242L1065.011,641.767L1066.011,638.127L1066.445,637.299L1067.502,637.783L1068.011,638.11L1069.011,638.415L1069.385,638.822L1070.011,637.199L1071.011,632.873L1072.011,607.936L1072.532,594.71L1073.011,606.394L1074.011,630.254L1074.827,633.221L1075.011,633.171L1076.011,627.749L1077.011,591.217L1077.174,589.438L1078.011,608.748L1079.011,630.666L1079.469,632.644L1080.011,629.755L1081.011,598.464L1081.249,595.075L1082.011,616.625L1083.011,631.241L1083.828,639.121L1084.011,638.815L1085.011,629.135L1085.814,607.339L1086.011,610.065L1087.011,637.443L1087.465,639.911L1088.011,632.978L1088.651,597.954L1089.011,611.522L1089.863,637.405L1090.379,635.526L1091.011,639.311L1091.127,639.458L1092.011,630.502L1093.011,558.172L1094.011,468.5L1094.093,467.568L1095.011,537.549L1095.408,548.122L1096.011,494.784L1096.672,294.266L1097.446,424.498L1098.011,279.124L1098.529,11.917L1099.011,218.153L1100.011,487.723L1100.257,497.325L1101.011,371.514L1101.34,288.258L1102.011,445.194L1102.217,457.845L1103.011,210.822L1103.171,175.532L1104.011,506.968L1105.011,611.635L1106.011,638.934L1107.011,646.812L1108.011,652.128L1109.011,654.353L1109.361,654.898L1110.011,654.624L1111.011,642.453L1111.192,639.255L1112.011,652.726L1113.011,656.964L1114.011,658.364L1114.133,658.377L1115.011,656.347L1115.835,641.583L1116.011,644.392L1116.918,656.03L1117.011,655.991L1118.011,651.645L1118.517,645.604L1119.011,651.808L1120.011,656.989L1120.064,657L1121.011,646.202L1121.38,632.241L1122.463,646.673L1123.011,640.66L1123.34,636.784L1124.011,643.089L1124.655,646.922L1125.011,645.544L1126.011,608.073L1126.306,583.977L1127.011,614.99L1128.011,623.062L1129.011,641.906L1129.633,646.24L1130.011,644.701L1131.011,618.885L1131.284,608.891L1132.011,620.644L1133.011,637.529L1134.011,652.926L1135.011,657.562L1136.011,658.937L1136.88,659.579L1138.011,659.621L1139.011,658.147L1140.011,656.253L1141.011,654.755L1142.011,653.647L1142.4,652.949L1143.011,653.981L1143.302,654.15L1144.011,653.291L1144.36,652.9L1145.011,654.253L1146.294,654.436L1146.99,653.624L1147.011,653.628L1148.011,656.589L1149.011,657.824L1150.011,661.043L1151.011,662.107L1152.011,662.38L1153.011,662.719L1155.605,662.975L1155.991,663.114L1158.011,662.97L1158.261,662.75L1158.957,663.239L1163.011,662.939L1163.136,662.893L1164.011,663.254L1169.325,663.246L1169.893,662.736L1170.011,662.823L1170.744,663.231L1181.602,663.406L1181.886,663.533L1186.011,663.383L1186.941,663.134L1187.147,663.164L1188.011,662.058L1188.617,654.951L1189.011,659.277L1190.011,662.627L1190.706,663.035L1192.011,663.029L1193.011,662.321L1193.93,646.411L1194.011,647.578L1195.011,660.238L1196.011,662.719L1196.819,663.077L1198.011,663.066L1199.011,658.704L1199.243,655.307L1199.862,660.75L1200.068,660.395L1201.011,662.938L1202.011,663.24L1203.011,663.167L1204.011,662.594L1204.865,656.762L1205.011,657.589L1206.011,662.82L1207.011,663.135L1208.011,663.061L1209.011,662.5L1209.817,656.854L1210.011,658.093L1211.011,662.881L1212.011,663.314L1222.042,663.306L1222.868,662.359L1223.011,662.463L1224.011,663.211L1227.011,663.31L1227.794,662.32L1228.619,662.178L1229.011,662.98L1229.78,663.385L1232.011,663.348L1233.011,662.978L1234.011,657.757L1234.216,656.436L1235.011,662.093L1235.918,662.973L1236.011,662.952L1236.924,662.443L1237.011,662.496L1237.775,662.99L1238.011,662.845L1239.011,657.356L1239.142,656.705L1240.011,662.2L1240.741,662.988L1241.334,663.072L1242.011,662.143L1242.237,661.671L1243.011,663.112L1246.011,662.962L1246.879,660.735L1247.011,660.785L1248.011,662.517L1249.011,663.066L1250.011,662.95L1251.011,661.132L1251.238,660.711L1252.011,662.606L1252.269,662.758L1253.011,661.056L1253.224,660.551L1254.011,662.449L1254.874,662.941L1256.011,662.969L1257.011,662.164L1257.634,661.088L1258.011,661.818L1258.846,662.955L1259.517,662.634L1260.011,662.948L1260.961,663.287L1264.011,663.069L1264.804,662.025L1265.011,662.209L1265.913,663.191L1267.011,663.187L1267.847,662.827L1268.079,662.835L1269.011,661.588L1269.085,661.531L1270.011,662.28L1271.011,663.05L1283.011,662.968L1284.011,657.221L1284.096,656.903L1285.011,662.499L1285.824,662.962L1286.081,662.94L1286.829,662.635L1288.011,662.635L1289.011,655.524L1289.305,648.436L1290.011,660.553L1291.011,662.578L1293.097,662.743L1294.011,661.164L1294.515,655.685L1295.521,656.321L1296.011,659.708L1297.011,662.069L1298.011,662.161L1299.011,661.466L1300.011,657.994L1300.628,645.549L1301.011,649.792L1301.711,655.256L1302.201,654.038L1303.011,656.841L1303.8,658.181L1304.011,658.121L1305.011,655.717L1305.863,635.987L1306.011,638.795L1306.611,651.657L1307.204,643.237L1308.011,657.222L1309.011,660.256L1309.526,660.384L1310.011,659.75L1310.97,653.116L1311.011,653.189L1311.692,657.711L1312.285,655.401L1313.011,660.387L1314.011,662.525L1315.011,663.029L1316.011,663.274L1316.979,663.379L1337.483,663.579" style="fill:none;fill-rule:nonzero;stroke:black;stroke-width:1px;"/>
    </g>
    <g transform="matrix(1,0,0,1,7.65748,0)">
        <path d="M1337,0L1337,689" style="fill:none;fill-rule:nonzero;stroke:black;stroke-width:2px;"/>
    </g>
    <g transform="matrix(1,0,0,1,1353.822835,667.078711)">
        <text x="0px" y="0px" style="font-family:'SegoeUI', 'Segoe UI', sans-serif;font-size:16px;">0.00</text>
    </g>
    <g transform="matrix(1,0,0,1,7.65748,0)">
        <path d="M1337,663L1342,663" style="fill:none;fill-rule:nonzero;stroke:black;stroke-width:2px;"/>
    </g>
    <g transform="matrix(1,0,0,1,1353.822835,560.078711)">
        <text x="0px" y="0px" style="font-family:'SegoeUI', 'Segoe UI', sans-serif;font-size:16px;">0.01</text>
    </g>
    <g transform="matrix(1,0,0,1,7.65748,0)">
        <path d="M1337,556L1342,556" style="fill:none;fill-rule:nonzero;stroke:black;stroke-width:2px;"/>
    </g>
    <g transform="matrix(1,0,0,1,1353.822835,453.078711)">
        <text x="0px" y="0px" style="font-family:'SegoeUI', 'Segoe UI', sans-serif;font-size:16px;">0.02</text>
    </g>
    <g transform="matrix(1,0,0,1,7.65748,0)">
        <path d="M1337,449L1342,449" style="fill:none;fill-rule:nonzero;stroke:black;stroke-width:2px;"/>
    </g>
    <g transform="matrix(1,0,0,1,1353.822835,346.078711)">
        <text x="0px" y="0px" style="font-family:'SegoeUI', 'Segoe UI', sans-serif;font-size:16px;">0.03</text>
    </g>
    <g transform="matrix(1,0,0,1,7.65748,0)">
        <path d="M1337,342L1342,342" style="fill:none;fill-rule:nonzero;stroke:black;stroke-width:2px;"/>
    </g>
    <g transform="matrix(1,0,0,1,1353.822835,239.078711)">
        <text x="0px" y="0px" style="font-family:'SegoeUI', 'Segoe UI', sans-serif;font-size:16px;">0.04</text>
    </g>
    <g transform="matrix(1,0,0,1,7.65748,0)">
        <path d="M1337,235L1342,235" style="fill:none;fill-rule:nonzero;stroke:black;stroke-width:2px;"/>
    </g>
    <g transform="matrix(1,0,0,1,1353.822835,132.078711)">
        <text x="0px" y="0px" style="font-family:'SegoeUI', 'Segoe UI', sans-serif;font-size:16px;">0.05</text>
    </g>
    <g transform="matrix(1,0,0,1,7.65748,0)">
        <path d="M1337,128L1342,128" style="fill:none;fill-rule:nonzero;stroke:black;stroke-width:2px;"/>
    </g>
    <g transform="matrix(1,0,0,1,1353.822835,25.078711)">
        <text x="0px" y="0px" style="font-family:'SegoeUI', 'Segoe UI', sans-serif;font-size:16px;">0.06</text>
    </g>
    <g transform="matrix(1,0,0,1,7.65748,0)">
        <path d="M1337,21L1342,21" style="fill:none;fill-rule:nonzero;stroke:black;stroke-width:2px;"/>
    </g>
    <g transform="matrix(1,0,0,1,7.65748,0)">
        <path d="M0,690L1336,690" style="fill:none;fill-rule:nonzero;stroke:black;stroke-width:2px;"/>
    </g>
    <g transform="matrix(1,0,0,1,1221.65748,709.078711)">
        <text x="0px" y="0px" style="font-family:'SegoeUI', 'Segoe UI', sans-serif;font-size:16px;">1.0</text>
    </g>
    <g transform="matrix(1,0,0,1,7.65748,0)">
        <path d="M1222,690L1222,695" style="fill:none;fill-rule:nonzero;stroke:black;stroke-width:2px;"/>
    </g>
    <g transform="matrix(1,0,0,1,940.65748,709.078711)">
        <text x="0px" y="0px" style="font-family:'SegoeUI', 'Segoe UI', sans-serif;font-size:16px;">1.5</text>
    </g>
    <g transform="matrix(1,0,0,1,7.65748,0)">
        <path d="M941,690L941,695" style="fill:none;fill-rule:nonzero;stroke:black;stroke-width:2px;"/>
    </g>
    <g transform="matrix(1,0,0,1,659.65748,709.078711)">
        <text x="0px" y="0px" style="font-family:'SegoeUI', 'Segoe UI', sans-serif;font-size:16px;">2.0</text>
    </g>
    <g transform="matrix(1,0,0,1,7.65748,0)">
        <path d="M660,690L660,695" style="fill:none;fill-rule:nonzero;stroke:black;stroke-width:2px;"/>
    </g>
    <g transform="matrix(1,0,0,1,377.65748,709.078711)">
        <text x="0px" y="0px" style="font-family:'SegoeUI', 'Segoe UI', sans-serif;font-size:16px;">2.5</text>
    </g>
    <g transform="matrix(1,0,0,1,7.65748,0)">
        <path d="M378,690L378,695" style="fill:none;fill-rule:nonzero;stroke:black;stroke-width:2px;"/>
    </g>
    <g transform="matrix(1,0,0,1,96.65748,709.078711)">
        <text x="0px" y="0px" style="font-family:'SegoeUI', 'Segoe UI', sans-serif;font-size:16px;">3.0</text>
    </g>
    <g transform="matrix(1,0,0,1,7.65748,0)">
        <path d="M97,690L97,695" style="fill:none;fill-rule:nonzero;stroke:black;stroke-width:2px;"/>
    </g>
    <g transform="matrix(1,0,0,1,85.455882,31.375617)">
        <g transform="matrix(30,0,0,30,1254.525495,554.299242)">
        </g>
        <text x="1215.678px" y="554.299px" style="font-family:'SegoeUI', 'Segoe UI', sans-serif;font-size:30px;">1,2</text>
    </g>
    <g transform="matrix(1,0,0,1,69.01467,-11.679026)">
        <g transform="matrix(30,0,0,30,1231.877604,554.299242)">
        </g>
        <text x="1215.706px" y="554.299px" style="font-family:'SegoeUI', 'Segoe UI', sans-serif;font-size:30px;">3</text>
    </g>
    <g transform="matrix(1,0,0,1,53.411388,74.183612)">
        <g transform="matrix(30,0,0,30,1231.877604,554.299242)">
        </g>
        <text x="1215.706px" y="554.299px" style="font-family:'SegoeUI', 'Segoe UI', sans-serif;font-size:30px;">4</text>
    </g>
    <g transform="matrix(1,0,0,1,37.116629,45.234534)">
        <g transform="matrix(30,0,0,30,1231.877604,554.299242)">
        </g>
        <text x="1215.706px" y="554.299px" style="font-family:'SegoeUI', 'Segoe UI', sans-serif;font-size:30px;">5</text>
    </g>
    <g transform="matrix(1.035094,-0.5685,0.029057,2.125028,-56.275584,35.995303)">
        <path d="M1313.465,613.902L1307.581,631.467" style="fill:none;stroke:black;stroke-width:1.88px;stroke-linecap:round;stroke-linejoin:round;stroke-miterlimit:1.5;"/>
    </g>
    <g transform="matrix(1.035094,-0.5685,0.029057,2.125028,-81.772539,41.225448)">
        <path d="M1310.99,589.551L1312.536,634.946" style="fill:none;stroke:black;stroke-width:1.88px;stroke-linecap:round;stroke-linejoin:round;stroke-miterlimit:1.5;"/>
    </g>
    <g transform="matrix(1.00575,-0.116151,0.139884,0.533022,-136.387057,471.548397)">
        <path d="M1323.084,592.732L1312.536,634.946" style="fill:none;stroke:black;stroke-width:2.9px;stroke-linecap:round;stroke-linejoin:round;stroke-miterlimit:1.5;"/>
    </g>
    <g transform="matrix(0.4597,-0.101511,0.074817,1.134727,609.636169,70.282182)">
        <path d="M1319.162,591.878L1312.536,634.946" style="fill:none;stroke:black;stroke-width:3.04px;stroke-linecap:round;stroke-linejoin:round;stroke-miterlimit:1.5;"/>
    </g>
    <g transform="matrix(1,0,0,1,19.973921,73.733612)">
        <g transform="matrix(30,0,0,30,1232.463542,554.299242)">
        </g>
        <text x="1216.292px" y="554.299px" style="font-family:'SegoeUI', 'Segoe UI', sans-serif;font-size:30px;">6</text>
    </g>
    <g transform="matrix(1,0,0,1,19.973921,73.733612)">
        <g transform="matrix(30,0,0,30,1231.877604,554.299242)">
        </g>
        <text x="1215.706px" y="554.299px" style="font-family:'SegoeUI', 'Segoe UI', sans-serif;font-size:30px;">6</text>
    </g>
    <g transform="matrix(1,0,0,1,-5.214037,73.733612)">
        <g transform="matrix(30,0,0,30,1231.877604,554.299242)">
        </g>
        <text x="1215.706px" y="554.299px" style="font-family:'SegoeUI', 'Segoe UI', sans-serif;font-size:30px;">7</text>
    </g>
    <g transform="matrix(1,0,0,1,-101.264179,54.188214)">
        <g transform="matrix(30,0,0,30,1231.877604,554.299242)">
        </g>
        <text x="1215.706px" y="554.299px" style="font-family:'SegoeUI', 'Segoe UI', sans-serif;font-size:30px;">8</text>
    </g>
    <g transform="matrix(0.458477,-0.444888,0.088706,5.036938,591.854222,-1956.714827)">
        <path d="M1300.226,628.941L1312.536,634.946" style="fill:none;stroke:black;stroke-width:0.76px;stroke-linecap:round;stroke-linejoin:round;stroke-miterlimit:1.5;"/>
    </g>
    <g transform="matrix(0.458477,-0.444888,0.088706,5.036938,557.712395,-1963.277695)">
        <path d="M1319.172,631.917L1312.536,634.946" style="fill:none;stroke:black;stroke-width:0.76px;stroke-linecap:round;stroke-linejoin:round;stroke-miterlimit:1.5;"/>
    </g>
    <g transform="matrix(0.458477,-0.444888,0.088706,5.036938,471.36899,-1985.185723)">
        <path d="M1299.261,630.713L1301.618,635.687" style="fill:none;stroke:black;stroke-width:0.76px;stroke-linecap:round;stroke-linejoin:round;stroke-miterlimit:1.5;"/>
    </g>
    <g transform="matrix(1,0,0,1,-153.462284,12.137523)">
        <g transform="matrix(30,0,0,30,1247.463542,554.299242)">
        </g>
        <text x="1215.12px" y="554.299px" style="font-family:'SegoeUI', 'Segoe UI', sans-serif;font-size:30px;">10</text>
    </g>
    <g transform="matrix(0.458477,-0.444888,0.088706,5.036938,442.251159,-2027.951767)">
        <path d="M1287.446,629.953L1301.618,635.687" style="fill:none;stroke:black;stroke-width:0.76px;stroke-linecap:round;stroke-linejoin:round;stroke-miterlimit:1.5;"/>
    </g>
    <g transform="matrix(1,0,0,1,-209.498237,59.173844)">
        <g transform="matrix(30,0,0,30,1285.69737,554.299242)">
        </g>
        <text x="1214.506px" y="554.299px" style="font-family:'SegoeUI', 'Segoe UI', sans-serif;font-size:30px;">11,12</text>
    </g>
    <g transform="matrix(0.458477,-0.444888,0.088706,5.036938,397.899299,-1979.007839)">
        <path d="M1287.446,629.953L1301.618,635.687" style="fill:none;stroke:black;stroke-width:0.76px;stroke-linecap:round;stroke-linejoin:round;stroke-miterlimit:1.5;"/>
    </g>
    <g transform="matrix(1,0,0,1,-249.33843,22.607523)">
        <g transform="matrix(30,0,0,30,1247.463542,554.299242)">
        </g>
        <text x="1215.12px" y="554.299px" style="font-family:'SegoeUI', 'Segoe UI', sans-serif;font-size:30px;">13</text>
    </g>
    <g transform="matrix(0.458477,-0.444888,0.088706,5.036938,315.663535,-2016.944374)">
        <path d="M1331.003,633.315L1301.618,635.687" style="fill:none;stroke:black;stroke-width:0.76px;stroke-linecap:round;stroke-linejoin:round;stroke-miterlimit:1.5;"/>
    </g>
    <g transform="matrix(1,0,0,1,-394.842139,60.263184)">
        <g transform="matrix(30,0,0,30,1247.463542,554.299242)">
        </g>
        <text x="1215.12px" y="554.299px" style="font-family:'SegoeUI', 'Segoe UI', sans-serif;font-size:30px;">14</text>
    </g>
    <g transform="matrix(0.458477,-0.444888,0.088706,5.036938,170.159827,-1979.288713)">
        <path d="M1331.003,633.315L1301.618,635.687" style="fill:none;stroke:black;stroke-width:0.76px;stroke-linecap:round;stroke-linejoin:round;stroke-miterlimit:1.5;"/>
    </g>
    <g transform="matrix(1,0,0,1,-431.826359,70.327506)">
        <g transform="matrix(30,0,0,30,1247.463542,554.299242)">
        </g>
        <text x="1215.12px" y="554.299px" style="font-family:'SegoeUI', 'Segoe UI', sans-serif;font-size:30px;">15</text>
    </g>
    <g transform="matrix(0.458477,-0.444888,0.088706,5.036938,133.175607,-1969.224391)">
        <path d="M1331.003,633.315L1301.618,635.687" style="fill:none;stroke:black;stroke-width:0.76px;stroke-linecap:round;stroke-linejoin:round;stroke-miterlimit:1.5;"/>
    </g>
    <g transform="matrix(1,0,0,1,-518.447295,65.88276)">
        <g transform="matrix(30,0,0,30,1247.463542,554.299242)">
        </g>
        <text x="1215.12px" y="554.299px" style="font-family:'SegoeUI', 'Segoe UI', sans-serif;font-size:30px;">16</text>
    </g>
    <g transform="matrix(0.458477,-0.444888,0.088706,5.036938,46.55467,-1973.669137)">
        <path d="M1331.003,633.315L1343.361,639.374" style="fill:none;stroke:black;stroke-width:0.76px;stroke-linecap:round;stroke-linejoin:round;stroke-miterlimit:1.5;"/>
    </g>
    <g transform="matrix(1,0,0,1,-539.850302,9.37567)">
        <g transform="matrix(30,0,0,30,1247.463542,554.299242)">
        </g>
        <text x="1215.12px" y="554.299px" style="font-family:'SegoeUI', 'Segoe UI', sans-serif;font-size:30px;">17</text>
    </g>
    <g transform="matrix(0.458477,-0.444888,0.088706,5.036938,11.250296,-1999.456837)">
        <path d="M1363.977,630.263L1330.752,645.27" style="fill:none;stroke:black;stroke-width:0.76px;stroke-linecap:round;stroke-linejoin:round;stroke-miterlimit:1.5;"/>
    </g>
    <g transform="matrix(1,0,0,1,-635.376248,49.019789)">
        <g transform="matrix(30,0,0,30,1247.463542,554.299242)">
        </g>
        <text x="1215.12px" y="554.299px" style="font-family:'SegoeUI', 'Segoe UI', sans-serif;font-size:30px;">18</text>
    </g>
    <g transform="matrix(0.458477,-0.444888,0.088706,5.036938,-70.374282,-1990.532108)">
        <path d="M1331.003,633.315L1343.361,639.374" style="fill:none;stroke:black;stroke-width:0.76px;stroke-linecap:round;stroke-linejoin:round;stroke-miterlimit:1.5;"/>
    </g>
    <g transform="matrix(1,0,0,1,-696.712988,68.66237)">
        <g transform="matrix(30,0,0,30,1247.463542,554.299242)">
        </g>
        <text x="1215.12px" y="554.299px" style="font-family:'SegoeUI', 'Segoe UI', sans-serif;font-size:30px;">19</text>
    </g>
    <g transform="matrix(0.458477,-0.444888,0.088706,5.036938,-131.711022,-1970.889526)">
        <path d="M1331.003,633.315L1343.361,639.374" style="fill:none;stroke:black;stroke-width:0.76px;stroke-linecap:round;stroke-linejoin:round;stroke-miterlimit:1.5;"/>
    </g>
    <g transform="matrix(1,0,0,1,-822.085278,76.748135)">
        <g transform="matrix(30,0,0,30,1247.463542,554.299242)">
        </g>
        <text x="1215.12px" y="554.299px" style="font-family:'SegoeUI', 'Segoe UI', sans-serif;font-size:30px;">22</text>
    </g>
    <g transform="matrix(0.458477,-0.444888,0.088706,5.036938,-246.601593,-1973.48383)">
        <path d="M1330.622,635.284L1343.361,639.374" style="fill:none;stroke:black;stroke-width:0.76px;stroke-linecap:round;stroke-linejoin:round;stroke-miterlimit:1.5;"/>
    </g>
    <g transform="matrix(1,0,0,1,-886.463572,-47.413094)">
        <g transform="matrix(30,0,0,30,1247.463542,554.299242)">
        </g>
        <text x="1215.12px" y="554.299px" style="font-family:'SegoeUI', 'Segoe UI', sans-serif;font-size:30px;">23</text>
    </g>
    <g transform="matrix(0.467078,-0.434686,-0.663815,4.144206,151.810755,-1536.15633)">
        <path d="M1328.303,633.452L1370.359,641.884" style="fill:none;stroke:black;stroke-width:0.95px;stroke-linecap:round;stroke-linejoin:round;stroke-miterlimit:1.5;"/>
    </g>
    <g transform="matrix(1,0,0,1,-1013.839217,74.297094)">
        <g transform="matrix(30,0,0,30,1247.463542,554.299242)">
        </g>
        <text x="1215.12px" y="554.299px" style="font-family:'SegoeUI', 'Segoe UI', sans-serif;font-size:30px;">24</text>
    </g>
    <g transform="matrix(0.467078,-0.434686,-0.663815,4.144206,8.978354,-1406.640057)">
        <path d="M1343.976,632.968L1370.359,641.884" style="fill:none;stroke:black;stroke-width:0.95px;stroke-linecap:round;stroke-linejoin:round;stroke-miterlimit:1.5;"/>
    </g>
    <g transform="matrix(1,0,0,1,-1156.416843,-8.698131)">
        <g transform="matrix(30,0,0,30,1266.88737,554.299242)">
        </g>
        <text x="1195.696px" y="554.299px" style="font-family:'SegoeUI', 'Segoe UI', sans-serif;font-size:30px;">29,30</text>
    </g>
    <g transform="matrix(0.467078,-0.434686,-0.663815,4.144206,-128.855121,-1419.379972)">
        <path d="M1306.402,613.226L1370.359,641.884" style="fill:none;stroke:black;stroke-width:0.95px;stroke-linecap:round;stroke-linejoin:round;stroke-miterlimit:1.5;"/>
    </g>
    <g transform="matrix(1,0,0,1,-1045.873644,49.45861)">
        <g transform="matrix(30,0,0,30,1247.463542,554.299242)">
        </g>
        <text x="1215.12px" y="554.299px" style="font-family:'SegoeUI', 'Segoe UI', sans-serif;font-size:30px;">25</text>
    </g>
    <g transform="matrix(0.393953,-0.725599,0.252861,7.791021,-505.005049,-3348.817707)">
        <path d="M1343.976,632.968L1370.359,641.884" style="fill:none;stroke:black;stroke-width:0.5px;stroke-linecap:round;stroke-linejoin:round;stroke-miterlimit:1.5;"/>
    </g>
    <g transform="matrix(1,0,0,1,-1083.568005,94.20014)">
        <g transform="matrix(30,0,0,30,1247.463542,554.299242)">
        </g>
        <text x="1215.12px" y="554.299px" style="font-family:'SegoeUI', 'Segoe UI', sans-serif;font-size:30px;">26</text>
    </g>
    <g transform="matrix(0.393953,-0.725599,0.252861,7.791021,-564.475895,-3348.817707)">
        <path d="M1352.817,637.79L1306.635,635.949" style="fill:none;stroke:black;stroke-width:0.5px;stroke-linecap:round;stroke-linejoin:round;stroke-miterlimit:1.5;"/>
    </g>
    <g transform="matrix(1,0,0,1,-1109.093206,62.463731)">
        <g transform="matrix(30,0,0,30,1247.463542,554.299242)">
        </g>
        <text x="1215.12px" y="554.299px" style="font-family:'SegoeUI', 'Segoe UI', sans-serif;font-size:30px;">27</text>
    </g>
    <g transform="matrix(0.393953,-0.725599,0.252861,7.791021,-585.930145,-3376.031058)">
        <path d="M1370.367,640.667L1326.341,641.277" style="fill:none;stroke:black;stroke-width:0.5px;stroke-linecap:round;stroke-linejoin:round;stroke-miterlimit:1.5;"/>
    </g>
    <g transform="matrix(1,0,0,1,-1114.282549,17.791869)">
        <g transform="matrix(30,0,0,30,1247.463542,554.299242)">
        </g>
        <text x="1215.12px" y="554.299px" style="font-family:'SegoeUI', 'Segoe UI', sans-serif;font-size:30px;">28</text>
    </g>
    <g transform="matrix(0.393953,-0.725599,0.252861,7.791021,-591.119487,-3420.70292)">
        <path d="M1370.367,640.667L1323.384,642.398" style="fill:none;stroke:black;stroke-width:0.5px;stroke-linecap:round;stroke-linejoin:round;stroke-miterlimit:1.5;"/>
    </g>
    <g transform="matrix(1,0,0,1,-1169.342865,66.411659)">
        <g transform="matrix(30,0,0,30,1247.463542,554.299242)">
        </g>
        <text x="1215.12px" y="554.299px" style="font-family:'SegoeUI', 'Segoe UI', sans-serif;font-size:30px;">31</text>
    </g>
    <g transform="matrix(0.270502,-0.498221,0.127995,3.943717,-390.881685,-1218.419421)">
        <path d="M1370.367,640.667L1323.384,642.398" style="fill:rgb(235,235,235);stroke:black;stroke-width:1.02px;stroke-linecap:round;stroke-linejoin:round;stroke-miterlimit:1.5;"/>
    </g>
    <g transform="matrix(1,0,0,1,-1205.282518,66.411659)">
        <g transform="matrix(30,0,0,30,1247.463542,554.299242)">
        </g>
        <text x="1215.12px" y="554.299px" style="font-family:'SegoeUI', 'Segoe UI', sans-serif;font-size:30px;">32</text>
    </g>
    <g transform="matrix(0.270502,-0.498221,0.127995,3.943717,-422.034431,-1241.637034)">
        <path d="M1349.284,643.891L1362.86,652.601" style="fill:none;stroke:black;stroke-width:1.02px;stroke-linecap:round;stroke-linejoin:round;stroke-miterlimit:1.5;"/>
    </g>
    <g transform="matrix(1,0,0,1,-762.648894,47.72237)">
        <g transform="matrix(30,0,0,30,1247.463542,554.299242)">
        </g>
        <text x="1215.12px" y="554.299px" style="font-family:'SegoeUI', 'Segoe UI', sans-serif;font-size:30px;">20</text>
    </g>
    <g transform="matrix(0.458477,-0.444888,0.088706,5.036938,-207.687045,-1968.906967)">
        <path d="M1337.434,629.321L1343.361,639.374" style="fill:none;stroke:black;stroke-width:0.76px;stroke-linecap:round;stroke-linejoin:round;stroke-miterlimit:1.5;"/>
    </g>
    <g transform="matrix(1,0,0,1,-798.90762,21.909934)">
        <g transform="matrix(30,0,0,30,1247.463542,554.299242)">
        </g>
        <text x="1215.12px" y="554.299px" style="font-family:'SegoeUI', 'Segoe UI', sans-serif;font-size:30px;">21</text>
    </g>
    <g transform="matrix(0.438556,-0.709848,0.33352,8.29302,-355.057708,-3696.678868)">
        <path d="M1321.062,628.854L1343.361,639.374" style="fill:none;stroke:black;stroke-width:0.46px;stroke-linecap:round;stroke-linejoin:round;stroke-miterlimit:1.5;"/>
    </g>
    <g transform="matrix(1,0,0,1,-89.258179,-177.362576)">
        <g transform="matrix(30,0,0,30,1231.877604,554.299242)">
        </g>
        <text x="1215.706px" y="554.299px" style="font-family:'SegoeUI', 'Segoe UI', sans-serif;font-size:30px;">9</text>
    </g>
    <g transform="matrix(0.458477,-0.444888,0.088706,5.036938,477.17399,-2218.380448)">
        <path d="M1299.261,630.713L1272.26,634.922" style="fill:none;stroke:black;stroke-width:0.76px;stroke-linecap:round;stroke-linejoin:round;stroke-miterlimit:1.5;"/>
    </g>
    <g transform="matrix(1,0,0,1,-180.79622,380.335471)">
        <text x="790.608px" y="343.158px" style="font-family:'SegoeUI', 'Segoe UI', sans-serif;font-size:11.66px;">1</text>
        <g transform="matrix(20,0,0,20,1001.014521,349.818175)">
        </g>
        <text x="796.893px" y="349.818px" style="font-family:'SegoeUI', 'Segoe UI', sans-serif;font-size:20px;">H Chemical Shif<tspan x="935.946px 942.724px " y="349.818px 349.818px ">t </tspan>(ppm)</text>
    </g>
    <g transform="matrix(0,1,-1,0,1746.963998,-461.972541)">
        <g transform="matrix(20,0,0,20,865.432177,349.818175)">
        </g>
        <text x="790.608px" y="349.818px" style="font-family:'SegoeUI', 'Segoe UI', sans-serif;font-size:20px;">Int<tspan x="813.87px 824.329px " y="349.818px 349.818px ">en</tspan>sity</text>
    </g>
</svg>
