<?xml version="1.0" encoding="UTF-8" standalone="no"?>
<!DOCTYPE svg PUBLIC "-//W3C//DTD SVG 1.1//EN" "http://www.w3.org/Graphics/SVG/1.1/DTD/svg11.dtd">
<svg width="100%" height="100%" viewBox="0 0 5463 3058" version="1.1" xmlns="http://www.w3.org/2000/svg" xmlns:xlink="http://www.w3.org/1999/xlink" xml:space="preserve" xmlns:serif="http://www.serif.com/" style="fill-rule:evenodd;clip-rule:evenodd;stroke-linecap:square;stroke-miterlimit:10;">
    <g id="a">
        <g transform="matrix(4.166667,0,0,4.166667,0,-85.03937)">
            <path d="M-5.774,673.692L-0.774,673.692L-0.063,674.034L0.432,674.043L0.767,673.626L1.081,673.683L1.75,674.125L2.399,673.598L3.007,674.069L4.094,674.173L4.463,673.752L5.105,673.524L5.447,674.14L6.172,673.598L6.332,674.083L7.065,673.681L7.539,674.031L10.866,673.751L11.5,672.532L12.002,674.207L12.007,674.203L12.142,673.716L13.634,673.651L14.007,674.031L14.011,674.034L14.959,673.709L15.524,674.143L16.007,673.735L17.261,673.586L18.3,673.396L18.893,673.922L27.262,674.113L28.007,672.257L28.008,672.256L28.371,673.945L30.038,674.063L30.282,673.641L31.119,674.024L31.537,673.527L32.172,673.434L32.681,674.016L36.056,674.205L36.984,673.697L37.074,674.001L37.953,673.397L38.03,673.526L38.469,672.26L39.341,673.147L39.941,673.73L40.492,673.325L40.631,673.707L41.007,673.556L41.698,674.07L43.602,674.085L44,673.516L44.049,673.675L45.007,670.943L46.007,544.25L46.134,400.662L47.007,670.656L48.007,673.247L49.007,673.932L50.688,673.673L50.834,674.267L51.007,673.986L51.497,673.547L52.362,673.609L52.592,674.056L53.017,673.698L53.694,673.027L55.144,672.89L55.946,673.423L56.149,673.098L56.874,673.666L57.062,673.261L57.899,674.085L58.527,673.778L58.904,674.315L59.427,673.797L59.873,674.306L60.277,673.841L61.142,674.1L61.958,673.522L62.488,673.518L62.969,674.004L64.692,674.18L64.999,673.619L65.187,672.569L65.682,674.212L66.352,674.152L66.589,673.692L67.091,673.704L67.942,674.155L68.007,674.028L68.319,673.714L71.059,673.472L71.903,674.075L73.626,674.093L74.007,673.348L74.17,673.568L74.742,672.811L75.014,672.878L75.725,673.608L76.534,673.12L76.994,673.703L78.055,673.603L78.884,672.847L79.101,673.086L80.007,672.045L80.161,671.697L81.007,672.249L81.409,672.638L81.876,671.694L82.037,671.548L83.007,672.669L83.606,672.322L83.99,672.897L84.066,672.764L84.826,673.672L85.126,673.774L85.51,673.158L86.007,673.655L86.751,674.24L87.253,673.765L87.986,674.372L88.055,674.381L88.809,673.933L89.032,673.984L89.15,674.315L90.071,674.176L90.803,673.815L91.145,674.123L92.08,674.034L92.547,673.603L94.493,673.817L95.811,674.105L96.006,673.639L96.306,674.169L96.655,673.592L97.073,673.94L97.715,673.49L98.635,673.446L98.942,674.008L99.472,674.169L100.007,673.589L100.009,673.586L100.86,674.301L101.09,674.153L101.948,672.778L102.066,672.719L102.771,673.227L103.008,672.974L103.838,670.888L104.298,671.137L104.961,670.477L105.017,670.602L105.909,669.331L106.007,669.394L106.523,668.933L107.007,669.31L107.988,670.539L108.015,670.51L108.887,671.017L109.007,670.761L109.989,672.52L110.094,672.403L111.007,672.865L111.886,674.113L112.116,673.966L112.758,673.091L113.253,673.296L114.007,671.647L114.222,671.757L114.766,670.31L115.08,670.432L115.973,669.392L116.37,669.136L117.007,669.929L118.007,671.416L118.958,672.754L119.014,672.605L119.955,673.258L120.039,673.11L120.66,673.756L121.183,673.25L121.95,674.108L122.11,673.789L122.591,674.152L124.467,674.343L125.007,673.71L125.018,673.691L125.276,674.04L126.007,673.967L127.007,672.922L127.48,672.785L128.007,673.282L128.045,673.237L128.652,673.718L129.182,673.488L129.51,674.037L130.27,673.647L130.974,674.092L131.1,674.161L131.748,673.413L132.048,673.583L132.516,673.989L133.178,673.899L133.68,673.324L134.007,673.517L134.496,674.147L135.584,673.399L135.884,674.06L136.142,674.086L136.616,673.67L137.46,673.597L137.962,674.1L138.067,674.171L138.513,673.799L144.023,673.7L144.811,674.177L145.181,673.612L145.766,673.974L146.443,673.606L146.994,674.071L147.106,674.226L147.615,673.73L148.256,673.695L148.633,674.141L149.288,673.77L149.463,674.228L150.237,674.14L150.572,673.765L151.381,674.077L151.736,673.737L152.343,673.577L153.215,673.188L153.968,673.818L154.108,673.873L154.924,672.748L155.007,672.944L156.005,673.925L156.081,673.965L156.8,673.542L157.072,673.703L157.902,674.113L158.69,674.195L158.906,673.775L159.254,673.86L159.45,674.192L160.356,674.067L160.977,673.685L161.221,673.729L162.007,674.041L162.156,674.118L162.665,673.684L163.606,674.079L163.871,673.647L164.652,673.684L164.973,674.071L165.007,673.919L165.329,673.317L166.007,673.582L166.898,674.183L167.338,674.024L167.742,673.619L168.119,674.058L168.544,673.624L169.137,674.179L170.007,673.555L170.03,673.504L170.957,674.012L171.02,674.018L171.278,673.596L173.426,673.793L173.837,674.09L174.054,673.705L174.605,674.213L175.007,673.98L175.448,673.412L176.146,673.604L176.362,674.195L177.007,673.838L177.534,673.303L178.085,673.483L178.873,674.075L179.34,674.1L179.473,673.731L180.393,673.701L180.819,674.098L181.697,674.021L181.92,673.733L182.485,673.729L182.974,674.043L183.441,674.092L183.755,673.741L184.007,673.974L184.94,672.9L185.007,672.982L185.84,673.943L186.356,672.892L187.007,673.922L188.762,673.801L188.888,674.263L189.25,674.271L189.864,673.934L190.094,674.273L191.007,673.919L200.186,674.087L200.988,673.503L201.03,673.629L201.274,672.967L202.02,673.298L202.648,671.456L203.115,673.31L203.561,672.382L204.133,671.928L204.726,673.589L205.019,673.051L206.007,674.017L206.051,674.188L206.993,673.578L207.007,673.611L207.153,674.067L208.206,674.018L209.007,672.972L209.071,672.63L209.608,673.561L210.514,672.088L210.877,673.089L211.086,673.294L211.756,672.608L212.377,673.382L212.99,672.013L213.095,671.897L213.862,673.493L214.015,673.337L214.692,672.484L215.007,673.298L215.501,674.139L216.073,674.054L217.007,672.03L217.168,671.851L217.872,673.532L218.007,673.431L218.611,671.399L219.007,672.844L219.372,673.518L220.055,673.31L220.515,673.938L221.255,673.369L222.007,674.083L222.733,673.786L223.242,673.651L223.584,674.024L224.386,674.012L224.986,673.313L225.16,673.239L225.865,673.893L226.513,673.531L227.007,674.047L227.218,673.757L228.375,673.666L228.794,674.003L229.115,674.03L229.833,673.687L230.056,673.787L230.649,674.243L231.007,674.124L231.562,673.163L232.33,674.318L232.964,673.637L233.313,672.904L233.878,674.041L234.045,674.021L234.624,673.394L235.189,674.216L236.007,673.418L236.584,673.735L236.779,672.958L237.274,673.771L237.86,672.452L238.411,673.836L238.906,672.91L239.471,672.288L239.917,673.8L240.099,673.552L240.51,674.174L241.494,673.982L241.842,673.448L242.052,673.427L242.324,674.036L245.302,674.015L245.532,673.666L246.187,673.995L246.829,673.547L247.54,673.429L247.917,674.23L248.007,674.168L248.217,673.776L249.186,673.879L249.772,674.274L250.114,674.199L251.007,673.528L251.543,672.794L251.962,673.693L252.457,673.369L252.945,673.929L255.749,673.793L255.881,674.241L256.453,674.246L256.962,673.727L257.987,673.53L258.413,673.185L258.741,673.784L259.968,674.076L260.352,674.209L260.938,673.768L261.837,674.036L262.535,674.071L262.779,673.634L263.007,673.748L263.072,674.062L264.327,673.952L264.99,673.677L265.007,673.696L265.617,674.184L266.077,674.098L266.552,673.56L267.068,673.838L267.898,674.285L268.721,674.164L269.007,673.817L271.245,673.612L271.985,674.166L272.007,674.1L272.389,673.754L273.386,673.692L273.951,674.089L274.935,674.032L275.007,673.683L275.081,673.606L275.416,674.035L276.441,673.629L276.957,674.1L277.682,673.551L277.961,674.218L278.007,674.049L278.805,673.721L280.96,674.012L281.407,674.043L281.965,673.589L282.02,673.665L282.774,671.586L283.007,672.765L283.422,673.444L284.357,672.008L284.887,673.93L285.249,673.623L285.842,674.123L286.205,674.146L286.958,673.699L287.139,673.822L287.558,674.189L288.29,674.021L288.444,673.693L289.678,674.024L289.838,673.663L290.11,674.046L290.445,673.559L291.122,673.976L291.735,673.616L292.342,674.034L292.991,673.582L293.695,673.535L294.007,673.988L297.007,674.158L297.377,674.288L297.991,673.881L302.796,673.937L302.985,673.495L303.494,673.893L303.626,673.512L304.31,674.195L304.526,673.716L305.244,674.087L305.579,673.72L306.046,674.142L306.716,673.489L307.218,673.632L307.874,674.122L308.599,674.315L308.864,673.708L310.007,673.801L310.112,674.101L311.402,674.028L311.793,673.545L312.163,674.006L312.567,673.667L313.23,674.065L313.634,673.76L314.164,673.749L314.827,674.081L315.81,674.12L316.201,673.726L316.403,674.119L317.1,673.54L317.658,673.932L325.699,674.066L325.804,673.629L326.432,673.682L326.913,674.123L327.31,674.018L327.631,673.481L328.371,674.058L328.852,673.581L329.207,673.717L329.514,674.049L330.435,673.719L330.993,674.096L331.042,674.085L331.516,673.676L332.311,673.642L332.548,674.034L333.113,673.91L333.782,673.679L334.229,674.11L334.543,673.597L335.568,673.731L335.986,674.068L336.719,673.696L336.928,674.073L337.744,674.044L337.932,673.648L338.232,674.096L338.846,673.616L339.648,674.05L339.934,673.733L340.457,673.682L341.007,674.075L341.057,674.117L341.28,673.702L342.089,674.016L342.34,673.637L343.163,674.16L343.832,673.74L344.383,673.732L344.634,674.148L345.074,674.125L345.806,673.822L347.703,673.987L348.177,674.128L348.31,673.693L349.314,673.628L349.725,674.032L350.381,673.989L350.611,673.633L351.106,674.134L351.601,673.682L352.564,674.124L352.717,673.739L353.401,673.641L353.617,674.127L354.119,673.695L354.754,674.063L355.326,674.081L355.946,673.539L356.455,673.728L356.895,674.031L357.278,673.641L357.871,674.133L358.562,674.062L358.799,673.716L359.217,673.695L359.399,674.151L360.096,674.007L360.326,673.627L361.386,674.021L361.728,673.697L362.056,674.044L362.565,673.686L363.22,674.165L363.834,673.801L364.225,673.748L364.748,674.107L366.045,674.016L366.972,673.69L367.489,674.015L367.726,673.69L368.646,673.704L368.751,674.137L369.644,673.678L369.936,674.012L370.257,674.12L370.864,673.656L371.603,673.614L371.917,673.984L373.744,673.724L374.288,673.575L374.839,674.081L375.697,673.991L375.781,673.602L376.388,673.616L376.883,674.042L377.007,673.717L377.887,674.056L378.103,673.572L378.298,674.065L379.198,673.73L379.735,674.122L380.126,674.105L380.467,673.671L381.007,674.043L381.758,673.517L382.155,673.665L382.574,674.071L383.383,674.12L383.564,673.77L385.161,673.658L385.593,674.153L386.04,674.094L386.633,673.728L387.184,674.129L387.986,673.74L389.108,673.645L390.007,674.084L390.015,674.093L391.007,673.256L391.152,671.964L391.507,674.057L392.093,673.674L392.93,674.067L393.07,673.755L393.516,674.111L394.499,673.752L394.876,674.189L395.092,673.97L395.601,673.553L396.229,673.923L396.557,673.293L397.059,673.712L397.233,674.109L398.314,674.234L398.677,673.74L399.04,673.996L399.737,673.396L400.685,673.977L401.007,673.966L401.655,673.349L402.276,674.139L403.007,673.517L403.092,673.342L403.58,674.136L404.026,673.623L404.961,672.591L405.023,672.648L405.972,673.812L406.007,673.696L406.795,672.603L407.007,672.861L408.001,673.974L410.331,674.05L410.659,673.412L411.147,673.839L411.753,674.21L412.158,673.895L414.118,673.91L414.941,673.266L415.241,673.255L415.833,673.576L416.015,673.41L416.803,673.876L417.249,673.491L417.688,673.907L418.463,673.982L418.867,673.601L419.474,673.616L419.627,674.06L420.45,673.712L420.89,674.204L421.217,674.126L421.998,673.345L422.152,673.3L422.696,674.145L423.247,674.227L423.805,673.617L424.67,674.099L424.997,673.716L425.088,674.111L425.918,673.546L426.007,673.637L426.253,674.041L427.013,674.029L427.424,673.198L428.108,673.733L428.512,674.177L429.196,674.237L429.565,673.864L430.075,673.892L430.416,674.178L431.386,674.051L431.937,673.558L432.536,673.912L432.669,673.529L433.366,674.075L433.638,673.589L434.217,673.892L434.524,673.43L435.542,673.869L435.779,673.56L436.526,673.397L436.832,674.006L437.523,674.105L437.655,673.646L438.144,674.075L438.541,673.756L439.266,674.099L439.531,673.787L441.254,673.724L441.505,674.127L442.335,674.145L442.851,673.682L444.518,673.627L444.846,674.016L445.104,673.705L445.641,673.983L446.317,674.08L446.652,673.721L450.139,673.741L450.885,673.334L452.169,673.327L452.915,672.939L453.291,672.948L453.968,673.435L454.54,673.076L454.916,673.405L455.147,672.738L455.705,673.394L456.007,672.879L456.799,673.459L462.386,673.479L462.588,673.938L463.237,673.942L463.774,673.521L464.464,673.833L464.61,673.381L465.134,673.778L465.943,673.251L466.007,673.269L466.766,671.754L467.233,673.311L467.791,672.858L468.063,672.943L468.872,673.384L469.179,673.166L469.604,673.787L470.183,673.45L470.811,674.074L471.152,674.065L471.647,673.568L472.094,673.704L473.007,674.15L473.021,674.176L473.37,673.637L474.339,673.731L474.709,674.184L475.183,673.765L475.671,674.099L478.175,674.249L478.775,673.709L479.131,673.675L479.842,674.035L480.254,673.969L480.811,673.408L481.774,673.904L482.007,673.531L482.074,673.488L482.409,673.969L483.064,673.968L483.51,673.43L484.389,673.594L484.815,673.997L485.442,673.661L485.819,674.051L486.433,674.213L486.914,673.672L487.172,673.934L487.855,673.131L488.007,673.247L488.894,672.249L489.362,672.218L490.003,673.068L490.199,673.076L490.464,672.627L491.007,672.711L492.007,671.166L492.117,671.33L493.002,670.739L493.007,670.742L493.769,672.05L494.181,671.08L495.004,673.314L495.694,673.812L496.007,672.948L496.022,672.947L496.392,673.888L497.27,674.113L497.877,670.834L498.609,670.497L498.986,673.454L499.007,673.445L499.46,674.169L500.06,673.662L501.211,673.691L501.804,674.082L502.543,674.142L502.961,673.496L503.073,673.576L503.589,672.555L504.356,672.646L504.67,673.483L505.109,673.423L505.716,672.207L506.009,672.359L506.951,673.349L507.007,673.232L507.732,673.962L508.345,674.144L509.001,673.498L509.007,673.501L509.761,674.068L510.007,673.804L510.954,669.605L511.295,671.72L511.686,668.994L512.369,671.53L512.906,669.454L513.018,669.543L514.007,673.077L514.789,673.912L515.068,674.059L516.003,673.548L516.212,673.495L516.338,673.992L517.007,673.945L517.454,674.334L518.374,673.987L518.967,674.496L519.03,674.487L519.755,672.927L520.104,673.895L520.976,672.019L521.024,672.075L521.324,673.417L522.007,673.373L522.308,673.883L523.535,673.425L523.877,673.812L524.114,673.878L524.672,673.07L525.007,673.158L525.83,672.547L526.332,672.598L527.007,672.987L527.217,673.291L527.915,671.412L528.466,671.131L528.787,672.852L529.617,672.369L530.007,668.648L530.405,666.271L530.83,671.312L531.451,670.332L531.932,637.816L532.664,638.16L533.007,670.694L534.007,674.077L534.017,674.089L535.007,669.86L535.391,641.095L536.319,646.972L537.007,552.196L537.135,507.184L537.49,598.085L538.007,597.209L539.007,668.73L539.436,665.623L539.945,671.296L540.252,670.352L540.873,672.606L541.514,672.021L541.982,673.826L542.007,673.785L542.268,672.529L543.007,673.27L543.976,672.132L544.007,672.215L544.451,673.521L545.608,672.649L546.007,673.658L546.055,673.595L546.396,674.184L547.007,674.042L547.24,673.049L548.405,672.811L548.788,674.107L549.007,673.71L549.325,672.886L550.288,673.411L551.007,672.225L552.007,665.336L552.366,663.816L552.938,665.832L553.252,665.73L554.005,667.108L554.389,666.751L555.007,668.527L555.693,669.502L556.062,669.271L557.007,670.329L557.123,670.278L557.973,672.475L558.008,672.391L558.741,673.981L559.124,673.846L559.661,670.254L560.331,670.06L560.93,673.945L561.147,674.004L562.007,673.177L562.025,673.159L562.59,673.961L563.007,673.354L563.964,671.994L564.229,671.717L564.878,672.655L565.282,672.887L565.889,671.841L566.335,671.984L566.893,671.394L567.007,671.543L568.007,668.646L568.721,666.667L569.007,667.79L570.004,671.035L570.318,670.469L571.007,671.933L572.007,673.429L572.793,674.186L573.156,673.879L573.826,673.156L574.181,673.954L575.007,671.946L575.618,671.227L576.071,671.595L576.546,672.956L577.007,672.061L578.007,669.437L578.931,668.619L579.007,668.624L580.007,666.468L581.007,664.558L581.365,663.878L581.951,665.07L582.501,664.517L582.913,665.5L583.007,665.341L583.98,661.167L584.733,661.183L585.007,662.917L585.445,662.475L585.933,663.193L586.512,663.464L586.986,662.585L587.153,662.769L587.976,660.652L588.025,660.787L588.966,658.593L589.007,658.634L590.007,654.181L590.85,648.506L591.024,648.602L592.007,643.39L592.161,643.641L593.007,642.333L593.179,642.523L593.583,641.202L594.044,641.421L595.007,634.253L596.007,624.977L597.007,601.758L598.007,565.03L599.007,471.008L600.007,-10L612.007,-10L613.007,-9.078L613.655,-10L614.007,22.802L615.007,284.088L616.007,387.234L617.007,543.466L618.007,585.991L619.007,619.532L620.007,646.796L620.894,654.692L621.007,654.225L621.933,609.08L622.463,420.812L622.993,643.927L623.007,643.889L623.984,419.196L624.007,427.426L624.695,660.32L625.169,627.218L625.602,664.038L626.007,660.933L626.752,608.337L627.248,666.398L627.722,646.69L628.273,620.504L628.991,674.033L629.007,674.015L629.947,665.595L630.044,666.059L630.637,638.728L631.007,664.822L632.007,634.269L632.813,398.417L633.007,569.377L633.42,645.247L634.319,392.17L634.94,654.99L635.582,560.774L636.007,661.634L636.258,665.408L637.007,603.386L637.088,566.964L637.827,669.195L638.007,667.753L638.86,608.011L639.348,665.468L640.007,627.963L640.345,597.328L640.854,663.074L641.503,634.697L642.007,666.815L643.007,672.682L643.33,674.07L643.937,670.661L644.244,673.925L645.007,671.106L646.007,666.008L646.726,629.798L647.424,664.363L647.954,641.818L648.226,628.313L649.007,666.562L649.035,666.635L650.007,654.801L650.911,428.037L651.007,505.036L651.49,636.265L652.41,416.201L652.898,630L653.115,617.392L653.861,643.846L654.007,641.482L654.628,615.964L655.109,625.202L655.549,637.66L656.121,637.589L656.574,595.219L657.655,648.758L658.007,621.482L658.059,615.859L658.82,657.334L659.064,646.203L659.887,667.875L660.591,648.74L661.007,669.048L661.191,669.864L661.846,665.449L662.216,660.775L663.007,671.741L663.681,673.925L664.266,674.133L665.007,673.169L666.038,673.082L666.393,672.236L667.349,673.228L667.928,672.284L668.367,671.19L668.932,672.436L669.462,670.713L669.978,672.485L670.404,671.73L670.787,672.453L671.007,671.931L671.492,669.782L672.363,670.77L673.007,671.486L673.096,671.83L673.619,670.757L674.267,672.048L675.007,670.311L675.397,663.453L675.85,671.182L676.171,664.494L676.973,673.642L677.259,673.262L678.007,674.202L678.012,674.203L678.989,672.524L679.086,672.601L679.742,650.285L680.6,671.008L681.007,656.852L681.137,638.319L681.492,667.143L682.05,665.475L682.908,671.05L683.501,671.272L683.982,667.141L684.129,667.683L684.61,651.977L685.51,665.242L685.935,644.834L686.007,647.596L686.946,667.234L687.309,658.226L687.937,667.698L688.048,667.562L689.007,662.014L690.007,658.104L691.005,621.862L691.007,621.87L692.007,654.154L692.268,656.331L693.007,625.226L693.174,614.799L693.607,627.066L694.123,607.616L694.464,634.426L695.036,618.749L695.587,428.466L696.18,433.532L697.007,650.825L698.007,667.649L698.063,667.88L698.9,658.497L699.007,660.04L699.981,673.117L700.044,673.066L701.007,661.089L701.041,660.778L702.007,672.708L702.533,673.988L703.007,672.65L703.594,640.481L704.007,663.686L704.228,642.632L705.058,660.157L705.491,618.483L706.132,631.991L706.397,657.466L707.262,626.846L707.987,658.969L708.552,643.836L708.999,662.759L709.835,658.788L710.007,663.221L710.289,666.994L710.568,662.727L711.063,664.96L711.579,655.215L712.007,659.313L712.304,627.122L713.42,653.132L714.007,634.995L714.187,625.258L714.92,664.344L715.007,663.054L715.812,649.236L716.007,659.868L717.007,672.736L717.507,671.565L717.856,674.002L718.007,672.286L718.741,661.917L719.007,664.616L719.815,652.906L720.157,659.725L721.007,619.04L721.015,618.937L722.007,649.507L722.201,653.687L723.007,640.37L723.247,615.741L724.007,628.96L724.565,650.605L725.007,643.571L725.276,639.295L726.007,641.926L726.769,614.632L727.236,597.546L727.801,633.319L728.007,628.432L729.007,595.966L729.516,520.865L730.007,539.881L730.786,616.695L731.007,611.698L731.895,474.219L732.299,482.132L733.007,588.756L733.178,600.28L734.007,550.796L735.007,371.337L735.214,290.712L736.007,436.788L736.777,574.796L737.007,550.529L737.892,345.541L738.499,344.77L739.007,557.828L739.559,566.266L739.992,541.219L740.445,538.732L740.752,564.858L741.007,554.669L742.007,521.44L742.349,462.602L743.007,540.266L743.353,564.736L744.007,538.409L744.469,489.962L744.964,558.108L745.007,557.522L745.32,514.199L746.171,543.106L746.805,469.925L747.105,534.482L747.956,365.123L748.026,367.362L748.549,190.462L749.191,274.254L749.539,420.717L750.013,300.579L750.913,543.598L751.007,539.341L751.896,241.562L752.007,264.099L752.468,498.233L753.284,343.327L753.891,472.255L754.007,458.547L754.233,387.922L755.586,342.435L755.858,431.718L756.36,426.108L756.869,286.915L757.169,294.206L757.573,408.038L758.417,225.227L758.766,378.017L759.066,227.703L759.345,351.078L760.551,305.769L761.005,88.782L761.007,88.864L762.002,330.096L762.007,330.026L762.448,165.394L763.292,112.561L764.007,354.491L765.007,446.432L765.071,451.343L765.475,291.302L766.751,388.043L767.007,445.732L767.519,471.432L768.132,439.869L768.593,490.533L769.067,449.923L769.729,407.977L770.273,163.589L770.734,488.25L771.487,462.322L771.996,486.983L772.568,505.992L773.007,381.344L773.488,423.003L773.893,332.546L774.235,393.654L774.723,249.444L775.399,119.888L775.964,415.528L776.007,414.822L776.648,23.189L777.268,141.514L777.833,333.09L778.845,133.536L779.007,345.932L779.158,435.282L779.409,338.337L780.351,335.856L780.909,480.511L781.313,491.848L781.571,380.928L782.007,445.661L782.415,517.352L783.468,439.925L783.685,499.464L784.291,527.667L784.94,482.136L785.331,464.812L785.596,505.884L786.265,456.235L786.942,511.064L787.007,507.497L787.744,372.699L788.35,405.254L788.58,510.993L789.271,374.663L789.954,519.699L790.24,417.345L790.952,520.409L791.175,472.114L791.97,542.658L792.542,512.622L793.007,582.584L793.128,587.918L793.909,556.033L794.007,577.322L794.55,614.843L795.269,574.76L796.007,616.982L796.287,635.066L797.152,609.316L797.982,638.866L798.007,638.652L798.47,591.175L799.314,643.275L799.997,570.047L800.007,570.151L800.967,641.389L801.007,640.873L801.364,571.074L802.396,641.745L802.822,597.068L803.198,580.884L804.007,648.041L804.23,651.009L804.719,611.755L805.007,642.9L805.967,662.627L806.755,660.203L807.007,666.148L807.78,668.304L808.007,663.865L808.359,669.577L808.68,663.712L809.105,667.177L809.88,672.835L810.437,671.965L810.807,674.028L811.177,673.982L811.525,670.839L812.474,672.502L813.007,668.264L813.199,665.008L814.007,671.518L814.12,672.15L814.671,657.451L815.007,663.101L815.522,671.058L816.421,658.425L817.007,670.766L817.893,672.928L818.276,666.77L818.618,673.766L819.211,666.142L820.007,673.351L820.055,673.548L820.682,672.17L821.275,672.843L821.75,674.086L822.077,672.738L822.426,673.767L823.075,671.829L823.305,674.189L824.093,672.079L825.007,673.86L825.013,673.865L825.788,658.654L826.007,667.168L826.29,670.369L827.007,669.046L828.007,635.299L828.41,637.103L828.786,617.512L829.007,629.785L830,665.071L830.488,659.995L830.781,665.558L831.007,662.527L831.471,640.208L832.007,648.122L832.664,560.967L833.069,582.601L833.557,635.925L834.352,540.12L835.007,635.086L835.182,645.96L835.935,583.509L836.007,599.443L837.007,661.305L837.623,665.804L838.007,647.639L838.097,643.789L838.836,669.975L839.007,669.038L839.764,657.805L840.217,668.31L840.747,656.137L841.019,656.576L841.856,669.803L842.539,660.239L843,670.348L843.007,670.335L844.007,658.974L844.109,655.286L844.632,670.185L845.008,663.36L846.007,671.571L846.075,671.81L846.766,670.3L847.163,671.189L847.903,641.304L848.007,647.04L848.614,668.277L849.067,654.534L850.007,671.781L851.007,673.33L851.913,674.05L852.01,674.038L852.924,672.322L853.468,673.268L854.007,671.765L855.007,663.709L856.007,652.034L856.174,652.155L856.753,647.309L857.52,643.148L858.007,652.013L859.007,656.965L860.007,668.373L861.007,670.404L861.739,670.067L862.007,672.257L862.834,673.964L863.007,673.925L864.007,671.666L864.857,660.966L865.226,663.071L866.007,650.273L866.021,650.259L866.879,663.08L867.277,662.129L868.007,669.183L869.007,674.063L869.181,674.209L869.564,673.225L870.094,674.075L870.436,673.514L871.147,674.066L871.622,669.227L872.007,672.981L872.772,653.13L873.268,672.943L873.839,670.177L874.007,671.184L874.83,672.913L875.046,672.26L875.332,671.262L876.007,671.652L876.615,672.424L877.34,670.951L877.898,672.912L878.421,672.306L878.938,673.482L879.168,673.104L879.691,673.926L880.179,673.57L880.995,674.272L881.183,674.333L881.915,673.783L882.641,674.136L883.007,673.519L883.122,673.063L883.554,674.158L884.007,673.464L884.322,674.055L885.528,674.193L886.007,673.537L886.316,672.177L887.132,672.064L887.955,673.559L888.206,673.347L888.666,674.067L889.064,673.669L889.671,671.701L890.166,672.159L890.473,672.798L891.007,672.759L891.651,673.961L892.077,673.735L892.739,674.28L893.165,674.379L893.486,673.783L894.26,673.612L894.49,674.084L895.438,672.162L895.975,673.905L896.007,673.817L896.631,672.448L897.161,673.287L898.007,666.296L898.096,665.062L898.946,672.511L899.121,672.087L899.518,673.37L900.383,673.813L900.878,672.785L901.387,672.936L901.987,673.946L902.007,673.922L903.007,672.846L903.012,672.844L903.445,674.07L904.007,673.713L905.007,672.346L905.063,672.2L905.655,674.223L906.36,673.759L906.555,674.239L907.078,674.049L907.664,672.171L908.396,672.22L908.878,674.112L909.157,674.073L910.007,673.168L910.265,673.368L911.007,672.637L911.995,670.068L912.009,670.083L912.985,662.659L913.271,663.051L913.822,660.169L914.007,661.3L914.534,663.356L915.007,662.131L915.301,659.931L916.054,660.666L917.007,667.517L918.007,672.081L918.962,673.526L919.548,672.973L919.869,674.005L920.007,673.916L920.782,661.228L921.007,671.431L921.312,673.077L922.114,671.876L923.007,673.742L923.307,674.07L923.705,673.409L924.374,674.092L925.007,672.143L925.323,672.499L925.943,669.342L926.159,669.522L926.731,666.146L927.331,665.924L927.764,670.16L928.007,669.282L928.949,664.577L929.007,665.084L930.007,670.137L930.895,673.479L931.202,672.811L931.976,673.868L932.185,674.181L932.792,672.458L933.364,674.119L933.873,673.639L934.222,672.978L934.389,673.732L935.072,673.604L935.414,674.072L936.893,673.865L937.43,673.665L937.995,674.256L938.007,674.247L938.566,673.474L939.327,674.095L939.647,673.678L940.547,673.893L941.007,673.355L941.677,673.664L942.007,673.172L942.04,673.081L942.723,673.667L943.469,671.863L944.007,673.891L944.787,673.554L945.004,674.148L945.255,674.222L946.007,673.404L946.475,672.543L946.984,673.781L947.068,673.858L948.007,673.069L948.023,673.051L948.965,673.954L949.007,673.851L949.865,672.518L950.116,672.864L950.841,671.904L951.594,671.113L951.957,673.17L952.02,673.182L952.919,670.245L953.007,671.212L953.491,673.091L954.084,671.737L954.307,673.668L955.088,673.32L955.339,671.161L956.007,672.641L956.427,674.215L957.125,672.232L957.962,673.968L958.359,673.97L959.007,672.529L959.496,673.239L960.007,672.345L960.654,670.939L961.428,672.137L961.958,669.649L962.216,670.51L962.411,668.638L963.007,669.673L963.869,670.746L964.399,671.172L964.622,670.381L965.417,669.665L966.007,671.794L966.059,671.766L967.007,672.825L967.035,672.882L967.53,669.274L968.214,672.955L968.723,667.617L969.267,666.682L969.964,673.879L970.25,673.961L970.55,671.099L971.031,671.02L971.45,674.259L972.161,673.884L973.007,672.939L973.305,673.408L974.002,644.898L974.007,645.07L974.895,673.65L975.118,673.733L975.697,671.002L976.046,670.912L976.638,673.964L977.022,671.013L977.956,674.072L978.117,673.995L978.57,671.117L979.093,673.934L980.007,673.418L980.125,673.586L981.007,672.233L981.039,672.246L981.548,670.55L982.176,671.304L982.943,670.14L983.007,670.273L983.78,669.64L984.017,669.653L984.882,670.448L985.091,670.057L985.767,671.582L986.007,671.26L987.007,672.744L987.316,672.226L987.846,673.553L988.732,672.883L988.99,673.933L989.143,674.143L990.007,672.545L990.064,672.432L990.58,674.153L991.089,673.086L991.591,671.947L992.372,672.941L992.853,672.265L993.007,672.273L993.509,667.974L994.007,671.32L994.534,672.019L995.169,671.648L995.971,659.365L996.584,667.767L996.912,659.351L997.007,662.942L997.331,669.966L998.007,669.361L998.44,657.954L999.381,660.034L999.953,670.726L1000.007,670.715L1000.915,672.686L1001.013,672.526L1001.968,674.074L1002.254,674.099L1003.007,673.305L1003.133,673.141L1003.579,673.92L1004.007,673.593L1004.472,674.046L1005.051,674.115L1005.504,672.177L1006.048,672.246L1006.662,672.962L1007.007,672.307L1008.007,668.162L1009.007,650.896L1009.947,641.891L1010.007,644.202L1011.007,657.86L1011.586,657.398L1011.997,659.646L1012.007,659.641L1012.723,655.315L1013.329,657.822L1014.007,652.352L1015.007,637.501L1015.791,616.278L1016.454,622.838L1017.007,612.476L1018.007,584.999L1019.007,543.295L1019.243,528.354L1020.007,536.209L1020.248,553.345L1021.015,546.569L1022.007,442.047L1022.159,316.118L1022.912,469.824L1023.007,468.121L1024.007,382.14L1024.858,139.527L1025.007,164.716L1026.007,507.267L1026.796,548.933L1027.054,543.951L1028.007,582.113L1029.007,618.668L1030.007,637.579L1031.007,649.42L1032.007,660.152L1033.007,665.16L1034.007,668.685L1035.007,670.765L1035.165,670.748L1035.73,671.727L1036.511,671.522L1037.007,670.245L1037.76,666.149L1038.007,669.734L1038.408,673.268L1039.308,673.946L1040.007,671.362L1040.459,672.167L1041.007,669.78L1042.007,664.956L1043.007,605.525L1043.116,528.398L1043.499,655.479L1044.434,655.345L1045.007,650.291L1045.257,648.774L1045.829,653.719L1046.205,653.125L1046.952,657.832L1047.231,656.755L1047.851,663.029L1048.109,662.39L1049.007,667.307L1049.525,669.29L1050.034,667.931L1050.815,671.887L1051.129,671.696L1051.778,674.203L1052.007,674.026L1052.44,673.618L1053.159,673.934L1054.007,673.186L1054.547,662.487L1055.007,673.403L1055.704,674.285L1056.007,673.609L1056.778,659.713L1057.008,660.384L1057.42,671.754L1058.752,671.076L1059.007,668.998L1059.233,660.498L1059.561,669.143L1060.007,666.439L1060.6,661.711L1061.012,664.551L1062.007,662.328L1062.895,646.432L1063.007,647.247L1063.501,653.208L1064.248,646.426L1065.007,653.831L1065.398,653.499L1066.007,656.314L1066.751,667.848L1067.1,666.678L1068.007,673.014L1069.004,674.016L1069.007,674.015L1069.785,671.589L1070.078,672.641L1070.831,666.745L1071.007,667.291L1071.508,671.117L1072.007,670.42L1073.007,662.464L1073.14,661.185L1074.007,671.352L1074.639,672.463L1075.007,671.067L1075.462,668.777L1076.007,673.137L1076.682,673.951L1077.007,672.066L1077.324,671.425L1078.007,673.248L1078.21,673.387L1078.726,671.283L1079.416,669.635L1079.995,671.641L1080.358,671.952L1081.007,670.99L1081.09,670.576L1081.739,671.989L1082.122,671.589L1082.834,673.207L1083.007,673.047L1083.447,673.967L1084.047,673.857L1085.007,672.731L1085.428,672.876L1086.007,672.35L1086.084,672.094L1086.732,672.848L1087.213,672.101L1087.625,672.687L1088.007,672.549L1088.671,673.392L1089.396,672.569L1090.007,673.76L1090.68,674.31L1091.224,674.443L1091.719,673.825L1092.277,674.108L1093.007,672.924L1093.49,672.965L1094.007,672.394L1094.153,672.511L1094.983,671.04L1095.408,671.203L1095.75,670.46L1096.029,670.959L1097.007,669.01L1097.319,667.901L1097.975,670.546L1098.449,670.026L1099.007,671.04L1100.007,672.785L1100.478,673.4L1100.799,672.719L1101.587,673.879L1102.007,672.518L1102.787,670.928L1103.007,671.028L1103.847,668.392L1104.028,669.039L1104.739,666.176L1105.123,666.311L1105.848,665.269L1106.023,665.32L1106.832,666.519L1107.007,666.476L1107.878,670.173L1108.007,670.07L1108.952,672.566L1109.649,655.658L1110.007,673.092L1110.458,674.182L1111.007,657.355L1111.03,656.619L1111.539,673.472L1112.007,671.696L1113.007,669.12L1114.007,665.141L1114.998,662.045L1115.201,662.756L1115.605,661.732L1116.1,661.575L1116.491,663.032L1117.056,662.428L1118.007,665.303L1118.039,665.3L1119.007,667.16L1119.992,669.662L1120.222,669.394L1121.007,671.547L1121.624,673.155L1122.035,672.436L1122.893,674.134L1123.423,673.248L1123.974,674.16L1124.007,674.057L1125.007,670.171L1125.027,670.001L1125.864,673.273L1126.394,670.167L1126.715,673.823L1127.007,673.424L1127.643,674.057L1128.047,673.939L1128.996,671.019L1129.533,671.666L1130.007,670.15L1130.976,664.991L1131.144,665.599L1132.007,660.124L1132.531,562.028L1133.208,659.931L1133.857,559.121L1134.007,625.128L1135,665.969L1135.223,665.985L1135.942,663.464L1136.06,663.538L1137.007,660.176L1138.007,657.876L1138.411,654.649L1139.213,657.66L1139.68,656.426L1140.008,656.674L1140.503,653.947L1141.117,656.575L1141.765,653.428L1142.007,655.119L1142.825,659.818L1143.244,658.422L1143.99,666.372L1144.75,666.734L1145.007,664.307L1145.134,659.722L1145.775,670.409L1146.368,660.537L1147.007,672.675L1147.686,671.757L1148.007,673.309L1148.823,674.233L1149.193,673.831L1150.007,668.658L1150.999,662.11L1151.02,662.121L1152.007,654.134L1152.15,653.236L1152.722,657.733L1153.007,655.156L1153.97,631.168L1154.137,643.153L1155.007,623.531L1155.323,589.326L1156.669,617.786L1157.007,642.986L1158.007,652.837L1158.357,654.169L1158.831,652.691L1159.007,653.251L1160.007,655.913L1160.86,663.614L1161.077,660.287L1161.955,671.634L1162.311,666.417L1162.799,674.057L1163.35,674.009L1164.007,672.647L1164.522,671.385L1164.975,672.984L1165.01,672.945L1165.47,674.009L1166.244,672.708L1166.998,674.051L1168.007,674.184L1169.007,672.887L1169.69,670.406L1170.08,671.574L1171.007,668.58L1171.105,668.822L1172.007,664.875L1172.57,655.613L1173.007,666.569L1173.7,668.367L1174.599,667.841L1175.007,666.73L1175.994,661.974L1176.141,662.624L1176.496,651.974L1177.007,660.271L1177.842,647.865L1178.007,654.959L1179.007,658.465L1179.391,657.129L1179.99,659.404L1180.067,659.409L1180.639,658.2L1181.007,658.458L1181.385,651.49L1182.71,651.111L1183.007,657.271L1183.715,658.615L1184.008,658.199L1184.517,647.126L1185.007,654.572L1185.856,638.381L1186.086,645.956L1186.769,630.456L1187.271,637.38L1188.004,624.684L1188.007,624.698L1188.339,632.425L1189.175,626.813L1190.007,636.406L1190.598,639.996L1190.905,635.079L1191.007,637.515L1191.205,642.096L1192.084,641.526L1192.858,634.559L1193.007,640.512L1193.36,644.452L1194.267,639.703L1194.922,651.056L1195.529,647.806L1196.007,653.65L1196.735,656.094L1197.007,655.216L1197.886,658.175L1198.221,656.383L1198.465,658.009L1199.232,657.58L1200.007,654.877L1200.362,651.998L1201.624,654.162L1202.007,655.324L1203.007,660.076L1204.007,665.259L1205.007,669.662L1205.969,671.573L1206.144,671.293L1207.007,673.141L1207.908,673.917L1208.18,673.224L1208.961,674.005L1209.101,674.058L1209.944,673.274L1210.063,673.625L1210.698,673.136L1211.046,673.206L1212.007,667.514L1212.155,666.279L1213.007,671.255L1213.857,673.452L1214.352,673.643L1214.861,672.762L1215.189,672.66L1215.831,674.191L1216.535,674.22L1216.974,673.146L1217.267,673.361L1218.007,671.783L1219.007,665.681L1219.136,663.016L1219.757,667.793L1220.357,666.93L1220.887,668.607L1221.25,666.694L1221.633,669.747L1222.007,667.665L1223.007,672.388L1223.405,670.478L1223.907,672.989L1224.186,671.021L1224.646,673.972L1225.007,672.671L1226.007,668.347L1226.403,665.348L1227.007,670.583L1227.366,670.207L1228.007,672.371L1229.007,673.438L1229.646,673.833L1229.87,673.428L1230.33,673.407L1230.909,673.927L1231.02,673.687L1231.753,674.299L1232.011,674.19L1232.408,672.405L1233.147,672.899L1233.963,672.147L1235.007,672.027L1235.937,673.345L1236.007,673.251L1237.007,673.988L1237.904,673.716L1238.218,673.461L1238.643,673.855L1239.124,673.666L1239.661,672.403L1240.017,673.028L1240.847,674.234L1241.007,673.925L1241.963,672.982L1242.43,673.435L1242.939,673.03L1243.093,673.324L1243.839,672.192L1244.229,672.77L1244.676,671.503L1245.007,672.709L1245.778,673.149L1246.238,672.981L1246.831,673.795L1247.221,673.602L1248.007,674.152L1248.121,674.289L1248.658,673.826L1250.15,673.817L1250.401,673.346L1251.42,673.521L1251.622,674.034L1252.48,673.452L1252.954,673.926L1255.025,674.171L1255.681,673.587L1256.511,673.769L1256.664,674.054L1257.166,674.046L1257.341,673.698L1259.405,673.693L1259.67,674.18L1260.716,674.127L1260.932,673.689L1261.288,673.729L1261.49,674.087L1262.09,673.728L1262.955,674.201L1263.876,674.197L1263.994,673.618L1264.007,673.628L1264.957,674.168L1265.27,673.598L1265.772,674.078L1266.651,674.09L1266.84,673.623L1267.098,673.995L1267.669,673.635L1268.007,673.673L1268.29,674.094L1269.301,674.007L1269.943,673.713L1271.408,673.625L1271.896,674.07L1272.391,673.677L1272.614,674.026" style="fill:none;fill-rule:nonzero;stroke:black;stroke-width:0.8px;"/>
        </g>
        <g transform="matrix(4.166667,0,0,4.166667,0,-85.03937)">
            <path d="M0,690L1272,690" style="fill:none;fill-rule:nonzero;stroke:black;stroke-width:2px;"/>
        </g>
        <g transform="matrix(4.166667,0,0,4.166667,0,-85.03937)">
            <path d="M1181,690L1181,695" style="fill:none;fill-rule:nonzero;stroke:black;stroke-width:2px;"/>
        </g>
        <g transform="matrix(4.166667,0,0,4.166667,0,-85.03937)">
            <path d="M1029,690L1029,695" style="fill:none;fill-rule:nonzero;stroke:black;stroke-width:2px;"/>
        </g>
        <g transform="matrix(4.166667,0,0,4.166667,0,-85.03937)">
            <path d="M876,690L876,695" style="fill:none;fill-rule:nonzero;stroke:black;stroke-width:2px;"/>
        </g>
        <g transform="matrix(4.166667,0,0,4.166667,0,-85.03937)">
            <path d="M723,690L723,695" style="fill:none;fill-rule:nonzero;stroke:black;stroke-width:2px;"/>
        </g>
        <g transform="matrix(4.166667,0,0,4.166667,2218.498922,3037.796875)">
            <text x="0px" y="-7.672px" style="font-family:'ArialMT', 'Arial', sans-serif;font-size:13.432px;">1</text>
            <text x="7.47px" y="0px" style="font-family:'ArialMT', 'Arial', sans-serif;font-size:23.04px;">H Chemical Shift (ppm)</text>
        </g>
        <g transform="matrix(4.166667,0,0,4.166667,0,-85.03937)">
            <path d="M571,690L571,695" style="fill:none;fill-rule:nonzero;stroke:black;stroke-width:2px;"/>
        </g>
        <g transform="matrix(4.166667,0,0,4.166667,0,-85.03937)">
            <path d="M418,690L418,695" style="fill:none;fill-rule:nonzero;stroke:black;stroke-width:2px;"/>
        </g>
        <g transform="matrix(4.166667,0,0,4.166667,0,-85.03937)">
            <path d="M266,690L266,695" style="fill:none;fill-rule:nonzero;stroke:black;stroke-width:2px;"/>
        </g>
        <g transform="matrix(4.166667,0,0,4.166667,0,-85.03937)">
            <path d="M113,690L113,695" style="fill:none;fill-rule:nonzero;stroke:black;stroke-width:2px;"/>
        </g>
    </g>
    <g transform="matrix(1,0,0,1,-256.925527,-784.860257)">
        <g transform="matrix(1,0,0,1,-12.264706,62.137101)">
            <g transform="matrix(1,0,0,1,518.16504,2003.644524)">
                <g transform="matrix(125,0,0,125,134.765625,0)">
                </g>
                <text x="0px" y="0px" style="font-family:'SegoeUI', 'Segoe UI', sans-serif;font-size:125px;">15</text>
            </g>
        </g>
    </g>
    <g transform="matrix(-1.051921,-0.080922,0.080922,1.126122,52.437647,-860.382748)">
        <path d="M17.212,2212.729L-100.799,1910.586" style="fill:none;stroke:black;stroke-width:12.39px;stroke-linecap:round;stroke-linejoin:round;stroke-miterlimit:1.5;"/>
    </g>
    <g transform="matrix(1,0,0,1,4902.058992,2891.84586)">
        <g transform="matrix(96,0,0,96,51.75,0)">
        </g>
        <text x="0px" y="0px" style="font-family:'SegoeUI', 'Segoe UI', sans-serif;font-size:96px;">1</text>
    </g>
    <g transform="matrix(1,0,0,1,1078.987282,2891.65836)">
        <g transform="matrix(96,0,0,96,51.75,0)">
        </g>
        <text x="0px" y="0px" style="font-family:'SegoeUI', 'Segoe UI', sans-serif;font-size:96px;">7</text>
    </g>
    <g transform="matrix(1,0,0,1,1717.095588,2891.65836)">
        <g transform="matrix(96,0,0,96,51.75,0)">
        </g>
        <text x="0px" y="0px" style="font-family:'SegoeUI', 'Segoe UI', sans-serif;font-size:96px;">6</text>
    </g>
    <g transform="matrix(1,0,0,1,2355.203894,2891.65836)">
        <g transform="matrix(96,0,0,96,51.75,0)">
        </g>
        <text x="0px" y="0px" style="font-family:'SegoeUI', 'Segoe UI', sans-serif;font-size:96px;">5</text>
    </g>
    <g transform="matrix(1,0,0,1,2993.312199,2891.65836)">
        <g transform="matrix(96,0,0,96,51.75,0)">
        </g>
        <text x="0px" y="0px" style="font-family:'SegoeUI', 'Segoe UI', sans-serif;font-size:96px;">4</text>
    </g>
    <g transform="matrix(1,0,0,1,3631.420505,2891.65836)">
        <g transform="matrix(96,0,0,96,51.75,0)">
        </g>
        <text x="0px" y="0px" style="font-family:'SegoeUI', 'Segoe UI', sans-serif;font-size:96px;">3</text>
    </g>
    <g transform="matrix(1,0,0,1,4269.528811,2891.65836)">
        <g transform="matrix(96,0,0,96,51.75,0)">
        </g>
        <text x="0px" y="0px" style="font-family:'SegoeUI', 'Segoe UI', sans-serif;font-size:96px;">2</text>
    </g>
    <g transform="matrix(1,0,0,1,440.878976,2891.65836)">
        <g transform="matrix(96,0,0,96,51.75,0)">
        </g>
        <text x="0px" y="0px" style="font-family:'SegoeUI', 'Segoe UI', sans-serif;font-size:96px;">8</text>
    </g>
    <g transform="matrix(1,0,0,1,4537.014476,509.802245)">
        <g transform="matrix(1,0,0,1,0,-85.03937)">
            <g transform="matrix(1,0,0,1,373.441,1983.069)">
                <g transform="matrix(125,0,0,125,67.382812,0)">
                </g>
                <text x="0px" y="0px" style="font-family:'SegoeUI', 'Segoe UI', sans-serif;font-size:125px;">1</text>
            </g>
        </g>
    </g>
    <g transform="matrix(-1.040726,-0.145714,0.204392,0.411564,4563.030241,1643.421567)">
        <path d="M124.975,2327.721L19.389,1919.222" style="fill:none;stroke:black;stroke-width:20.14px;stroke-linecap:round;stroke-linejoin:round;stroke-miterlimit:1.5;"/>
    </g>
    <g transform="matrix(1,0,0,1,4426.106367,-504.83096)">
        <g transform="matrix(1,0,0,1,-365.859038,732.636065)">
            <g transform="matrix(1,0,0,1,838.568874,1983.069)">
                <g transform="matrix(125,0,0,125,67.382812,0)">
                </g>
                <text x="0px" y="0px" style="font-family:'SegoeUI', 'Segoe UI', sans-serif;font-size:125px;">2</text>
            </g>
        </g>
    </g>
    <g transform="matrix(1,0,0,1,4087.61262,-328.933635)">
        <g transform="matrix(1,0,0,1,108.399797,787.620658)">
            <g transform="matrix(1,0,0,1,538.325787,2018.676085)">
                <g transform="matrix(125,0,0,125,67.382812,0)">
                </g>
                <text x="0px" y="0px" style="font-family:'SegoeUI', 'Segoe UI', sans-serif;font-size:125px;">3</text>
            </g>
        </g>
    </g>
    <g transform="matrix(-0.908184,-0.406765,0.310993,0.201605,4212.194002,1941.169169)">
        <path d="M124.975,2327.721L-846.84,-293.02" style="fill:none;stroke:black;stroke-width:20.14px;stroke-linecap:round;stroke-linejoin:round;stroke-miterlimit:1.5;"/>
    </g>
    <g transform="matrix(-1.013442,0.084265,0.160219,0.039224,4544.710612,2522.322942)">
        <path d="M180.896,2600.341L-212.89,9.683" style="fill:none;stroke:black;stroke-width:20.14px;stroke-linecap:round;stroke-linejoin:round;stroke-miterlimit:1.5;"/>
    </g>
    <g transform="matrix(1,0,0,1,3908.316859,131.86781)">
        <g transform="matrix(1,0,0,1,0,-85.03937)">
            <g transform="matrix(1,0,0,1,474.287551,1981.468682)">
                <g transform="matrix(125,0,0,125,67.382812,0)">
                </g>
                <text x="0px" y="0px" style="font-family:'SegoeUI', 'Segoe UI', sans-serif;font-size:125px;">4</text>
            </g>
        </g>
    </g>
    <g transform="matrix(-1.040726,-0.145714,0.204392,0.411564,3982.967399,2009.44529)">
        <path d="M-294.565,373.319L-418.864,-45.183" style="fill:none;stroke:black;stroke-width:20.14px;stroke-linecap:round;stroke-linejoin:round;stroke-miterlimit:1.5;"/>
    </g>
    <g transform="matrix(1,0,0,1,3422.197331,-737.008695)">
        <g transform="matrix(1,0,0,1,40.098643,1052.02068)">
            <g transform="matrix(1,0,0,1,537.890065,1999.072185)">
                <g transform="matrix(125,0,0,125,67.382812,0)">
                </g>
                <text x="0px" y="0px" style="font-family:'SegoeUI', 'Segoe UI', sans-serif;font-size:125px;">5</text>
            </g>
        </g>
    </g>
    <g transform="matrix(-1.035269,0.00482,0.191928,0.067753,3506.450951,2568.929756)">
        <path d="M-458.318,327.382L-1120.49,-3291.327" style="fill:none;stroke:black;stroke-width:20.14px;stroke-linecap:round;stroke-linejoin:round;stroke-miterlimit:1.5;"/>
    </g>
    <g transform="matrix(1,0,0,1,3274.365692,-906.758471)">
        <g transform="matrix(1,0,0,1,226.550984,1408.637893)">
            <g transform="matrix(1,0,0,1,272.280574,2001.358355)">
                <g transform="matrix(125,0,0,125,67.382812,0)">
                </g>
                <text x="0px" y="0px" style="font-family:'SegoeUI', 'Segoe UI', sans-serif;font-size:125px;">6</text>
            </g>
        </g>
    </g>
    <g transform="matrix(1,0,0,1,3003.758328,-1638.462886)">
        <g transform="matrix(1,0,0,1,-4.900975,71.791838)">
            <g transform="matrix(1,0,0,1,359.922703,2151.615169)">
                <g transform="matrix(125,0,0,125,256.347656,0)">
                </g>
                <text x="0px" y="0px" style="font-family:'SegoeUI', 'Segoe UI', sans-serif;font-size:125px;">7,8,9</text>
            </g>
        </g>
    </g>
    <g transform="matrix(-1.016403,0.141328,0.182004,-0.022134,3301.233886,2724.124927)">
        <path d="M-458.318,327.382L-7715.817,-40306.02" style="fill:none;stroke:black;stroke-width:20.9px;stroke-linecap:round;stroke-linejoin:round;stroke-miterlimit:1.5;"/>
    </g>
    <g transform="matrix(1,0,0,1,2113.720367,-906.758471)">
        <g transform="matrix(1,0,0,1,35.056466,1160.250051)">
            <g transform="matrix(1,0,0,1,745.89592,2001.358355)">
                <g transform="matrix(125,0,0,125,134.765625,0)">
                </g>
                <text x="0px" y="0px" style="font-family:'SegoeUI', 'Segoe UI', sans-serif;font-size:125px;">10</text>
            </g>
        </g>
    </g>
    <g transform="matrix(1,0,0,1,1982.347524,-444.397178)">
        <g transform="matrix(1,0,0,1,764.609319,2949.160833)">
            <g transform="matrix(125,0,0,125,134.765625,0)">
            </g>
            <text x="0px" y="0px" style="font-family:'SegoeUI', 'Segoe UI', sans-serif;font-size:125px;">11</text>
        </g>
    </g>
    <g transform="matrix(-1.021194,0.050975,0.183216,-0.008116,2446.405861,2534.434846)">
        <path d="M-458.318,327.382L-38046.15,-209219.532" style="fill:none;stroke:black;stroke-width:20.97px;stroke-linecap:round;stroke-linejoin:round;stroke-miterlimit:1.5;"/>
    </g>
    <g transform="matrix(-1.021298,0.048023,0.183227,-0.007812,2257.942765,2717.652274)">
        <path d="M-458.318,327.382L-37591.103,-206519.917" style="fill:none;stroke:black;stroke-width:21px;stroke-linecap:round;stroke-linejoin:round;stroke-miterlimit:1.5;"/>
    </g>
    <g transform="matrix(1,0,0,1,1031.803994,561.647579)">
        <g transform="matrix(1,0,0,1,0,-85.03937)">
            <g transform="matrix(1,0,0,1,527.461557,1994.499847)">
                <g transform="matrix(125,0,0,125,134.765625,0)">
                </g>
                <text x="0px" y="0px" style="font-family:'SegoeUI', 'Segoe UI', sans-serif;font-size:125px;">12</text>
            </g>
        </g>
    </g>
    <g transform="matrix(-1.021244,0.04946,0.183221,-0.007957,1103.279973,2708.506031)">
        <path d="M-458.318,327.382L-38046.15,-209219.532" style="fill:none;stroke:black;stroke-width:21.07px;stroke-linecap:round;stroke-linejoin:round;stroke-miterlimit:1.5;"/>
    </g>
    <g transform="matrix(1,0,0,1,558.953664,292.540141)">
        <g transform="matrix(1,0,0,1,16.537248,271.283884)">
            <g transform="matrix(1,0,0,1,523.713378,2005.930693)">
                <g transform="matrix(125,0,0,125,134.765625,0)">
                </g>
                <text x="0px" y="0px" style="font-family:'SegoeUI', 'Segoe UI', sans-serif;font-size:125px;">13</text>
            </g>
        </g>
    </g>
    <g transform="matrix(1,0,0,1,304.20773,69.20124)">
        <g transform="matrix(1,0,0,1,461.815653,2500.553479)">
            <g transform="matrix(125,0,0,125,134.765625,0)">
            </g>
            <text x="0px" y="0px" style="font-family:'SegoeUI', 'Segoe UI', sans-serif;font-size:125px;">14</text>
        </g>
    </g>
    <g transform="matrix(-1.021468,0.043461,0.183244,-0.007353,640.789069,2705.558918)">
        <path d="M-458.318,327.382L-38046.15,-209219.532" style="fill:none;stroke:black;stroke-width:21.06px;stroke-linecap:round;stroke-linejoin:round;stroke-miterlimit:1.5;"/>
    </g>
    <g transform="matrix(-1.021441,0.044256,0.183241,-0.007439,310.093122,2717.762571)">
        <path d="M-458.318,327.382L-38046.15,-209219.532" style="fill:none;stroke:black;stroke-width:21.05px;stroke-linecap:round;stroke-linejoin:round;stroke-miterlimit:1.5;"/>
    </g>
    <g transform="matrix(0.524008,0,0,1,563.978089,-241.898627)">
        <path d="M4690.02,835.45L4690.02,748.74L5244.964,748.74L5244.964,835.45" style="fill:none;stroke:black;stroke-width:15.66px;stroke-linecap:round;stroke-linejoin:round;stroke-miterlimit:1.5;"/>
    </g>
</svg>
